<svg width="40" height="30" viewBox="0 0 40 30" fill="none" xmlns="http://www.w3.org/2000/svg">
<g clip-path="url(#clip0_421_1739)">
<path d="M0 0H40V10H0V0Z" fill="#FF9933"/>
<path d="M0 10H40V20H0V10Z" fill="white"/>
<path d="M0 20H40V30H0V20Z" fill="#128807"/>
<path d="M20 19C22.2091 19 24 17.2091 24 15C24 12.7909 22.2091 11 20 11C17.7909 11 16 12.7909 16 15C16 17.2091 17.7909 19 20 19Z" fill="#000088"/>
<path d="M20 18.5C21.933 18.5 23.5 16.933 23.5 15C23.5 13.067 21.933 11.5 20 11.5C18.067 11.5 16.5 13.067 16.5 15C16.5 16.933 18.067 18.5 20 18.5Z" fill="white"/>
<path d="M19.9998 15.7003C20.3864 15.7003 20.6998 15.3869 20.6998 15.0003C20.6998 14.6137 20.3864 14.3003 19.9998 14.3003C19.6132 14.3003 19.2998 14.6137 19.2998 15.0003C19.2998 15.3869 19.6132 15.7003 19.9998 15.7003Z" fill="#000088"/>
<path d="M23.4459 15.6369C23.5445 15.6499 23.6349 15.5805 23.6479 15.4819C23.6609 15.3834 23.5915 15.2929 23.4929 15.28C23.3944 15.267 23.3039 15.3364 23.291 15.4349C23.278 15.5335 23.3474 15.6239 23.4459 15.6369Z" fill="#000088"/>
<path d="M19.9999 18.5003L20.1199 16.4003L19.9999 15.4003L19.8799 16.4003L19.9999 18.5003Z" fill="#000088"/>
<path d="M23.1643 16.5071C23.2561 16.5451 23.3614 16.5015 23.3994 16.4097C23.4375 16.3178 23.3939 16.2125 23.302 16.1745C23.2102 16.1364 23.1049 16.18 23.0669 16.2719C23.0288 16.3637 23.0724 16.469 23.1643 16.5071Z" fill="#000088"/>
<path d="M19.0938 18.3809L19.7533 16.3835L19.8962 15.3865L19.5215 16.3214L19.0938 18.3809Z" fill="#000088"/>
<path d="M22.6658 17.2749C22.7447 17.3355 22.8577 17.3206 22.9182 17.2417C22.9787 17.1629 22.9639 17.0499 22.885 16.9893C22.8061 16.9288 22.6931 16.9437 22.6326 17.0226C22.5721 17.1014 22.587 17.2144 22.6658 17.2749Z" fill="#000088"/>
<path d="M18.2492 18.0314L19.4032 16.2728L19.7992 15.3467L19.1953 16.1528L18.2492 18.0314Z" fill="#000088"/>
<path d="M21.987 17.8867C22.0476 17.9656 22.1606 17.9805 22.2394 17.92C22.3183 17.8595 22.3332 17.7465 22.2727 17.6676C22.2121 17.5887 22.0991 17.5738 22.0203 17.6344C21.9414 17.6949 21.9265 17.8079 21.987 17.8867Z" fill="#000088"/>
<path d="M17.5256 17.4745L19.0954 16.0744L19.7177 15.2825L18.9257 15.9047L17.5256 17.4745Z" fill="#000088"/>
<path d="M21.1718 18.3031C21.2099 18.3949 21.3152 18.4385 21.407 18.4005C21.4989 18.3625 21.5425 18.2572 21.5044 18.1653C21.4664 18.0735 21.3611 18.0299 21.2692 18.0679C21.1774 18.106 21.1338 18.2112 21.1718 18.3031Z" fill="#000088"/>
<path d="M16.9691 16.7501L18.8477 15.804L19.6538 15.2001L18.7277 15.5962L16.9691 16.7501Z" fill="#000088"/>
<path d="M20.2769 18.4939C20.2899 18.5924 20.3803 18.6618 20.4789 18.6488C20.5774 18.6359 20.6468 18.5455 20.6338 18.4469C20.6209 18.3483 20.5305 18.279 20.4319 18.2919C20.3333 18.3049 20.2639 18.3953 20.2769 18.4939Z" fill="#000088"/>
<path d="M16.6187 15.9059L18.6782 15.4783L19.6131 15.1036L18.6161 15.2465L16.6187 15.9059Z" fill="#000088"/>
<path d="M19.3637 18.4467C19.3507 18.5453 19.4201 18.6357 19.5187 18.6486C19.6173 18.6616 19.7077 18.5922 19.7207 18.4937C19.7336 18.3951 19.6642 18.3047 19.5657 18.2917C19.4671 18.2787 19.3767 18.3481 19.3637 18.4467Z" fill="#000088"/>
<path d="M16.5007 15.0006L18.6007 15.1198L19.6006 14.9999L18.6006 14.8805L16.5007 15.0006Z" fill="#000088"/>
<path d="M18.494 18.1643C18.456 18.2561 18.4996 18.3614 18.5915 18.3995C18.6833 18.4375 18.7886 18.3939 18.8266 18.302C18.8647 18.2102 18.8211 18.1049 18.7292 18.0669C18.6374 18.0288 18.5321 18.0724 18.494 18.1643Z" fill="#000088"/>
<path d="M16.6201 14.0942L18.6175 14.7536L19.6145 14.8965L18.6796 14.5217L16.6201 14.0942Z" fill="#000088"/>
<path d="M17.7259 17.6667C17.6654 17.7456 17.6803 17.8585 17.7591 17.9191C17.838 17.9796 17.951 17.9647 18.0115 17.8858C18.072 17.807 18.0572 17.694 17.9783 17.6335C17.8994 17.5729 17.7864 17.5878 17.7259 17.6667Z" fill="#000088"/>
<path d="M16.9692 13.2502L18.7278 14.4041L19.6539 14.8002L18.8478 14.1963L16.9692 13.2502Z" fill="#000088"/>
<path d="M17.1127 16.9872C17.0338 17.0477 17.0189 17.1607 17.0794 17.2395C17.1399 17.3184 17.2529 17.3333 17.3318 17.2728C17.4107 17.2123 17.4256 17.0993 17.365 17.0204C17.3045 16.9415 17.1915 16.9267 17.1127 16.9872Z" fill="#000088"/>
<path d="M17.5249 12.5254L18.9249 14.0952L19.7169 14.7174L19.0947 13.9255L17.5249 12.5254Z" fill="#000088"/>
<path d="M16.6969 16.1721C16.6051 16.2101 16.5615 16.3154 16.5995 16.4072C16.6375 16.4991 16.7428 16.5427 16.8347 16.5047C16.9265 16.4666 16.9701 16.3613 16.9321 16.2695C16.8941 16.1776 16.7888 16.134 16.6969 16.1721Z" fill="#000088"/>
<path d="M18.2504 11.9691L19.1964 13.8477L19.8004 14.6537L19.4043 13.7277L18.2504 11.9691Z" fill="#000088"/>
<path d="M16.506 15.2771C16.4074 15.2901 16.3381 15.3805 16.351 15.4791C16.364 15.5777 16.4544 15.6471 16.553 15.6341C16.6515 15.6211 16.7209 15.5307 16.708 15.4321C16.695 15.3336 16.6046 15.2642 16.506 15.2771Z" fill="#000088"/>
<path d="M19.0945 11.6193L19.522 13.6788L19.8968 14.6137L19.7539 13.6167L19.0945 11.6193Z" fill="#000088"/>
<path d="M16.5541 14.3631C16.4555 14.3501 16.3651 14.4195 16.3521 14.5181C16.3392 14.6166 16.4085 14.707 16.5071 14.72C16.6057 14.733 16.6961 14.6636 16.7091 14.5651C16.722 14.4665 16.6527 14.3761 16.5541 14.3631Z" fill="#000088"/>
<path d="M19.9999 11.4998L19.8804 13.5998L20.0003 14.5997L20.12 13.5997L19.9999 11.4998Z" fill="#000088"/>
<path d="M16.8357 13.4932C16.7439 13.4551 16.6386 13.4987 16.6006 13.5906C16.5625 13.6824 16.6061 13.7877 16.698 13.8258C16.7898 13.8638 16.8951 13.8202 16.9331 13.7284C16.9712 13.6365 16.9276 13.5312 16.8357 13.4932Z" fill="#000088"/>
<path d="M20.9062 11.6192L20.2467 13.6166L20.1038 14.6136L20.4786 13.6787L20.9062 11.6192Z" fill="#000088"/>
<path d="M17.3342 12.7251C17.2553 12.6645 17.1423 12.6794 17.0818 12.7583C17.0213 12.8371 17.0361 12.9501 17.115 13.0107C17.1939 13.0712 17.3069 13.0563 17.3674 12.9774C17.4279 12.8986 17.413 12.7856 17.3342 12.7251Z" fill="#000088"/>
<path d="M21.7508 11.9686L20.5969 13.7272L20.2008 14.6533L20.8047 13.8472L21.7508 11.9686Z" fill="#000088"/>
<path d="M18.013 12.1127C17.9524 12.0338 17.8395 12.0189 17.7606 12.0794C17.6817 12.1399 17.6668 12.2529 17.7273 12.3318C17.7879 12.4107 17.9009 12.4256 17.9797 12.365C18.0586 12.3045 18.0735 12.1915 18.013 12.1127Z" fill="#000088"/>
<path d="M22.4744 12.525L20.9046 13.9251L20.2823 14.717L21.0743 14.0948L22.4744 12.525Z" fill="#000088"/>
<path d="M18.8282 11.6969C18.7901 11.6051 18.6848 11.5615 18.593 11.5995C18.5011 11.6375 18.4575 11.7428 18.4956 11.8347C18.5336 11.9265 18.6389 11.9701 18.7308 11.9321C18.8226 11.894 18.8662 11.7888 18.8282 11.6969Z" fill="#000088"/>
<path d="M23.0319 13.2499L21.1533 14.196L20.3472 14.7999L21.2733 14.4038L23.0319 13.2499Z" fill="#000088"/>
<path d="M19.7231 11.506C19.7101 11.4074 19.6197 11.3381 19.5211 11.351C19.4226 11.364 19.3532 11.4544 19.3662 11.553C19.3791 11.6515 19.4695 11.7209 19.5681 11.708C19.6667 11.695 19.7361 11.6046 19.7231 11.506Z" fill="#000088"/>
<path d="M23.3803 14.094L21.3208 14.5216L20.3859 14.8963L21.3829 14.7534L23.3803 14.094Z" fill="#000088"/>
<path d="M20.6373 11.5534C20.6502 11.4549 20.5808 11.3645 20.4823 11.3515C20.3837 11.3385 20.2933 11.4079 20.2803 11.5065C20.2674 11.605 20.3367 11.6955 20.4353 11.7084C20.5339 11.7214 20.6243 11.652 20.6373 11.5534Z" fill="#000088"/>
<path d="M23.5003 14.9994L21.4003 14.8804L20.4004 15.0003L21.4004 15.1196L23.5003 14.9994Z" fill="#000088"/>
<path d="M21.506 11.8356C21.544 11.7437 21.5004 11.6384 21.4085 11.6004C21.3167 11.5624 21.2114 11.606 21.1734 11.6978C21.1353 11.7897 21.1789 11.895 21.2708 11.933C21.3626 11.971 21.4679 11.9274 21.506 11.8356Z" fill="#000088"/>
<path d="M23.3799 15.9057L21.3825 15.2463L20.3855 15.1034L21.3204 15.4782L23.3799 15.9057Z" fill="#000088"/>
<path d="M22.2751 12.3339C22.3356 12.255 22.3207 12.142 22.2418 12.0815C22.163 12.021 22.05 12.0359 21.9895 12.1148C21.9289 12.1936 21.9438 12.3066 22.0227 12.3671C22.1016 12.4277 22.2146 12.4128 22.2751 12.3339Z" fill="#000088"/>
<path d="M23.0318 16.7504L21.2731 15.5965L20.3471 15.2004L21.1531 15.8043L23.0318 16.7504Z" fill="#000088"/>
<path d="M22.8883 13.0137C22.9672 12.9531 22.9821 12.8402 22.9215 12.7613C22.861 12.6824 22.748 12.6675 22.6692 12.7281C22.5903 12.7886 22.5754 12.9016 22.6359 12.9804C22.6965 13.0593 22.8095 13.0742 22.8883 13.0137Z" fill="#000088"/>
<path d="M22.4761 17.4753L21.076 15.9056L20.2841 15.2833L20.9063 16.0753L22.4761 17.4753Z" fill="#000088"/>
<path d="M23.3041 13.8282C23.3959 13.7901 23.4395 13.6848 23.4015 13.593C23.3634 13.5011 23.2581 13.4575 23.1663 13.4956C23.0745 13.5336 23.0308 13.6389 23.0689 13.7307C23.1069 13.8226 23.2122 13.8662 23.3041 13.8282Z" fill="#000088"/>
<path d="M21.7506 18.0312L20.8045 16.1525L20.2006 15.3465L20.5967 16.2725L21.7506 18.0312Z" fill="#000088"/>
<path d="M23.494 14.7227C23.5926 14.7097 23.6619 14.6193 23.649 14.5207C23.636 14.4222 23.5456 14.3528 23.447 14.3658C23.3485 14.3788 23.2791 14.4692 23.2921 14.5677C23.305 14.6663 23.3954 14.7357 23.494 14.7227Z" fill="#000088"/>
<path d="M20.9056 18.3805L20.4779 16.321L20.1032 15.3862L20.2461 16.3832L20.9056 18.3805Z" fill="#000088"/>
</g>
<defs>
<clipPath id="clip0_421_1739">
<rect width="40" height="30" fill="white"/>
</clipPath>
</defs>
</svg>
