<svg width="40" height="30" viewBox="0 0 40 30" fill="none" xmlns="http://www.w3.org/2000/svg">
<path fill-rule="evenodd" clip-rule="evenodd" d="M0 0H40.0078V30H0V0Z" fill="white"/>
<path fill-rule="evenodd" clip-rule="evenodd" d="M4.38281 9.11169L8.54415 2.87204L9.58409 3.56559L5.42276 9.80525L4.38281 9.11169ZM5.94273 10.152L10.1041 3.91237L11.144 4.60593L6.98267 10.8456L5.94273 10.152ZM7.50264 11.1924L11.664 4.9527L12.7039 5.64626L8.54258 11.8859L7.50264 11.1924Z" fill="#000001"/>
<path fill-rule="evenodd" clip-rule="evenodd" d="M27.2617 24.37L31.4231 18.1303L32.463 18.8239L28.3017 25.0636L27.2617 24.37ZM28.8216 25.4103L32.983 19.1707L34.0229 19.8642L29.8616 26.1039L28.8216 25.4103ZM30.3815 26.4507L34.5429 20.211L35.5828 20.9046L31.4215 27.1442L30.3815 26.4507Z" fill="#000001"/>
<path fill-rule="evenodd" clip-rule="evenodd" d="M28.8223 20.9033L34.022 24.3711L28.8223 20.9033Z" fill="black"/>
<path d="M28.8223 20.9033L34.022 24.3711" stroke="white" stroke-width="1.25"/>
<path fill-rule="evenodd" clip-rule="evenodd" d="M13.7441 10.8472C14.8478 9.19231 16.5636 8.04365 18.5142 7.65389C20.4648 7.26413 22.4903 7.66519 24.1451 8.76884C25.8 9.8725 26.9486 11.5883 27.3384 13.5389C27.7282 15.4895 27.3271 17.515 26.2235 19.1698L13.7441 10.8472Z" fill="#CD2E3A"/>
<path fill-rule="evenodd" clip-rule="evenodd" d="M13.7434 10.847C12.6397 12.5019 12.2387 14.5274 12.6284 16.4779C13.0182 18.4285 14.1668 20.1444 15.8217 21.248C17.4765 22.3517 19.5021 22.7527 21.4526 22.363C23.4032 21.9732 25.119 20.8245 26.2227 19.1697C26.7745 18.3423 26.975 17.3295 26.7802 16.3542C26.5853 15.3789 26.011 14.521 25.1835 13.9692C24.3561 13.4174 23.3433 13.2168 22.3681 13.4117C21.3928 13.6066 20.5349 14.1809 19.983 15.0083L13.7434 10.847Z" fill="#0047A0"/>
<path d="M19.9834 15.0083C21.1325 13.2853 20.6673 10.9569 18.9442 9.80781C17.2212 8.65869 14.8929 9.12393 13.7438 10.847C12.5946 12.57 13.0599 14.8983 14.7829 16.0475C16.5059 17.1966 18.8343 16.7313 19.9834 15.0083Z" fill="#CD2E3A"/>
<path fill-rule="evenodd" clip-rule="evenodd" d="M8.5625 27.1475L4.40117 20.9078L5.44111 20.2142L9.60244 26.4539L8.5625 27.1475ZM10.1224 26.1071L5.96108 19.8675L7.00102 19.1739L11.1624 25.4136L10.1224 26.1071ZM11.6823 25.0668L7.52099 18.8271L8.56094 18.1336L12.7223 24.3732L11.6823 25.0668Z" fill="#000001"/>
<path fill-rule="evenodd" clip-rule="evenodd" d="M31.4414 11.8892L27.2801 5.6495L28.32 4.95595L32.4813 11.1956L31.4414 11.8892ZM33.0013 10.8488L28.84 4.60917L29.8799 3.91561L34.0413 10.1553L33.0013 10.8488ZM34.5612 9.80849L30.3999 3.56883L31.4398 2.87528L35.6012 9.11494L34.5612 9.80849Z" fill="#000001"/>
</svg>
