<svg width="39" height="29" viewBox="0 0 39 29" fill="none" xmlns="http://www.w3.org/2000/svg">
<g clip-path="url(#clip0_421_1840)">
<path d="M15.5996 0H38.9996V29H15.5996V0Z" fill="#FF0000"/>
<path d="M0 0H15.6V29H0V0Z" fill="#006600"/>
<path fill-rule="evenodd" clip-rule="evenodd" d="M20.6889 18.4996C18.7206 18.4391 9.72012 12.8687 9.65918 11.9746L10.1528 11.1589C11.0486 12.4458 20.2501 17.8652 21.1581 17.6719L20.6889 18.4996Z" fill="#FFFF00" stroke="black" stroke-width="0.075" stroke-linecap="round" stroke-linejoin="round"/>
<path fill-rule="evenodd" clip-rule="evenodd" d="M10.0486 11.0445C9.87185 11.5157 12.4008 13.0624 15.4354 14.8991C18.4701 16.7357 21.0965 17.8595 21.2854 17.7024L21.3768 17.5332C21.3403 17.5977 21.2529 17.6098 21.1148 17.5695C20.2922 17.3338 18.1533 16.3611 15.5025 14.7661C12.8456 13.1711 10.5422 11.703 10.1826 11.0807C10.1538 11.0226 10.1412 10.958 10.1461 10.8934H10.1339L10.0608 11.0263L10.0486 11.0445ZM20.7309 18.5241C20.7025 18.5764 20.6314 18.5925 20.5176 18.5724C19.7864 18.4938 17.5561 17.4184 14.9175 15.8536C11.8462 14.0291 9.31122 12.3736 9.59153 11.9386L9.66466 11.8057L9.67685 11.8118C9.4331 12.5488 14.6798 15.5213 14.9906 15.7147C18.0253 17.5755 20.5847 18.6691 20.8101 18.3851L20.7309 18.5241Z" fill="#FFFF00" stroke="black" stroke-width="0.075" stroke-linecap="round" stroke-linejoin="round"/>
<path fill-rule="evenodd" clip-rule="evenodd" d="M15.6119 12.5187C17.5741 12.5006 19.9994 12.2529 21.4009 11.6971L21.0963 11.2137C20.2736 11.6669 17.8361 11.9689 15.5936 12.0112C12.9489 11.9871 11.0781 11.7394 10.1397 11.1171L9.85938 11.6366C11.5778 12.3616 13.345 12.5127 15.6119 12.5187Z" fill="#FFFF00" stroke="black" stroke-width="0.075" stroke-linecap="round" stroke-linejoin="round"/>
<path fill-rule="evenodd" clip-rule="evenodd" d="M21.481 11.7087C21.4322 11.7873 20.5182 12.0954 19.1775 12.325C17.9957 12.5026 16.8019 12.5894 15.6066 12.5848C14.4614 12.589 13.3172 12.5164 12.1819 12.3673C10.7743 12.1498 10.0491 11.8477 9.77488 11.7389L9.84191 11.606C10.6158 11.9081 11.3471 12.0893 12.2002 12.2223C13.3272 12.373 14.4633 12.4477 15.6005 12.4458C16.7896 12.447 17.9771 12.3601 19.1532 12.186C20.5243 11.9625 21.2738 11.6785 21.3835 11.5516L21.481 11.7087ZM21.2129 11.2193C21.0666 11.3402 20.3232 11.6 19.0191 11.8054C17.893 11.9669 16.7566 12.0477 15.6188 12.047C14.2782 12.047 13.1752 11.9504 12.3404 11.8295C11.0119 11.6604 10.305 11.3462 10.0491 11.2616L10.1283 11.1287C10.3294 11.2314 11.0058 11.5033 12.3525 11.6906C13.4351 11.8344 14.5265 11.903 15.6188 11.896C16.7485 11.8964 17.8768 11.8156 18.9947 11.6543C20.3049 11.4731 21.0118 11.1468 21.1214 11.0623L21.2129 11.2193ZM9.15941 14.8625C10.366 15.5089 13.0533 15.8291 15.5944 15.8533C17.91 15.8593 20.9204 15.5029 22.0477 14.9108L22.0172 14.2643C21.6638 14.8081 18.4341 15.3337 15.57 15.3156C12.706 15.2975 10.043 14.8564 9.15332 14.2885V14.8625" fill="#FFFF00"/>
<path d="M9.15941 14.8625C10.366 15.5089 13.0533 15.8291 15.5944 15.8533C17.91 15.8593 20.9204 15.5029 22.0477 14.9108L22.0172 14.2643C21.6638 14.8081 18.4341 15.3337 15.57 15.3156C12.706 15.2975 10.043 14.8564 9.15332 14.2885V14.8625M21.481 11.7087C21.4322 11.7873 20.5182 12.0954 19.1775 12.325C17.9957 12.5026 16.8019 12.5894 15.6066 12.5848C14.4614 12.589 13.3172 12.5164 12.1819 12.3673C10.7743 12.1498 10.0491 11.8477 9.77488 11.7389L9.84191 11.606C10.6158 11.9081 11.3471 12.0893 12.2002 12.2223C13.3272 12.373 14.4633 12.4477 15.6005 12.4458C16.7896 12.447 17.9771 12.3601 19.1532 12.186C20.5243 11.9625 21.2738 11.6785 21.3835 11.5516L21.481 11.7087ZM21.2129 11.2193C21.0666 11.3402 20.3232 11.6 19.0191 11.8054C17.893 11.9669 16.7566 12.0477 15.6188 12.047C14.2782 12.047 13.1752 11.9504 12.3404 11.8295C11.0119 11.6604 10.305 11.3462 10.0491 11.2616L10.1283 11.1287C10.3294 11.2314 11.0058 11.5033 12.3525 11.6906C13.4351 11.8344 14.5265 11.903 15.6188 11.896C16.7485 11.8964 17.8768 11.8156 18.9947 11.6543C20.3049 11.4731 21.0118 11.1468 21.1214 11.0623L21.2129 11.2193Z" stroke="black" stroke-width="0.075" stroke-linecap="round" stroke-linejoin="round"/>
<path fill-rule="evenodd" clip-rule="evenodd" d="M22.1085 14.7719V14.9229C21.9379 15.1284 20.8776 15.4304 19.5491 15.6479C18.2294 15.836 16.8971 15.9249 15.5638 15.9138C14.2996 15.9245 13.0364 15.8376 11.7857 15.654C10.8525 15.5471 9.94057 15.3027 9.08008 14.929V14.7538C9.67117 15.1404 11.2677 15.4304 11.804 15.515C12.7668 15.66 14.0038 15.7688 15.5638 15.7688C17.203 15.7688 18.5132 15.654 19.5248 15.5029C20.4815 15.364 21.8404 15.0075 22.1085 14.7719ZM22.1085 14.2281V14.3792C21.9379 14.5786 20.8776 14.8806 19.5491 15.0981C18.2295 15.2883 16.8973 15.3791 15.5638 15.37C14.2997 15.3774 13.0367 15.2906 11.7857 15.1102C10.8525 15.0033 9.94057 14.759 9.08008 14.3852V14.204C9.67117 14.5967 11.2738 14.8806 11.804 14.9652C13.0488 15.146 14.3057 15.2329 15.5638 15.225C17.203 15.225 18.5193 15.1042 19.5248 14.9531C20.4815 14.8202 21.8404 14.4638 22.1085 14.2281ZM15.5882 18.3848C12.8095 18.3727 10.4268 17.6356 9.92102 17.5148L10.2866 18.0827C11.9959 18.6827 13.7996 18.9752 15.6126 18.9467C17.7271 18.8863 19.5735 18.7231 20.8715 18.0948L21.2493 17.5027C20.3657 17.9196 17.3493 18.3848 15.5821 18.3848" fill="#FFFF00"/>
<path d="M15.5882 18.3848C12.8095 18.3727 10.4268 17.6356 9.92102 17.5148L10.2866 18.0827C11.9959 18.6827 13.7996 18.9752 15.6126 18.9467C17.7271 18.8863 19.5735 18.7231 20.8715 18.0948L21.2493 17.5027C20.3657 17.9196 17.3493 18.3848 15.5821 18.3848M22.1085 14.7719V14.9229C21.9379 15.1284 20.8776 15.4304 19.5491 15.6479C18.2294 15.836 16.8971 15.9249 15.5638 15.9138C14.2996 15.9245 13.0364 15.8376 11.7857 15.654C10.8525 15.5471 9.94057 15.3027 9.08008 14.929V14.7538C9.67117 15.1404 11.2677 15.4304 11.804 15.515C12.7668 15.66 14.0038 15.7688 15.5638 15.7688C17.203 15.7688 18.5132 15.654 19.5248 15.5029C20.4815 15.364 21.8404 15.0075 22.1085 14.7719ZM22.1085 14.2281V14.3792C21.9379 14.5786 20.8776 14.8806 19.5491 15.0981C18.2295 15.2883 16.8973 15.3791 15.5638 15.37C14.2997 15.3774 13.0367 15.2906 11.7857 15.1102C10.8525 15.0033 9.94057 14.759 9.08008 14.3852V14.204C9.67117 14.5967 11.2738 14.8806 11.804 14.9652C13.0488 15.146 14.3057 15.2329 15.5638 15.225C17.203 15.225 18.5193 15.1042 19.5248 14.9531C20.4815 14.8202 21.8404 14.4638 22.1085 14.2281Z" stroke="black" stroke-width="0.075" stroke-linecap="round" stroke-linejoin="round"/>
<path fill-rule="evenodd" clip-rule="evenodd" d="M21.0179 17.9614L20.8473 18.2031C20.2379 18.4206 19.2629 18.6502 18.8607 18.7106C17.7815 18.9098 16.6862 19.0109 15.5884 19.0127C13.1265 18.9764 11.1095 18.4991 10.165 18.0883L10.0857 17.9614L10.0979 17.9372L10.2259 17.9916C11.9603 18.5601 13.7739 18.8557 15.6006 18.8677C16.7462 18.8677 17.8857 18.7408 18.8059 18.5777C20.2196 18.2937 20.7925 18.0822 20.9692 17.9856L21.0118 17.9614H21.0179ZM21.3409 17.4297L21.219 17.6412C20.89 17.762 20.0003 18.0158 18.7023 18.197C17.8492 18.3118 17.319 18.4266 15.6189 18.4568C13.6753 18.4378 11.7437 18.1532 9.87856 17.611L9.81152 17.46C11.7066 17.9792 13.6593 18.2633 15.625 18.3058C17.1789 18.2756 17.8431 18.1608 18.6901 18.046C20.2014 17.8164 20.9631 17.5627 21.1886 17.4962V17.4841L21.347 17.4237L21.3409 17.4297Z" fill="#FFFF00" stroke="black" stroke-width="0.075" stroke-linecap="round" stroke-linejoin="round"/>
<path fill-rule="evenodd" clip-rule="evenodd" d="M21.3774 14.355C21.3835 16.1675 20.445 17.7987 19.6955 18.5117C18.5895 19.5837 17.1105 20.1936 15.564 20.2154C13.7175 20.2456 11.9808 19.0554 11.5116 18.5298C10.4619 17.4261 9.86449 15.9744 9.83583 14.4577C9.94552 12.476 10.7316 11.0985 11.865 10.15C12.9671 9.25316 14.3515 8.76786 15.7772 8.77854C16.6099 8.81782 17.425 9.02948 18.1701 9.39992C18.9153 9.77035 19.574 10.2913 20.1038 10.9294C20.8655 11.8477 21.2007 12.8446 21.3774 14.355ZM15.5761 8.15625C17.2809 8.1562 18.9165 8.82429 20.1265 10.0149C21.3364 11.2054 22.0227 12.822 22.0355 14.5121C22.0355 15.3507 21.8689 16.1811 21.5452 16.9559C21.2215 17.7307 20.7471 18.4347 20.149 19.0277C19.5509 19.6207 18.8408 20.0911 18.0593 20.412C17.2779 20.7329 16.4403 20.8981 15.5944 20.8981C14.7486 20.8981 13.911 20.7329 13.1295 20.412C12.3481 20.0911 11.638 19.6207 11.0399 19.0277C10.4418 18.4347 9.96732 17.7307 9.64363 16.9559C9.31993 16.1811 9.15333 15.3507 9.15333 14.5121C9.14724 11.0079 12.0357 8.15625 15.5761 8.15625Z" fill="#FFFF00" stroke="black" stroke-width="0.075" stroke-linecap="round" stroke-linejoin="round"/>
<path fill-rule="evenodd" clip-rule="evenodd" d="M15.5939 8.12598C19.1405 8.12598 22.0289 10.9897 22.0289 14.506C22.0289 18.0222 19.1405 20.886 15.6 20.886C12.0596 20.886 9.16504 18.0222 9.16504 14.506C9.16504 10.9897 12.0535 8.12598 15.6 8.12598H15.5939ZM9.2991 14.4999C9.2991 17.9316 12.1449 20.741 15.5939 20.741C19.043 20.741 21.8888 17.9316 21.8888 14.4999C21.8888 11.0683 19.043 8.25889 15.5939 8.25889C12.1449 8.25889 9.2991 11.0683 9.2991 14.4999Z" fill="#FFFF00" stroke="black" stroke-width="0.075" stroke-linecap="round" stroke-linejoin="round"/>
<path fill-rule="evenodd" clip-rule="evenodd" d="M15.5997 8.65808C17.161 8.66286 18.6571 9.27992 19.7611 10.3745C20.8651 11.4691 21.4875 12.9524 21.4923 14.5004C21.4891 16.0494 20.8675 17.5342 19.7632 18.6301C18.659 19.726 17.1621 20.3439 15.5997 20.3487C12.37 20.3487 9.70703 17.7145 9.70703 14.5004C9.71185 12.9524 10.3342 11.4691 11.4383 10.3745C12.5423 9.27992 14.0383 8.66286 15.5997 8.65808ZM9.84719 14.5004C9.84719 17.642 12.4431 20.2037 15.5997 20.2037C18.7562 20.2037 21.3522 17.636 21.3522 14.5004C21.3522 11.3647 18.7562 8.79704 15.5997 8.79704C14.077 8.80654 12.6194 9.41048 11.5426 10.478C10.4659 11.5455 9.85677 12.9907 9.84719 14.5004Z" fill="#FFFF00" stroke="black" stroke-width="0.075" stroke-linecap="round" stroke-linejoin="round"/>
<path fill-rule="evenodd" clip-rule="evenodd" d="M15.8621 8.09583H15.3076V20.9223H15.8561L15.8621 8.09583Z" fill="#FFFF00" stroke="black" stroke-width="0.075" stroke-linecap="round" stroke-linejoin="round"/>
<path fill-rule="evenodd" clip-rule="evenodd" d="M15.8014 8.02332H15.9415V20.9948H15.8075V8.02332H15.8014ZM15.2529 8.02332H15.3992V20.9948H15.259L15.2529 8.02332Z" fill="#FFFF00" stroke="black" stroke-width="0.075" stroke-linecap="round" stroke-linejoin="round"/>
<path fill-rule="evenodd" clip-rule="evenodd" d="M22.0352 14.7534V14.2821L21.6452 13.9196L19.4332 13.3396L16.2523 13.0194L12.4132 13.2127L9.6832 13.8532L9.13477 14.258V14.7352L10.5302 14.113L13.8452 13.5994H17.0323L19.3723 13.8532L20.9932 14.2398L22.0352 14.7534Z" fill="#FFFF00" stroke="black" stroke-width="0.075" stroke-linecap="round" stroke-linejoin="round"/>
<path fill-rule="evenodd" clip-rule="evenodd" d="M15.6004 13.5209C17.1177 13.5209 18.5863 13.6599 19.7624 13.8834C20.969 14.1251 21.816 14.4272 22.1085 14.7595V14.9286C21.7551 14.5057 20.6155 14.2036 19.732 14.0224C18.5741 13.8049 17.1116 13.6599 15.5943 13.6599C14.0038 13.6599 12.517 13.817 11.3713 14.0345C10.4573 14.2157 9.23242 14.5782 9.08008 14.9286V14.7534C9.1593 14.5117 10.0734 14.1492 11.353 13.8895C12.5048 13.6659 13.9916 13.5209 15.5943 13.5209H15.6004ZM15.6004 12.9711C16.9959 12.9683 18.3888 13.0897 19.7624 13.3336C20.969 13.5753 21.816 13.8774 22.1085 14.2157V14.3788C21.7551 13.962 20.6155 13.6538 19.732 13.4786C18.5741 13.2551 17.1116 13.1161 15.5943 13.1161C14.18 13.1117 12.7684 13.2371 11.3774 13.4907C10.4938 13.6538 9.22023 14.0284 9.08008 14.3788V14.2097C9.16539 13.968 10.0916 13.5874 11.353 13.3457C12.5109 13.1222 13.9916 12.9711 15.6004 12.9711ZM15.5638 10.1799C17.9587 10.1678 20.0488 10.5122 21.0055 10.9955L21.3529 11.5997C20.5241 11.1526 18.2695 10.6934 15.5699 10.7538C13.3701 10.772 11.0179 10.9955 9.8418 11.6238L10.2562 10.9351C11.2251 10.4336 13.5041 10.1799 15.5638 10.1799Z" fill="#FFFF00" stroke="black" stroke-width="0.075" stroke-linecap="round" stroke-linejoin="round"/>
<path fill-rule="evenodd" clip-rule="evenodd" d="M15.6001 10.6759C16.8505 10.655 18.1003 10.742 19.3355 10.9357C20.3105 11.117 21.2429 11.3828 21.377 11.5278L21.4805 11.7091C21.1576 11.5037 20.3471 11.268 19.3112 11.0747C18.2752 10.8814 16.9529 10.8149 15.594 10.8209C14.0523 10.8149 12.8518 10.8934 11.828 11.0747C11.1224 11.1729 10.4372 11.383 9.79883 11.697L9.90242 11.5097C10.268 11.3284 10.8348 11.1049 11.7976 10.9297C12.864 10.7364 14.0766 10.682 15.6001 10.6759ZM15.6001 10.1322C16.9041 10.1201 18.196 10.1926 19.2015 10.3739C19.8529 10.4698 20.4833 10.674 21.0662 10.978L21.2185 11.2197C20.9626 10.9357 19.9998 10.6639 19.1405 10.5189C18.1412 10.3437 16.9041 10.2772 15.6001 10.2651C14.3862 10.2544 13.1734 10.3433 11.9743 10.5309C11.3472 10.6173 10.7382 10.8029 10.1705 11.0807L10.3046 10.8814C10.658 10.7001 11.2309 10.5309 11.9499 10.392C13.1569 10.2019 14.378 10.113 15.6001 10.1262V10.1322ZM18.7932 17.1587C17.737 16.9772 16.6657 16.8963 15.594 16.917C11.6026 16.9653 10.3168 17.7326 10.1584 17.9622L9.85367 17.4789C10.8774 16.7539 13.0468 16.343 15.6184 16.3793C16.9549 16.3994 18.1046 16.5001 19.0674 16.6814L18.7932 17.1647" fill="#FFFF00"/>
<path d="M18.7932 17.1587C17.737 16.9772 16.6657 16.8963 15.594 16.917C11.6026 16.9653 10.3168 17.7326 10.1584 17.9622L9.85367 17.4789C10.8774 16.7539 13.0468 16.343 15.6184 16.3793C16.9549 16.3994 18.1046 16.5001 19.0674 16.6814L18.7932 17.1647M15.6001 10.6759C16.8505 10.655 18.1003 10.742 19.3355 10.9357C20.3105 11.117 21.2429 11.3828 21.377 11.5278L21.4805 11.7091C21.1576 11.5037 20.3471 11.268 19.3112 11.0747C18.2752 10.8814 16.9529 10.8149 15.594 10.8209C14.0523 10.8149 12.8518 10.8934 11.828 11.0747C11.1224 11.1729 10.4372 11.383 9.79883 11.697L9.90242 11.5097C10.268 11.3284 10.8348 11.1049 11.7976 10.9297C12.864 10.7364 14.0766 10.682 15.6001 10.6759ZM15.6001 10.1322C16.9041 10.1201 18.196 10.1926 19.2015 10.3739C19.8529 10.4698 20.4833 10.674 21.0662 10.978L21.2185 11.2197C20.9626 10.9357 19.9998 10.6639 19.1405 10.5189C18.1412 10.3437 16.9041 10.2772 15.6001 10.2651C14.3862 10.2544 13.1734 10.3433 11.9743 10.5309C11.3472 10.6173 10.7382 10.8029 10.1705 11.0807L10.3046 10.8814C10.658 10.7001 11.2309 10.5309 11.9499 10.392C13.1569 10.2019 14.378 10.113 15.6001 10.1262V10.1322Z" stroke="black" stroke-width="0.075" stroke-linecap="round" stroke-linejoin="round"/>
<path fill-rule="evenodd" clip-rule="evenodd" d="M15.5755 16.8506C16.6845 16.8688 17.7692 16.9111 18.8234 17.1044L18.7503 17.2373C17.7753 17.0561 16.7272 16.9956 15.5816 16.9956C14.1008 16.9836 12.6139 17.1225 11.3159 17.4911C10.9077 17.6059 10.2313 17.8656 10.1581 18.0831L10.085 17.9623C10.1094 17.8294 10.5116 17.5636 11.2794 17.3581C12.7663 16.9352 14.1556 16.8567 15.5755 16.8506ZM15.6242 16.2948C16.7948 16.2936 17.9632 16.3947 19.1159 16.5969L19.0367 16.7359C17.9111 16.5311 16.7686 16.432 15.6242 16.4398C14.1495 16.4398 12.5834 16.5486 11.1575 16.9594C10.7005 17.0923 9.90219 17.3823 9.87781 17.6059L9.80469 17.4729C9.81687 17.2675 10.5055 16.9956 11.127 16.8204C12.5591 16.4036 14.1312 16.3009 15.6242 16.2948Z" fill="#FFFF00" stroke="black" stroke-width="0.075" stroke-linecap="round" stroke-linejoin="round"/>
<path fill-rule="evenodd" clip-rule="evenodd" d="M21.292 17.5513L20.8167 18.2945L19.4334 17.0801L15.8625 14.6936L11.8284 12.5005L9.73828 11.7936L10.1831 10.972L10.3355 10.8934L11.6334 11.2136L15.9234 13.4068L18.3975 14.9534L20.4755 16.4336L21.3225 17.4003L21.292 17.5513Z" fill="#FFFF00" stroke="black" stroke-width="0.075" stroke-linecap="round" stroke-linejoin="round"/>
<path fill-rule="evenodd" clip-rule="evenodd" d="M9.66516 11.8117C10.0308 11.57 12.7242 12.7542 15.5517 14.4459C18.3609 16.1375 21.0544 18.0467 20.8106 18.4031L20.7314 18.53L20.6948 18.5602C20.7009 18.5542 20.7436 18.4998 20.6948 18.3729C20.573 17.9802 18.6595 16.4698 15.4969 14.5727C12.4073 12.7542 9.83578 11.6546 9.58594 11.9688L9.66516 11.8117ZM21.3895 17.5452C21.6211 17.0861 19.1227 15.2192 16.0209 13.4006C12.8522 11.6184 10.5609 10.5671 10.1405 10.8813L10.0552 11.0565C10.0511 11.0565 10.0592 11.0464 10.0795 11.0263C10.1527 10.9659 10.2806 10.9659 10.3355 10.9659C11.0545 10.9779 13.1081 11.9144 15.9905 13.5517C17.258 14.2767 21.3286 16.8746 21.3103 17.5996C21.3103 17.66 21.3164 17.6721 21.292 17.7084L21.3956 17.5513L21.3895 17.5452Z" fill="#FFFF00" stroke="black" stroke-width="0.075" stroke-linecap="round" stroke-linejoin="round"/>
<path d="M11.7393 15.2109C11.7413 15.711 11.8428 16.2058 12.038 16.6669C12.2332 17.1281 12.5182 17.5465 12.8768 17.8983C13.2318 18.2557 13.6546 18.5399 14.1209 18.7346C14.5873 18.9292 15.0878 19.0305 15.5938 19.0325C16.101 19.0339 16.6035 18.9355 17.0721 18.743C17.5407 18.5505 17.9661 18.2678 18.3238 17.9112C18.6819 17.5581 18.9662 17.1384 19.1603 16.6761C19.3544 16.2138 19.4545 15.7181 19.4548 15.2174V10.1134L11.7393 10.1005V15.2109Z" fill="white" stroke="black" stroke-width="0.0933336"/>
<path d="M11.8945 15.2178C11.8945 15.6979 11.991 16.1731 12.1785 16.6158C12.366 17.0584 12.6407 17.4595 12.9865 17.7956C13.6786 18.4853 14.6183 18.8746 15.5995 18.8782C16.5789 18.8781 17.5184 18.4934 18.2126 17.8085C18.5572 17.4719 18.8307 17.0705 19.0171 16.6279C19.2034 16.1853 19.299 15.7103 19.2981 15.2307V10.2684H11.8945V15.2178ZM17.8095 11.7571V14.9084L17.803 15.2371C17.806 15.5251 17.7499 15.8107 17.6382 16.0766C17.5264 16.3425 17.3614 16.5831 17.153 16.7838C16.7397 17.195 16.1786 17.4268 15.593 17.4282C14.982 17.4282 14.4425 17.1705 14.0395 16.7709C13.6248 16.3611 13.391 15.8048 13.3895 15.2242V11.7442L17.8095 11.7571Z" fill="#FF0000" stroke="black" stroke-width="0.0666669"/>
<path d="M12.3633 11.5641C12.3698 11.2096 12.6233 11.1259 12.6233 11.1259C12.6298 11.1259 12.9028 11.2161 12.9028 11.5705L12.3633 11.5641Z" fill="#FFFF00"/>
<path d="M12.1421 11.1323L12.0966 11.5383H12.3696C12.3696 11.2032 12.6296 11.1516 12.6296 11.1516C12.6361 11.1516 12.8896 11.2225 12.8961 11.5383H13.1691L13.1171 11.1259L12.1421 11.1323ZM12.0771 11.5447H13.1821C13.2038 11.5447 13.2168 11.5598 13.2211 11.5899C13.2211 11.6242 13.2081 11.6414 13.1821 11.6414H12.0771C12.0554 11.6414 12.0424 11.6242 12.0381 11.5899C12.0381 11.5598 12.0533 11.5447 12.0836 11.5447H12.0771Z" fill="#FFFF00" stroke="black" stroke-width="0.0666669"/>
<path d="M12.4805 11.538C12.4805 11.3253 12.63 11.2673 12.63 11.2673C12.63 11.2673 12.7795 11.3318 12.7795 11.538H12.4805ZM12.1035 10.958H13.163C13.1846 10.9623 13.1976 10.9795 13.202 11.0096C13.202 11.031 13.189 11.0439 13.163 11.0482H12.1035C12.0818 11.0482 12.0688 11.0332 12.0645 11.0031C12.0645 10.9816 12.0775 10.9687 12.1035 10.9644V10.958ZM12.1295 11.0547H13.1305C13.1521 11.0547 13.1651 11.0697 13.1695 11.0998C13.1738 11.1299 13.1608 11.1449 13.1305 11.1449H12.123C12.097 11.1449 12.084 11.1299 12.084 11.0998C12.084 11.0697 12.097 11.0547 12.123 11.0547H12.1295ZM12.4545 10.3716H12.5325V10.4231H12.591V10.3716H12.6755V10.4296H12.734V10.3651H12.812V10.494C12.812 10.5198 12.8011 10.5327 12.7795 10.5327H12.4935C12.4718 10.5327 12.4588 10.5219 12.4545 10.5004V10.3716ZM12.7535 10.5456L12.773 10.958H12.4935L12.513 10.5391H12.7535" fill="#FFFF00"/>
<path d="M12.7535 10.5456L12.773 10.958H12.4935L12.513 10.5391H12.7535M12.4805 11.538C12.4805 11.3253 12.63 11.2673 12.63 11.2673C12.63 11.2673 12.7795 11.3318 12.7795 11.538H12.4805ZM12.1035 10.958H13.163C13.1846 10.9623 13.1976 10.9795 13.202 11.0096C13.202 11.031 13.189 11.0439 13.163 11.0482H12.1035C12.0818 11.0482 12.0688 11.0332 12.0645 11.0031C12.0645 10.9816 12.0775 10.9687 12.1035 10.9644V10.958ZM12.1295 11.0547H13.1305C13.1521 11.0547 13.1651 11.0697 13.1695 11.0998C13.1738 11.1299 13.1608 11.1449 13.1305 11.1449H12.123C12.097 11.1449 12.084 11.1299 12.084 11.0998C12.084 11.0697 12.097 11.0547 12.123 11.0547H12.1295ZM12.4545 10.3716H12.5325V10.4231H12.591V10.3716H12.6755V10.4296H12.734V10.3651H12.812V10.494C12.812 10.5198 12.8011 10.5327 12.7795 10.5327H12.4935C12.4718 10.5327 12.4588 10.5219 12.4545 10.5004V10.3716Z" stroke="black" stroke-width="0.0666669"/>
<path d="M12.4153 10.7391V10.9582H12.1553V10.7391H12.4153Z" fill="#FFFF00" stroke="black" stroke-width="0.0666669"/>
<path d="M13.1038 10.7391V10.9582H12.8438V10.7391H13.1038Z" fill="#FFFF00" stroke="black" stroke-width="0.0666669"/>
<path d="M12.1094 10.5713H12.1874V10.6357H12.2459V10.5713H12.3239V10.6357H12.3824V10.5713H12.4604V10.7002C12.4604 10.726 12.4495 10.7388 12.4279 10.7388H12.1484C12.1394 10.7356 12.1313 10.7305 12.1245 10.7238C12.1178 10.7171 12.1126 10.7091 12.1094 10.7002V10.5713Z" fill="#FFFF00" stroke="black" stroke-width="0.0666669"/>
<path d="M12.7988 10.5713H12.8768V10.6357H12.9353V10.5713H13.0133V10.6357H13.0718V10.5713H13.1498V10.7002C13.1498 10.726 13.139 10.7388 13.1173 10.7388H12.8378C12.8289 10.7356 12.8207 10.7305 12.814 10.7238C12.8072 10.7171 12.8021 10.7091 12.7988 10.7002V10.5713Z" fill="#FFFF00" stroke="black" stroke-width="0.0666669"/>
<path d="M12.6035 10.6744C12.6035 10.6357 12.662 10.6357 12.662 10.6744V10.7775H12.6035V10.6744Z" fill="#000001"/>
<path d="M12.2588 10.8162C12.2588 10.7776 12.3108 10.7776 12.3108 10.8162V10.8936H12.2588V10.8162Z" fill="#000001"/>
<path d="M12.9482 10.8162C12.9482 10.7776 13.0002 10.7776 13.0002 10.8162V10.8936H12.9482V10.8162Z" fill="#000001"/>
<path d="M12.3633 14.5475C12.3698 14.193 12.6233 14.1093 12.6233 14.1093C12.6298 14.1093 12.9028 14.1995 12.9028 14.5539L12.3633 14.5475Z" fill="#FFFF00"/>
<path d="M12.1421 14.1157L12.0966 14.5217H12.3696C12.3696 14.1866 12.6296 14.135 12.6296 14.135C12.6361 14.135 12.8896 14.2059 12.8961 14.5217H13.1691L13.1171 14.1093L12.1421 14.1157ZM12.0771 14.5281H13.1821C13.2038 14.5281 13.2168 14.5432 13.2211 14.5733C13.2211 14.6076 13.2081 14.6248 13.1821 14.6248H12.0771C12.0554 14.6248 12.0424 14.6076 12.0381 14.5733C12.0381 14.5432 12.0533 14.5281 12.0836 14.5281H12.0771Z" fill="#FFFF00" stroke="black" stroke-width="0.0666669"/>
<path d="M12.4805 14.5214C12.4805 14.3087 12.63 14.2507 12.63 14.2507C12.63 14.2507 12.7795 14.3152 12.7795 14.5214H12.4805ZM12.1035 13.9414H13.163C13.1846 13.9457 13.1976 13.9629 13.202 13.993C13.202 14.0144 13.189 14.0273 13.163 14.0316H12.1035C12.0818 14.0316 12.0688 14.0166 12.0645 13.9865C12.0645 13.965 12.0775 13.9521 12.1035 13.9478V13.9414ZM12.1295 14.0381H13.1305C13.1521 14.0381 13.1651 14.0531 13.1695 14.0832C13.1738 14.1133 13.1608 14.1283 13.1305 14.1283H12.123C12.097 14.1283 12.084 14.1133 12.084 14.0832C12.084 14.0531 12.097 14.0381 12.123 14.0381H12.1295ZM12.4545 13.355H12.5325V13.4065H12.591V13.355H12.6755V13.413H12.734V13.3485H12.812V13.4774C12.812 13.5032 12.8011 13.5161 12.7795 13.5161H12.4935C12.4718 13.5161 12.4588 13.5053 12.4545 13.4838V13.355ZM12.7535 13.529L12.773 13.9414H12.4935L12.513 13.5225H12.7535" fill="#FFFF00"/>
<path d="M12.7535 13.529L12.773 13.9414H12.4935L12.513 13.5225H12.7535M12.4805 14.5214C12.4805 14.3087 12.63 14.2507 12.63 14.2507C12.63 14.2507 12.7795 14.3152 12.7795 14.5214H12.4805ZM12.1035 13.9414H13.163C13.1846 13.9457 13.1976 13.9629 13.202 13.993C13.202 14.0144 13.189 14.0273 13.163 14.0316H12.1035C12.0818 14.0316 12.0688 14.0166 12.0645 13.9865C12.0645 13.965 12.0775 13.9521 12.1035 13.9478V13.9414ZM12.1295 14.0381H13.1305C13.1521 14.0381 13.1651 14.0531 13.1695 14.0832C13.1738 14.1133 13.1608 14.1283 13.1305 14.1283H12.123C12.097 14.1283 12.084 14.1133 12.084 14.0832C12.084 14.0531 12.097 14.0381 12.123 14.0381H12.1295ZM12.4545 13.355H12.5325V13.4065H12.591V13.355H12.6755V13.413H12.734V13.3485H12.812V13.4774C12.812 13.5032 12.8011 13.5161 12.7795 13.5161H12.4935C12.4718 13.5161 12.4588 13.5053 12.4545 13.4838V13.355Z" stroke="black" stroke-width="0.0666669"/>
<path d="M12.4153 13.7223V13.9414H12.1553V13.7223H12.4153Z" fill="#FFFF00" stroke="black" stroke-width="0.0666669"/>
<path d="M13.1038 13.7223V13.9414H12.8438V13.7223H13.1038Z" fill="#FFFF00" stroke="black" stroke-width="0.0666669"/>
<path d="M12.1094 13.5547H12.1874V13.6191H12.2459V13.5547H12.3239V13.6191H12.3824V13.5547H12.4604V13.6836C12.4604 13.7094 12.4495 13.7222 12.4279 13.7222H12.1484C12.1394 13.719 12.1313 13.7139 12.1245 13.7072C12.1178 13.7005 12.1126 13.6925 12.1094 13.6836V13.5547Z" fill="#FFFF00" stroke="black" stroke-width="0.0666669"/>
<path d="M12.7988 13.5547H12.8768V13.6191H12.9353V13.5547H13.0133V13.6191H13.0718V13.5547H13.1498V13.6836C13.1498 13.7094 13.139 13.7222 13.1173 13.7222H12.8378C12.8289 13.719 12.8207 13.7139 12.814 13.7072C12.8072 13.7005 12.8021 13.6925 12.7988 13.6836V13.5547Z" fill="#FFFF00" stroke="black" stroke-width="0.0666669"/>
<path d="M12.6035 13.6578C12.6035 13.6191 12.662 13.6191 12.662 13.6578V13.7609H12.6035V13.6578Z" fill="#000001"/>
<path d="M12.2588 13.7996C12.2588 13.761 12.3108 13.761 12.3108 13.7996V13.877H12.2588V13.7996Z" fill="#000001"/>
<path d="M12.9482 13.7996C12.9482 13.761 13.0002 13.761 13.0002 13.7996V13.877H12.9482V13.7996Z" fill="#000001"/>
<path d="M13.5363 17.6573C13.2872 17.403 13.4059 17.1656 13.4059 17.1656C13.4104 17.161 13.6674 17.0325 13.9211 17.2823L13.5363 17.6573Z" fill="#FFFF00"/>
<path d="M13.072 17.5084L13.3305 17.8265L13.5229 17.6344C13.2831 17.3983 13.4294 17.1791 13.4294 17.1791C13.434 17.1745 13.6633 17.0461 13.8939 17.264L14.0863 17.072L13.7545 16.8179L13.072 17.5084ZM13.3214 17.8447L14.1 17.0674C14.1153 17.0521 14.1352 17.0536 14.1598 17.0717C14.1844 17.0959 14.1875 17.1172 14.1692 17.1355L13.3906 17.9129C13.3753 17.9281 13.3539 17.9251 13.3262 17.904C13.3047 17.8828 13.3046 17.8615 13.326 17.8402L13.3214 17.8447Z" fill="#FFFF00" stroke="black" stroke-width="0.0666669"/>
<path d="M13.6003 17.5561C13.4481 17.4063 13.5119 17.2602 13.5119 17.2602C13.5119 17.2602 13.6634 17.2004 13.811 17.3458L13.6003 17.5561ZM12.9196 17.4127L13.6662 16.6673C13.6845 16.6551 13.706 16.658 13.7305 16.6762C13.7459 16.6913 13.746 16.7095 13.7307 16.7308L12.9841 17.4762C12.9689 17.4915 12.9489 17.49 12.9244 17.4719C12.909 17.4567 12.9089 17.4385 12.9242 17.4172L12.9196 17.4127ZM13.0071 17.4625L13.7124 16.7582C13.7277 16.743 13.7476 16.7445 13.7722 16.7626C13.7968 16.7807 13.7984 16.8005 13.777 16.8218L13.0671 17.5306C13.0487 17.5489 13.0288 17.5475 13.0073 17.5263C12.9858 17.5051 12.9842 17.4853 13.0025 17.4671L13.0071 17.4625ZM12.7472 16.7525L12.8022 16.6976L12.8391 16.734L12.8803 16.6928L12.8434 16.6565L12.9029 16.597L12.9444 16.6379L12.9857 16.5967L12.9395 16.5513L12.9945 16.4965L13.0867 16.5873C13.1052 16.6054 13.1068 16.6221 13.0915 16.6374L12.89 16.8386C12.8747 16.8538 12.8579 16.8554 12.8394 16.8433L12.7472 16.7525ZM13.0824 16.6648L13.3913 16.9416L13.1944 17.1383L12.9083 16.8294L13.0778 16.6602" fill="#FFFF00"/>
<path d="M13.0824 16.6648L13.3913 16.9416L13.1944 17.1383L12.9083 16.8294L13.0778 16.6602M13.6003 17.5561C13.4481 17.4063 13.5119 17.2602 13.5119 17.2602C13.5119 17.2602 13.6634 17.2004 13.811 17.3458L13.6003 17.5561ZM12.9196 17.4127L13.6662 16.6673C13.6845 16.6551 13.706 16.658 13.7305 16.6762C13.7459 16.6913 13.746 16.7095 13.7307 16.7308L12.9841 17.4762C12.9689 17.4915 12.9489 17.49 12.9244 17.4719C12.909 17.4567 12.9089 17.4385 12.9242 17.4172L12.9196 17.4127ZM13.0071 17.4625L13.7124 16.7582C13.7277 16.743 13.7476 16.7445 13.7722 16.7626C13.7968 16.7807 13.7984 16.8005 13.777 16.8218L13.0671 17.5306C13.0487 17.5489 13.0288 17.5475 13.0073 17.5263C12.9858 17.5051 12.9842 17.4853 13.0025 17.4671L13.0071 17.4625ZM12.7472 16.7525L12.8022 16.6976L12.8391 16.734L12.8803 16.6928L12.8434 16.6565L12.9029 16.597L12.9444 16.6379L12.9857 16.5967L12.9395 16.5513L12.9945 16.4965L13.0867 16.5873C13.1052 16.6054 13.1068 16.6221 13.0915 16.6374L12.89 16.8386C12.8747 16.8538 12.8579 16.8554 12.8394 16.8433L12.7472 16.7525Z" stroke="black" stroke-width="0.0666669"/>
<path d="M12.983 17.0386L13.1398 17.193L12.9566 17.3759L12.7998 17.2216L12.983 17.0386Z" fill="#FFFF00" stroke="black" stroke-width="0.0666669"/>
<path d="M13.4684 16.5544L13.6252 16.7088L13.442 16.8917L13.2852 16.7373L13.4684 16.5544Z" fill="#FFFF00" stroke="black" stroke-width="0.0666669"/>
<path d="M12.6475 17.1356L12.7024 17.0807L12.7485 17.1262L12.7898 17.085L12.7436 17.0396L12.7986 16.9847L12.8447 17.0301L12.886 16.989L12.8398 16.9436L12.8948 16.8887L12.987 16.9795C13.0055 16.9977 13.0071 17.0144 12.9918 17.0296L12.7949 17.2262C12.7862 17.2303 12.7768 17.2324 12.7673 17.2324C12.7578 17.2325 12.7483 17.2304 12.7397 17.2264L12.6475 17.1356Z" fill="#FFFF00" stroke="black" stroke-width="0.0666669"/>
<path d="M13.1328 16.6512L13.1878 16.5964L13.2339 16.6418L13.2751 16.6006L13.229 16.5552L13.284 16.5003L13.3301 16.5457L13.3713 16.5046L13.3252 16.4592L13.3801 16.4043L13.4724 16.4951C13.4908 16.5133 13.4924 16.53 13.4772 16.5452L13.2802 16.7419C13.2716 16.7459 13.2622 16.748 13.2527 16.7481C13.2431 16.7481 13.2337 16.746 13.2251 16.7421L13.1328 16.6512Z" fill="#FFFF00" stroke="black" stroke-width="0.0666669"/>
<path d="M13.0696 16.8611C13.0419 16.8339 13.0831 16.7927 13.1108 16.82L13.1846 16.8926L13.1434 16.9338L13.0696 16.8611Z" fill="#000001"/>
<path d="M12.928 17.2029C12.9003 17.1757 12.937 17.1391 12.9646 17.1663L13.02 17.2208L12.9833 17.2574L12.928 17.2029Z" fill="#000001"/>
<path d="M13.4133 16.7187C13.3857 16.6914 13.4223 16.6548 13.45 16.6821L13.5053 16.7366L13.4687 16.7732L13.4133 16.7187Z" fill="#000001"/>
<path d="M15.334 11.5641C15.3405 11.2096 15.594 11.1259 15.594 11.1259C15.6005 11.1259 15.8735 11.2161 15.8735 11.5705L15.334 11.5641Z" fill="#FFFF00"/>
<path d="M15.1128 11.1323L15.0673 11.5383H15.3403C15.3403 11.2032 15.6003 11.1516 15.6003 11.1516C15.6068 11.1516 15.8603 11.2225 15.8668 11.5383H16.1398L16.0878 11.1259L15.1128 11.1323ZM15.0478 11.5447H16.1528C16.1745 11.5447 16.1875 11.5598 16.1918 11.5899C16.1918 11.6242 16.1788 11.6414 16.1528 11.6414H15.0478C15.0261 11.6414 15.0131 11.6242 15.0088 11.5899C15.0088 11.5598 15.024 11.5447 15.0543 11.5447H15.0478Z" fill="#FFFF00" stroke="black" stroke-width="0.0666669"/>
<path d="M15.4512 11.538C15.4512 11.3253 15.6007 11.2673 15.6007 11.2673C15.6007 11.2673 15.7502 11.3318 15.7502 11.538H15.4512ZM15.0742 10.958H16.1337C16.1553 10.9623 16.1683 10.9795 16.1727 11.0096C16.1727 11.031 16.1597 11.0439 16.1337 11.0482H15.0742C15.0525 11.0482 15.0395 11.0332 15.0352 11.0031C15.0352 10.9816 15.0482 10.9687 15.0742 10.9644V10.958ZM15.1002 11.0547H16.1012C16.1228 11.0547 16.1358 11.0697 16.1402 11.0998C16.1445 11.1299 16.1315 11.1449 16.1012 11.1449H15.0937C15.0677 11.1449 15.0547 11.1299 15.0547 11.0998C15.0547 11.0697 15.0677 11.0547 15.0937 11.0547H15.1002ZM15.4252 10.3716H15.5032V10.4231H15.5617V10.3716H15.6462V10.4296H15.7047V10.3651H15.7827V10.494C15.7827 10.5198 15.7718 10.5327 15.7502 10.5327H15.4642C15.4425 10.5327 15.4295 10.5219 15.4252 10.5004V10.3716ZM15.7242 10.5456L15.7437 10.958H15.4642L15.4837 10.5391H15.7242" fill="#FFFF00"/>
<path d="M15.7242 10.5456L15.7437 10.958H15.4642L15.4837 10.5391H15.7242M15.4512 11.538C15.4512 11.3253 15.6007 11.2673 15.6007 11.2673C15.6007 11.2673 15.7502 11.3318 15.7502 11.538H15.4512ZM15.0742 10.958H16.1337C16.1553 10.9623 16.1683 10.9795 16.1727 11.0096C16.1727 11.031 16.1597 11.0439 16.1337 11.0482H15.0742C15.0525 11.0482 15.0395 11.0332 15.0352 11.0031C15.0352 10.9816 15.0482 10.9687 15.0742 10.9644V10.958ZM15.1002 11.0547H16.1012C16.1228 11.0547 16.1358 11.0697 16.1402 11.0998C16.1445 11.1299 16.1315 11.1449 16.1012 11.1449H15.0937C15.0677 11.1449 15.0547 11.1299 15.0547 11.0998C15.0547 11.0697 15.0677 11.0547 15.0937 11.0547H15.1002ZM15.4252 10.3716H15.5032V10.4231H15.5617V10.3716H15.6462V10.4296H15.7047V10.3651H15.7827V10.494C15.7827 10.5198 15.7718 10.5327 15.7502 10.5327H15.4642C15.4425 10.5327 15.4295 10.5219 15.4252 10.5004V10.3716Z" stroke="black" stroke-width="0.0666669"/>
<path d="M15.386 10.7391V10.9582H15.126V10.7391H15.386Z" fill="#FFFF00" stroke="black" stroke-width="0.0666669"/>
<path d="M16.0745 10.7391V10.9582H15.8145V10.7391H16.0745Z" fill="#FFFF00" stroke="black" stroke-width="0.0666669"/>
<path d="M15.0801 10.5713H15.1581V10.6357H15.2166V10.5713H15.2946V10.6357H15.3531V10.5713H15.4311V10.7002C15.4311 10.726 15.4202 10.7388 15.3986 10.7388H15.1191C15.1101 10.7356 15.102 10.7305 15.0952 10.7238C15.0885 10.7171 15.0833 10.7091 15.0801 10.7002V10.5713Z" fill="#FFFF00" stroke="black" stroke-width="0.0666669"/>
<path d="M15.7695 10.5713H15.8475V10.6357H15.906V10.5713H15.984V10.6357H16.0425V10.5713H16.1205V10.7002C16.1205 10.726 16.1097 10.7388 16.088 10.7388H15.8085C15.7996 10.7356 15.7914 10.7305 15.7847 10.7238C15.7779 10.7171 15.7728 10.7091 15.7695 10.7002V10.5713Z" fill="#FFFF00" stroke="black" stroke-width="0.0666669"/>
<path d="M15.5742 10.6744C15.5742 10.6357 15.6327 10.6357 15.6327 10.6744V10.7775H15.5742V10.6744Z" fill="#000001"/>
<path d="M15.2295 10.8162C15.2295 10.7776 15.2815 10.7776 15.2815 10.8162V10.8936H15.2295V10.8162Z" fill="#000001"/>
<path d="M15.9189 10.8162C15.9189 10.7776 15.9709 10.7776 15.9709 10.8162V10.8936H15.9189V10.8162Z" fill="#000001"/>
<path d="M18.8242 11.5641C18.8177 11.2096 18.5642 11.1259 18.5642 11.1259C18.5577 11.1259 18.2847 11.2161 18.2847 11.5705L18.8242 11.5641Z" fill="#FFFF00"/>
<path d="M19.0454 11.1323L19.0909 11.5383H18.8179C18.8179 11.2032 18.5579 11.1516 18.5579 11.1516C18.5514 11.1516 18.2979 11.2225 18.2914 11.5383H18.0184L18.0704 11.1259L19.0454 11.1323ZM19.1104 11.5447H18.0054C17.9837 11.5447 17.9707 11.5598 17.9664 11.5899C17.9664 11.6242 17.9794 11.6414 18.0054 11.6414H19.1104C19.1321 11.6414 19.1451 11.6242 19.1494 11.5899C19.1494 11.5598 19.1342 11.5447 19.1039 11.5447H19.1104Z" fill="#FFFF00" stroke="black" stroke-width="0.0666669"/>
<path d="M18.707 11.538C18.707 11.3253 18.5575 11.2673 18.5575 11.2673C18.5575 11.2673 18.408 11.3318 18.408 11.538H18.707ZM19.084 10.958H18.0245C18.0029 10.9623 17.9899 10.9795 17.9855 11.0096C17.9855 11.031 17.9985 11.0439 18.0245 11.0482H19.084C19.1057 11.0482 19.1187 11.0332 19.123 11.0031C19.123 10.9816 19.11 10.9687 19.084 10.9644V10.958ZM19.058 11.0547H18.057C18.0354 11.0547 18.0224 11.0697 18.018 11.0998C18.0137 11.1299 18.0267 11.1449 18.057 11.1449H19.0645C19.0905 11.1449 19.1035 11.1299 19.1035 11.0998C19.1035 11.0697 19.0905 11.0547 19.0645 11.0547H19.058ZM18.733 10.3716H18.655V10.4231H18.5965V10.3716H18.512V10.4296H18.4535V10.3651H18.3755V10.494C18.3755 10.5198 18.3864 10.5327 18.408 10.5327H18.694C18.7157 10.5327 18.7287 10.5219 18.733 10.5004V10.3716ZM18.434 10.5456L18.4145 10.958H18.694L18.6745 10.5391H18.434" fill="#FFFF00"/>
<path d="M18.434 10.5456L18.4145 10.958H18.694L18.6745 10.5391H18.434M18.707 11.538C18.707 11.3253 18.5575 11.2673 18.5575 11.2673C18.5575 11.2673 18.408 11.3318 18.408 11.538H18.707ZM19.084 10.958H18.0245C18.0029 10.9623 17.9899 10.9795 17.9855 11.0096C17.9855 11.031 17.9985 11.0439 18.0245 11.0482H19.084C19.1057 11.0482 19.1187 11.0332 19.123 11.0031C19.123 10.9816 19.11 10.9687 19.084 10.9644V10.958ZM19.058 11.0547H18.057C18.0354 11.0547 18.0224 11.0697 18.018 11.0998C18.0137 11.1299 18.0267 11.1449 18.057 11.1449H19.0645C19.0905 11.1449 19.1035 11.1299 19.1035 11.0998C19.1035 11.0697 19.0905 11.0547 19.0645 11.0547H19.058ZM18.733 10.3716H18.655V10.4231H18.5965V10.3716H18.512V10.4296H18.4535V10.3651H18.3755V10.494C18.3755 10.5198 18.3864 10.5327 18.408 10.5327H18.694C18.7157 10.5327 18.7287 10.5219 18.733 10.5004V10.3716Z" stroke="black" stroke-width="0.0666669"/>
<path d="M18.7722 10.7391V10.9582H19.0322V10.7391H18.7722Z" fill="#FFFF00" stroke="black" stroke-width="0.0666669"/>
<path d="M18.0837 10.7391V10.9582H18.3438V10.7391H18.0837Z" fill="#FFFF00" stroke="black" stroke-width="0.0666669"/>
<path d="M19.0781 10.5713H19.0001V10.6357H18.9416V10.5713H18.8636V10.6357H18.8051V10.5713H18.7271V10.7002C18.7271 10.726 18.738 10.7388 18.7596 10.7388H19.0391C19.0481 10.7356 19.0562 10.7305 19.063 10.7238C19.0697 10.7171 19.0749 10.7091 19.0781 10.7002V10.5713Z" fill="#FFFF00" stroke="black" stroke-width="0.0666669"/>
<path d="M18.3887 10.5713H18.3107V10.6357H18.2522V10.5713H18.1742V10.6357H18.1157V10.5713H18.0377V10.7002C18.0377 10.726 18.0485 10.7388 18.0702 10.7388H18.3497C18.3586 10.7356 18.3668 10.7305 18.3735 10.7238C18.3803 10.7171 18.3854 10.7091 18.3887 10.7002V10.5713Z" fill="#FFFF00" stroke="black" stroke-width="0.0666669"/>
<path d="M18.584 10.6744C18.584 10.6357 18.5255 10.6357 18.5255 10.6744V10.7775H18.584V10.6744Z" fill="#000001"/>
<path d="M18.9287 10.8162C18.9287 10.7776 18.8767 10.7776 18.8767 10.8162V10.8936H18.9287V10.8162Z" fill="#000001"/>
<path d="M18.2393 10.8162C18.2393 10.7776 18.1873 10.7776 18.1873 10.8162V10.8936H18.2393V10.8162Z" fill="#000001"/>
<path d="M18.8242 14.5475C18.8177 14.193 18.5642 14.1093 18.5642 14.1093C18.5577 14.1093 18.2847 14.1995 18.2847 14.5539L18.8242 14.5475Z" fill="#FFFF00"/>
<path d="M19.0454 14.1157L19.0909 14.5217H18.8179C18.8179 14.1866 18.5579 14.135 18.5579 14.135C18.5514 14.135 18.2979 14.2059 18.2914 14.5217H18.0184L18.0704 14.1093L19.0454 14.1157ZM19.1104 14.5281H18.0054C17.9837 14.5281 17.9707 14.5432 17.9664 14.5733C17.9664 14.6076 17.9794 14.6248 18.0054 14.6248H19.1104C19.1321 14.6248 19.1451 14.6076 19.1494 14.5733C19.1494 14.5432 19.1342 14.5281 19.1039 14.5281H19.1104Z" fill="#FFFF00" stroke="black" stroke-width="0.0666669"/>
<path d="M18.707 14.5214C18.707 14.3087 18.5575 14.2507 18.5575 14.2507C18.5575 14.2507 18.408 14.3152 18.408 14.5214H18.707ZM19.084 13.9414H18.0245C18.0029 13.9457 17.9899 13.9629 17.9855 13.993C17.9855 14.0144 17.9985 14.0273 18.0245 14.0316H19.084C19.1057 14.0316 19.1187 14.0166 19.123 13.9865C19.123 13.965 19.11 13.9521 19.084 13.9478V13.9414ZM19.058 14.0381H18.057C18.0354 14.0381 18.0224 14.0531 18.018 14.0832C18.0137 14.1133 18.0267 14.1283 18.057 14.1283H19.0645C19.0905 14.1283 19.1035 14.1133 19.1035 14.0832C19.1035 14.0531 19.0905 14.0381 19.0645 14.0381H19.058ZM18.733 13.355H18.655V13.4065H18.5965V13.355H18.512V13.413H18.4535V13.3485H18.3755V13.4774C18.3755 13.5032 18.3864 13.5161 18.408 13.5161H18.694C18.7157 13.5161 18.7287 13.5053 18.733 13.4838V13.355ZM18.434 13.529L18.4145 13.9414H18.694L18.6745 13.5225H18.434" fill="#FFFF00"/>
<path d="M18.434 13.529L18.4145 13.9414H18.694L18.6745 13.5225H18.434M18.707 14.5214C18.707 14.3087 18.5575 14.2507 18.5575 14.2507C18.5575 14.2507 18.408 14.3152 18.408 14.5214H18.707ZM19.084 13.9414H18.0245C18.0029 13.9457 17.9899 13.9629 17.9855 13.993C17.9855 14.0144 17.9985 14.0273 18.0245 14.0316H19.084C19.1057 14.0316 19.1187 14.0166 19.123 13.9865C19.123 13.965 19.11 13.9521 19.084 13.9478V13.9414ZM19.058 14.0381H18.057C18.0354 14.0381 18.0224 14.0531 18.018 14.0832C18.0137 14.1133 18.0267 14.1283 18.057 14.1283H19.0645C19.0905 14.1283 19.1035 14.1133 19.1035 14.0832C19.1035 14.0531 19.0905 14.0381 19.0645 14.0381H19.058ZM18.733 13.355H18.655V13.4065H18.5965V13.355H18.512V13.413H18.4535V13.3485H18.3755V13.4774C18.3755 13.5032 18.3864 13.5161 18.408 13.5161H18.694C18.7157 13.5161 18.7287 13.5053 18.733 13.4838V13.355Z" stroke="black" stroke-width="0.0666669"/>
<path d="M18.7722 13.7223V13.9414H19.0322V13.7223H18.7722Z" fill="#FFFF00" stroke="black" stroke-width="0.0666669"/>
<path d="M18.0837 13.7223V13.9414H18.3438V13.7223H18.0837Z" fill="#FFFF00" stroke="black" stroke-width="0.0666669"/>
<path d="M19.0781 13.5547H19.0001V13.6191H18.9416V13.5547H18.8636V13.6191H18.8051V13.5547H18.7271V13.6836C18.7271 13.7094 18.738 13.7222 18.7596 13.7222H19.0391C19.0481 13.719 19.0562 13.7139 19.063 13.7072C19.0697 13.7005 19.0749 13.6925 19.0781 13.6836V13.5547Z" fill="#FFFF00" stroke="black" stroke-width="0.0666669"/>
<path d="M18.3887 13.5547H18.3107V13.6191H18.2522V13.5547H18.1742V13.6191H18.1157V13.5547H18.0377V13.6836C18.0377 13.7094 18.0485 13.7222 18.0702 13.7222H18.3497C18.3586 13.719 18.3668 13.7139 18.3735 13.7072C18.3803 13.7005 18.3854 13.6925 18.3887 13.6836V13.5547Z" fill="#FFFF00" stroke="black" stroke-width="0.0666669"/>
<path d="M18.584 13.6578C18.584 13.6191 18.5255 13.6191 18.5255 13.6578V13.7609H18.584V13.6578Z" fill="#000001"/>
<path d="M18.9287 13.7996C18.9287 13.761 18.8767 13.761 18.8767 13.7996V13.877H18.9287V13.7996Z" fill="#000001"/>
<path d="M18.2393 13.7996C18.2393 13.761 18.1873 13.761 18.1873 13.7996V13.877H18.2393V13.7996Z" fill="#000001"/>
<path d="M17.6512 17.6573C17.9003 17.403 17.7816 17.1656 17.7816 17.1656C17.7771 17.161 17.5201 17.0325 17.2664 17.2823L17.6512 17.6573Z" fill="#FFFF00"/>
<path d="M18.1155 17.5084L17.857 17.8265L17.6646 17.6344C17.9044 17.3983 17.7581 17.1791 17.7581 17.1791C17.7535 17.1745 17.5242 17.0461 17.2936 17.264L17.1012 17.072L17.433 16.8179L18.1155 17.5084ZM17.8661 17.8447L17.0875 17.0674C17.0722 17.0521 17.0523 17.0536 17.0277 17.0717C17.0031 17.0959 17 17.1172 17.0183 17.1355L17.7969 17.9129C17.8122 17.9281 17.8336 17.9251 17.8613 17.904C17.8828 17.8828 17.8829 17.8615 17.8615 17.8402L17.8661 17.8447Z" fill="#FFFF00" stroke="black" stroke-width="0.0666669"/>
<path d="M17.5872 17.5561C17.7394 17.4063 17.6756 17.2602 17.6756 17.2602C17.6756 17.2602 17.5241 17.2004 17.3765 17.3458L17.5872 17.5561ZM18.2679 17.4127L17.5213 16.6673C17.503 16.6551 17.4815 16.658 17.457 16.6762C17.4416 16.6913 17.4415 16.7095 17.4568 16.7308L18.2034 17.4762C18.2186 17.4915 18.2386 17.49 18.2631 17.4719C18.2785 17.4567 18.2786 17.4385 18.2633 17.4172L18.2679 17.4127ZM18.1804 17.4625L17.4751 16.7582C17.4598 16.743 17.4399 16.7445 17.4153 16.7626C17.3907 16.7807 17.3891 16.8005 17.4105 16.8218L18.1204 17.5306C18.1388 17.5489 18.1587 17.5475 18.1802 17.5263C18.2017 17.5051 18.2033 17.4853 18.185 17.4671L18.1804 17.4625ZM18.4403 16.7525L18.3853 16.6976L18.3484 16.734L18.3072 16.6928L18.3441 16.6565L18.2846 16.597L18.2431 16.6379L18.2018 16.5967L18.248 16.5513L18.193 16.4965L18.1008 16.5873C18.0823 16.6054 18.0807 16.6221 18.096 16.6374L18.2975 16.8386C18.3128 16.8538 18.3296 16.8554 18.3481 16.8433L18.4403 16.7525ZM18.1051 16.6648L17.7962 16.9416L17.9931 17.1383L18.2792 16.8294L18.1097 16.6602" fill="#FFFF00"/>
<path d="M18.1051 16.6648L17.7962 16.9416L17.9931 17.1383L18.2792 16.8294L18.1097 16.6602M17.5872 17.5561C17.7394 17.4063 17.6756 17.2602 17.6756 17.2602C17.6756 17.2602 17.5241 17.2004 17.3765 17.3458L17.5872 17.5561ZM18.2679 17.4127L17.5213 16.6673C17.503 16.6551 17.4815 16.658 17.457 16.6762C17.4416 16.6913 17.4415 16.7095 17.4568 16.7308L18.2034 17.4762C18.2186 17.4915 18.2386 17.49 18.2631 17.4719C18.2785 17.4567 18.2786 17.4385 18.2633 17.4172L18.2679 17.4127ZM18.1804 17.4625L17.4751 16.7582C17.4598 16.743 17.4399 16.7445 17.4153 16.7626C17.3907 16.7807 17.3891 16.8005 17.4105 16.8218L18.1204 17.5306C18.1388 17.5489 18.1587 17.5475 18.1802 17.5263C18.2017 17.5051 18.2033 17.4853 18.185 17.4671L18.1804 17.4625ZM18.4403 16.7525L18.3853 16.6976L18.3484 16.734L18.3072 16.6928L18.3441 16.6565L18.2846 16.597L18.2431 16.6379L18.2018 16.5967L18.248 16.5513L18.193 16.4965L18.1008 16.5873C18.0823 16.6054 18.0807 16.6221 18.096 16.6374L18.2975 16.8386C18.3128 16.8538 18.3296 16.8554 18.3481 16.8433L18.4403 16.7525Z" stroke="black" stroke-width="0.0666669"/>
<path d="M18.2045 17.0386L18.0477 17.193L18.2309 17.3759L18.3877 17.2216L18.2045 17.0386Z" fill="#FFFF00" stroke="black" stroke-width="0.0666669"/>
<path d="M17.7191 16.5544L17.5623 16.7088L17.7455 16.8917L17.9023 16.7373L17.7191 16.5544Z" fill="#FFFF00" stroke="black" stroke-width="0.0666669"/>
<path d="M18.54 17.1356L18.4851 17.0807L18.439 17.1262L18.3977 17.085L18.4439 17.0396L18.3889 16.9847L18.3428 17.0301L18.3015 16.989L18.3477 16.9436L18.2927 16.8887L18.2005 16.9795C18.182 16.9977 18.1804 17.0144 18.1957 17.0296L18.3926 17.2262C18.4013 17.2303 18.4107 17.2324 18.4202 17.2324C18.4297 17.2325 18.4392 17.2304 18.4478 17.2264L18.54 17.1356Z" fill="#FFFF00" stroke="black" stroke-width="0.0666669"/>
<path d="M18.0547 16.6512L17.9997 16.5964L17.9536 16.6418L17.9124 16.6006L17.9585 16.5552L17.9035 16.5003L17.8574 16.5457L17.8162 16.5046L17.8623 16.4592L17.8074 16.4043L17.7151 16.4951C17.6967 16.5133 17.6951 16.53 17.7103 16.5452L17.9073 16.7419C17.9159 16.7459 17.9253 16.748 17.9348 16.7481C17.9444 16.7481 17.9538 16.746 17.9624 16.7421L18.0547 16.6512Z" fill="#FFFF00" stroke="black" stroke-width="0.0666669"/>
<path d="M18.1179 16.861C18.1456 16.8338 18.1044 16.7926 18.0767 16.8199L18.0029 16.8925L18.0441 16.9337L18.1179 16.861Z" fill="#000001"/>
<path d="M18.2595 17.2029C18.2872 17.1757 18.2505 17.1391 18.2229 17.1663L18.1675 17.2208L18.2042 17.2574L18.2595 17.2029Z" fill="#000001"/>
<path d="M17.7742 16.7186C17.8018 16.6913 17.7652 16.6547 17.7375 16.682L17.6822 16.7365L17.7188 16.773L17.7742 16.7186Z" fill="#000001"/>
<path d="M15.1193 14.6567C15.1161 14.7931 15.1675 14.9252 15.2623 15.024C15.3052 15.0728 15.3581 15.1118 15.4176 15.1385C15.477 15.1652 15.5415 15.1789 15.6068 15.1787C15.7455 15.1701 15.8603 15.1185 15.9513 15.024C16.0461 14.9252 16.0975 14.7931 16.0943 14.6567V13.9607H15.1193V14.6567Z" fill="#003399"/>
<path d="M15.3475 14.322C15.4013 14.322 15.445 14.2787 15.445 14.2253C15.445 14.1719 15.4013 14.1287 15.3475 14.1287C15.2937 14.1287 15.25 14.1719 15.25 14.2253C15.25 14.2787 15.2937 14.322 15.3475 14.322Z" fill="white"/>
<path d="M15.8866 14.322C15.9404 14.322 15.9841 14.2787 15.9841 14.2253C15.9841 14.1719 15.9404 14.1287 15.8866 14.1287C15.8327 14.1287 15.7891 14.1719 15.7891 14.2253C15.7891 14.2787 15.8327 14.322 15.8866 14.322Z" fill="white"/>
<path d="M15.6131 14.5798C15.667 14.5798 15.7106 14.5365 15.7106 14.4831C15.7106 14.4298 15.667 14.3865 15.6131 14.3865C15.5593 14.3865 15.5156 14.4298 15.5156 14.4831C15.5156 14.5365 15.5593 14.5798 15.6131 14.5798Z" fill="white"/>
<path d="M15.3475 14.8503C15.4013 14.8503 15.445 14.807 15.445 14.7536C15.445 14.7003 15.4013 14.657 15.3475 14.657C15.2937 14.657 15.25 14.7003 15.25 14.7536C15.25 14.807 15.2937 14.8503 15.3475 14.8503Z" fill="white"/>
<path d="M15.8866 14.8503C15.9404 14.8503 15.9841 14.807 15.9841 14.7536C15.9841 14.7003 15.9404 14.657 15.8866 14.657C15.8327 14.657 15.7891 14.7003 15.7891 14.7536C15.7891 14.807 15.8327 14.8503 15.8866 14.8503Z" fill="white"/>
<path d="M15.1193 12.9812C15.1161 13.1175 15.1675 13.2496 15.2623 13.3485C15.3052 13.3973 15.3581 13.4363 15.4176 13.463C15.477 13.4897 15.5415 13.5034 15.6068 13.5032C15.7455 13.4946 15.8603 13.443 15.9513 13.3485C16.0461 13.2496 16.0975 13.1175 16.0943 12.9812V12.2852H15.1193V12.9812Z" fill="#003399"/>
<path d="M15.3475 12.6465C15.4013 12.6465 15.445 12.6032 15.445 12.5498C15.445 12.4964 15.4013 12.4531 15.3475 12.4531C15.2937 12.4531 15.25 12.4964 15.25 12.5498C15.25 12.6032 15.2937 12.6465 15.3475 12.6465Z" fill="white"/>
<path d="M15.8866 12.6465C15.9404 12.6465 15.9841 12.6032 15.9841 12.5498C15.9841 12.4964 15.9404 12.4531 15.8866 12.4531C15.8327 12.4531 15.7891 12.4964 15.7891 12.5498C15.7891 12.6032 15.8327 12.6465 15.8866 12.6465Z" fill="white"/>
<path d="M15.6131 12.9043C15.667 12.9043 15.7106 12.861 15.7106 12.8076C15.7106 12.7542 15.667 12.7109 15.6131 12.7109C15.5593 12.7109 15.5156 12.7542 15.5156 12.8076C15.5156 12.861 15.5593 12.9043 15.6131 12.9043Z" fill="white"/>
<path d="M15.3475 13.1748C15.4013 13.1748 15.445 13.1315 15.445 13.0781C15.445 13.0247 15.4013 12.9814 15.3475 12.9814C15.2937 12.9814 15.25 13.0247 15.25 13.0781C15.25 13.1315 15.2937 13.1748 15.3475 13.1748Z" fill="white"/>
<path d="M15.8866 13.1748C15.9404 13.1748 15.9841 13.1315 15.9841 13.0781C15.9841 13.0247 15.9404 12.9814 15.8866 12.9814C15.8327 12.9814 15.7891 13.0247 15.7891 13.0781C15.7891 13.1315 15.8327 13.1748 15.8866 13.1748Z" fill="white"/>
<path d="M13.7677 14.6567C13.7645 14.7931 13.8159 14.9252 13.9107 15.024C13.9536 15.0728 14.0066 15.1118 14.066 15.1385C14.1254 15.1652 14.19 15.1789 14.2552 15.1787C14.3939 15.1701 14.5087 15.1185 14.5997 15.024C14.6945 14.9252 14.746 14.7931 14.7427 14.6567V13.9607H13.7677V14.6567Z" fill="#003399"/>
<path d="M13.9959 14.322C14.0498 14.322 14.0934 14.2787 14.0934 14.2253C14.0934 14.1719 14.0498 14.1287 13.9959 14.1287C13.9421 14.1287 13.8984 14.1719 13.8984 14.2253C13.8984 14.2787 13.9421 14.322 13.9959 14.322Z" fill="white"/>
<path d="M14.535 14.322C14.5888 14.322 14.6325 14.2787 14.6325 14.2253C14.6325 14.1719 14.5888 14.1287 14.535 14.1287C14.4812 14.1287 14.4375 14.1719 14.4375 14.2253C14.4375 14.2787 14.4812 14.322 14.535 14.322Z" fill="white"/>
<path d="M14.2616 14.5798C14.3154 14.5798 14.3591 14.5365 14.3591 14.4831C14.3591 14.4298 14.3154 14.3865 14.2616 14.3865C14.2077 14.3865 14.1641 14.4298 14.1641 14.4831C14.1641 14.5365 14.2077 14.5798 14.2616 14.5798Z" fill="white"/>
<path d="M13.9959 14.8503C14.0498 14.8503 14.0934 14.807 14.0934 14.7536C14.0934 14.7003 14.0498 14.657 13.9959 14.657C13.9421 14.657 13.8984 14.7003 13.8984 14.7536C13.8984 14.807 13.9421 14.8503 13.9959 14.8503Z" fill="white"/>
<path d="M14.535 14.8503C14.5888 14.8503 14.6325 14.807 14.6325 14.7536C14.6325 14.7003 14.5888 14.657 14.535 14.657C14.4812 14.657 14.4375 14.7003 14.4375 14.7536C14.4375 14.807 14.4812 14.8503 14.535 14.8503Z" fill="white"/>
<path d="M16.4708 14.6567C16.4676 14.7931 16.519 14.9252 16.6138 15.024C16.6567 15.0728 16.7097 15.1118 16.7691 15.1385C16.8286 15.1652 16.8931 15.1789 16.9583 15.1787C17.097 15.1701 17.2118 15.1185 17.3028 15.024C17.3977 14.9252 17.4491 14.7931 17.4458 14.6567V13.9607H16.4708V14.6567Z" fill="#003399"/>
<path d="M16.6991 14.322C16.7529 14.322 16.7966 14.2787 16.7966 14.2253C16.7966 14.1719 16.7529 14.1287 16.6991 14.1287C16.6452 14.1287 16.6016 14.1719 16.6016 14.2253C16.6016 14.2787 16.6452 14.322 16.6991 14.322Z" fill="white"/>
<path d="M17.2381 14.322C17.292 14.322 17.3356 14.2787 17.3356 14.2253C17.3356 14.1719 17.292 14.1287 17.2381 14.1287C17.1843 14.1287 17.1406 14.1719 17.1406 14.2253C17.1406 14.2787 17.1843 14.322 17.2381 14.322Z" fill="white"/>
<path d="M16.9647 14.5798C17.0185 14.5798 17.0622 14.5365 17.0622 14.4831C17.0622 14.4298 17.0185 14.3865 16.9647 14.3865C16.9108 14.3865 16.8672 14.4298 16.8672 14.4831C16.8672 14.5365 16.9108 14.5798 16.9647 14.5798Z" fill="white"/>
<path d="M16.6991 14.8503C16.7529 14.8503 16.7966 14.807 16.7966 14.7536C16.7966 14.7003 16.7529 14.657 16.6991 14.657C16.6452 14.657 16.6016 14.7003 16.6016 14.7536C16.6016 14.807 16.6452 14.8503 16.6991 14.8503Z" fill="white"/>
<path d="M17.2381 14.8503C17.292 14.8503 17.3356 14.807 17.3356 14.7536C17.3356 14.7003 17.292 14.657 17.2381 14.657C17.1843 14.657 17.1406 14.7003 17.1406 14.7536C17.1406 14.807 17.1843 14.8503 17.2381 14.8503Z" fill="white"/>
<path d="M15.1193 16.3189C15.1161 16.4553 15.1675 16.5874 15.2623 16.6863C15.3052 16.735 15.3581 16.7741 15.4176 16.8008C15.477 16.8274 15.5415 16.8411 15.6068 16.8409C15.7455 16.8323 15.8603 16.7808 15.9513 16.6863C16.0461 16.5874 16.0975 16.4553 16.0943 16.3189V15.6229H15.1193V16.3189Z" fill="#003399"/>
<path d="M15.3475 15.9842C15.4013 15.9842 15.445 15.9409 15.445 15.8876C15.445 15.8342 15.4013 15.7909 15.3475 15.7909C15.2937 15.7909 15.25 15.8342 15.25 15.8876C15.25 15.9409 15.2937 15.9842 15.3475 15.9842Z" fill="white"/>
<path d="M15.8866 15.9842C15.9404 15.9842 15.9841 15.9409 15.9841 15.8876C15.9841 15.8342 15.9404 15.7909 15.8866 15.7909C15.8327 15.7909 15.7891 15.8342 15.7891 15.8876C15.7891 15.9409 15.8327 15.9842 15.8866 15.9842Z" fill="white"/>
<path d="M15.6131 16.242C15.667 16.242 15.7106 16.1988 15.7106 16.1454C15.7106 16.092 15.667 16.0487 15.6131 16.0487C15.5593 16.0487 15.5156 16.092 15.5156 16.1454C15.5156 16.1988 15.5593 16.242 15.6131 16.242Z" fill="white"/>
<path d="M15.3475 16.5125C15.4013 16.5125 15.445 16.4693 15.445 16.4159C15.445 16.3625 15.4013 16.3192 15.3475 16.3192C15.2937 16.3192 15.25 16.3625 15.25 16.4159C15.25 16.4693 15.2937 16.5125 15.3475 16.5125Z" fill="white"/>
<path d="M15.8866 16.5125C15.9404 16.5125 15.9841 16.4693 15.9841 16.4159C15.9841 16.3625 15.9404 16.3192 15.8866 16.3192C15.8327 16.3192 15.7891 16.3625 15.7891 16.4159C15.7891 16.4693 15.8327 16.5125 15.8866 16.5125Z" fill="white"/>
</g>
<defs>
<clipPath id="clip0_421_1840">
<rect width="39" height="29" fill="white"/>
</clipPath>
</defs>
</svg>
