<svg width="33" height="33" viewBox="0 0 33 33" fill="none" xmlns="http://www.w3.org/2000/svg">
<g clip-path="url(#clip0_186_2557)">
<mask id="mask0_186_2557" style="mask-type:luminance" maskUnits="userSpaceOnUse" x="0" y="0" width="33" height="33">
<path d="M33 0H0V33H33V0Z" fill="white"/>
</mask>
<g mask="url(#mask0_186_2557)">
<path d="M12.7188 1.74634C9.11625 1.74634 6.1875 4.67509 6.1875 8.27759C6.1875 11.8801 8.95125 14.6713 12.5538 14.7951C12.6638 14.7813 12.7738 14.7813 12.8563 14.7951H12.9525C16.4725 14.6713 19.2362 11.8113 19.25 8.27759C19.25 4.67509 16.3212 1.74634 12.7188 1.74634Z" fill="#838383"/>
<path d="M27.8301 9.08897C28.0501 11.7565 26.1526 14.0939 23.5264 14.4102H23.4576C23.3751 14.4102 23.2926 14.4102 23.2239 14.4377C21.8901 14.5064 20.6664 14.0802 19.7451 13.2965C21.1614 12.0315 21.9726 10.134 21.8076 8.07148C21.7114 6.95773 21.3264 5.94023 20.7489 5.07398C21.2714 4.81273 21.8764 4.64773 22.4951 4.59273C25.1901 4.35898 27.5964 6.36647 27.8301 9.08897Z" fill="#838383"/>
<path d="M30.5801 21.8074C30.4701 23.1412 29.6176 24.2962 28.1876 25.0799C26.8126 25.8362 25.0801 26.1936 23.3613 26.1524C24.3513 25.2586 24.9288 24.1449 25.0388 22.9624C25.1763 21.2574 24.3651 19.6211 22.7426 18.3149C21.8213 17.5861 20.7488 17.0087 19.5801 16.5824C22.6188 15.7024 26.4413 16.2937 28.7926 18.1912C30.0576 19.2087 30.7038 20.4874 30.5801 21.8074Z" fill="#838383"/>
<path d="M19.704 18.4524C15.8678 15.8949 9.61156 15.8949 5.74781 18.4524C4.00156 19.6212 3.03906 21.2024 3.03906 22.8937C3.03906 23.4299 3.14906 23.9387 3.32781 24.4474L3.68531 24.3512C4.38656 24.1449 4.89531 23.6362 5.08781 22.9487L5.44531 21.6424L5.52781 21.4087C5.78906 20.7212 6.44906 20.2674 7.20531 20.2674C7.97531 20.2674 8.59406 20.7349 8.85531 21.4224L9.28156 22.9624C9.46031 23.6499 9.99656 24.1724 10.6703 24.3649L12.2653 24.8187C12.9528 25.1074 13.3653 25.7537 13.3653 26.5099C13.3653 27.311 12.8169 27.9901 12.0591 28.2287L10.6978 28.5999C10.4366 28.6687 10.2028 28.8062 9.99656 28.9574C10.8903 29.1224 11.7978 29.2462 12.7191 29.2462C15.249 29.2462 17.779 28.5999 19.704 27.3074C21.4365 26.1387 22.399 24.5712 22.399 22.8662C22.3853 21.1749 21.4365 19.6074 19.704 18.4524Z" fill="#838383"/>
<path d="M12.0175 26.4689C12.0175 26.5651 11.9625 26.7851 11.7013 26.8676L10.3538 27.2389C9.185 27.5551 8.305 28.4351 7.98875 29.6039L7.63125 30.9239C7.54875 31.2264 7.315 31.2539 7.205 31.2539C7.095 31.2539 6.86125 31.2264 6.77875 30.9239L6.42125 29.5901C6.105 28.4351 5.21125 27.5551 4.05625 27.2389L2.7225 26.8814C2.43375 26.7989 2.40625 26.5514 2.40625 26.4551C2.40625 26.3451 2.43375 26.0976 2.7225 26.0151L4.07 25.6576C5.225 25.3276 6.105 24.4476 6.42125 23.2926L6.80625 21.8901C6.9025 21.6564 7.1225 21.6151 7.205 21.6151C7.2875 21.6151 7.52125 21.6426 7.60375 21.8626L7.98875 23.2789C8.305 24.4339 9.19875 25.3139 10.3538 25.6439L11.7287 26.0289C12.0037 26.1389 12.0175 26.3864 12.0175 26.4689Z" fill="#838383"/>
</g>
</g>
<defs>
<clipPath id="clip0_186_2557">
<rect width="33" height="33" fill="white"/>
</clipPath>
</defs>
</svg>
