<svg width="36" height="36" viewBox="0 0 36 36" fill="none" xmlns="http://www.w3.org/2000/svg">
<g clip-path="url(#clip0_186_2526)">
<mask id="mask0_186_2526" style="mask-type:luminance" maskUnits="userSpaceOnUse" x="0" y="0" width="36" height="36">
<path d="M36 0H0V36H36V0Z" fill="white"/>
</mask>
<g mask="url(#mask0_186_2526)">
<path d="M26.7151 8.235V9.345L21.4051 6.27C19.3951 5.115 16.5901 5.115 14.5952 6.27L9.28516 9.36V8.235C9.28516 4.86 11.1302 3 14.5052 3H21.4951C24.8701 3 26.7151 4.86 26.7151 8.235Z" fill="#838383"/>
<path d="M26.76 11.9554L26.55 11.8504L24.51 10.6804L20.28 8.23535C18.99 7.48535 17.01 7.48535 15.72 8.23535L11.49 10.6654L9.45 11.8654L9.18 12.0004C6.555 13.7704 6.375 14.1004 6.375 16.9353V23.7153C6.375 26.5503 6.555 26.8803 9.24 28.6953L15.72 32.4303C16.365 32.8203 17.175 32.9853 18 32.9853C18.81 32.9853 19.635 32.8053 20.28 32.4303L26.82 28.6503C29.46 26.8803 29.625 26.5653 29.625 23.7153V16.9353C29.625 14.1004 29.445 13.7704 26.76 11.9554ZM22.185 20.2503L21.27 21.3753C21.12 21.5403 21.015 21.8553 21.03 22.0803L21.12 23.5203C21.18 24.4053 20.55 24.8553 19.725 24.5403L18.39 24.0003C18.18 23.9253 17.835 23.9253 17.625 24.0003L16.29 24.5253C15.465 24.8553 14.835 24.3903 14.895 23.5053L14.985 22.0653C15 21.8403 14.895 21.5253 14.745 21.3603L13.815 20.2503C13.245 19.5753 13.5 18.8253 14.355 18.6003L15.75 18.2403C15.975 18.1803 16.23 17.9703 16.35 17.7903L17.13 16.5903C17.61 15.8403 18.375 15.8403 18.87 16.5903L19.65 17.7903C19.77 17.9853 20.04 18.1803 20.25 18.2403L21.645 18.6003C22.5 18.8253 22.755 19.5753 22.185 20.2503Z" fill="#838383"/>
</g>
</g>
<defs>
<clipPath id="clip0_186_2526">
<rect width="36" height="36" fill="white"/>
</clipPath>
</defs>
</svg>
