<svg width="36" height="36" viewBox="0 0 36 36" fill="none" xmlns="http://www.w3.org/2000/svg">
<mask id="mask0_186_2551" style="mask-type:luminance" maskUnits="userSpaceOnUse" x="0" y="0" width="36" height="36">
<path d="M36 0H0V36H36V0Z" fill="white"/>
</mask>
<g mask="url(#mask0_186_2551)">
<path d="M30.0749 15.9457L23.0699 12.9308L21.5099 12.2708C21.2699 12.1508 21.0599 11.8358 21.0599 11.5658V6.97582C21.0599 5.53582 19.9949 3.82582 18.7049 3.16582C18.2549 2.94082 17.7149 2.94082 17.2649 3.16582C15.9899 3.82582 14.9248 5.55082 14.9248 6.99082V11.5808C14.9248 11.8508 14.7148 12.1658 14.4748 12.2858L5.92484 15.9607C4.97984 16.3507 4.21484 17.5357 4.21484 18.5557V20.5357C4.21484 21.8107 5.17484 22.4407 6.35984 21.9307L13.8748 18.6907C14.4598 18.4357 14.9398 18.7507 14.9398 19.3957V21.0607V23.7607C14.9398 24.1057 14.7448 24.6007 14.5048 24.8407L11.0248 28.3357C10.6648 28.6957 10.4998 29.4007 10.6648 29.9107L11.3398 31.9507C11.6098 32.8357 12.6148 33.2557 13.4398 32.8357L17.0099 29.8357C17.5499 29.3707 18.4349 29.3707 18.9749 29.8357L22.5449 32.8357C23.3699 33.2407 24.3749 32.8357 24.6749 31.9507L25.3499 29.9107C25.5149 29.4157 25.3499 28.6957 24.9899 28.3357L21.5099 24.8407C21.2549 24.6007 21.0599 24.1057 21.0599 23.7607V19.3957C21.0599 18.7507 21.5249 18.4507 22.1249 18.6907L29.6399 21.9307C30.8249 22.4407 31.7849 21.8107 31.7849 20.5357V18.5557C31.7849 17.5357 31.0199 16.3507 30.0749 15.9457Z" fill="#838383"/>
</g>
</svg>
