<svg width="33" height="33" viewBox="0 0 33 33" fill="none" xmlns="http://www.w3.org/2000/svg">
<mask id="mask0_186_2543" style="mask-type:luminance" maskUnits="userSpaceOnUse" x="0" y="0" width="33" height="33">
<path d="M33 0H0V33H33V0Z" fill="white"/>
</mask>
<g mask="url(#mask0_186_2543)">
<path d="M28.9986 9.59686C27.8299 8.30436 25.8774 7.65811 23.0449 7.65811H22.7149V7.60311C22.7149 5.29311 22.7149 2.43311 17.5449 2.43311H15.4549C10.2849 2.43311 10.2849 5.30686 10.2849 7.60311V7.67185H9.95493C7.10868 7.67185 5.16993 8.31811 4.00118 9.61061C2.63993 11.1231 2.68118 13.1581 2.81868 14.5468L2.83243 14.6431L2.93892 15.7614C2.95854 15.9673 3.06945 16.1534 3.24255 16.2667C3.57229 16.4824 4.12413 16.8381 4.45493 17.0218C4.64743 17.1456 4.85368 17.2556 5.05993 17.3656C7.41118 18.6581 9.99618 19.5243 12.6224 19.9506C12.7462 21.2431 13.3099 22.7556 16.3211 22.7556C19.3324 22.7556 19.9236 21.2568 20.0199 19.9231C22.8249 19.4693 25.5336 18.4931 27.9811 17.0631C28.0636 17.0218 28.1186 16.9806 28.1874 16.9393C28.733 16.631 29.2988 16.2511 29.8147 15.8791C29.9701 15.7669 30.0695 15.5936 30.0906 15.4032L30.1124 15.2068L30.1811 14.5606C30.1949 14.4781 30.1949 14.4093 30.2086 14.3131C30.3186 12.9244 30.2911 11.0269 28.9986 9.59686ZM17.9986 19.0156C17.9986 20.4731 17.9986 20.6931 16.3074 20.6931C14.6161 20.6931 14.6161 20.4318 14.6161 19.0293V17.2968H17.9986V19.0156ZM12.2512 7.65811V7.60311C12.2512 5.26561 12.2512 4.39936 15.4549 4.39936H17.5449C20.7486 4.39936 20.7486 5.27936 20.7486 7.60311V7.67185H12.2512V7.65811Z" fill="#0575E6"/>
<path d="M28.7008 18.8855C29.187 18.6541 29.7469 19.0395 29.6982 19.5757L29.2047 25.0122C28.916 27.7622 27.7885 30.5672 21.7385 30.5672H11.2609C5.21094 30.5672 4.08344 27.7622 3.79469 25.0259L3.32621 19.8727C3.27802 19.3427 3.82521 18.9577 4.31009 19.1771C5.87678 19.8859 8.7686 21.1435 10.555 21.6114C10.7809 21.6705 10.9636 21.8322 11.0625 22.0438C11.8971 23.8287 13.7072 24.7784 16.321 24.7784C18.9088 24.7784 20.7417 23.7922 21.5791 22.0029C21.6782 21.7911 21.8611 21.6294 22.0872 21.57C23.9841 21.0709 27.0622 19.6651 28.7008 18.8855Z" fill="#0575E6"/>
</g>
</svg>
