<svg width="33" height="33" viewBox="0 0 33 33" fill="none" xmlns="http://www.w3.org/2000/svg">
<g clip-path="url(#clip0_186_2568)">
<mask id="mask0_186_2568" style="mask-type:luminance" maskUnits="userSpaceOnUse" x="0" y="0" width="33" height="33">
<path d="M33 0H0V33H33V0Z" fill="white"/>
</mask>
<g mask="url(#mask0_186_2568)">
<path d="M16.5 2.75C8.91 2.75 2.75 8.91 2.75 16.5C2.75 24.09 8.91 30.25 16.5 30.25C24.09 30.25 30.25 24.09 30.25 16.5C30.25 8.91 24.09 2.75 16.5 2.75ZM23.7188 17.6138C23.7188 17.8475 23.705 18.0675 23.6775 18.2875C23.4712 20.7213 22.0275 21.9312 19.3875 21.9312H19.03C18.81 21.9312 18.59 22.0413 18.4525 22.22L17.3663 23.6637C16.885 24.31 16.115 24.31 15.6337 23.6637L14.5475 22.22C14.4237 22.0688 14.1625 21.9312 13.97 21.9312H13.6125C10.7387 21.9312 9.28125 21.2163 9.28125 17.6V13.9838C9.28125 11.3438 10.505 9.9 12.925 9.69375C13.145 9.68 13.3787 9.68 13.6125 9.68H19.3875C22.2612 9.68 23.7188 11.1237 23.7188 14.0112V17.6138Z" fill="#838383"/>
</g>
</g>
<defs>
<clipPath id="clip0_186_2568">
<rect width="33" height="33" fill="white"/>
</clipPath>
</defs>
</svg>
