<svg width="36" height="36" viewBox="0 0 36 36" fill="none" xmlns="http://www.w3.org/2000/svg">
<g clip-path="url(#clip0_186_2534)">
<mask id="mask0_186_2534" style="mask-type:luminance" maskUnits="userSpaceOnUse" x="0" y="0" width="36" height="36">
<path d="M36 0H0V36H36V0Z" fill="white"/>
</mask>
<g mask="url(#mask0_186_2534)">
<path d="M9.1305 3.17571C9.54102 2.40139 10.6504 2.40139 11.0609 3.17571L11.5527 4.10325C12.5766 6.03445 14.1562 7.6141 16.0874 8.63799L17.0149 9.12976C17.7892 9.54028 17.7892 10.6497 17.0149 11.0602L16.0874 11.5519C14.1562 12.5758 12.5766 14.1555 11.5527 16.0867L11.0609 17.0142C10.6504 17.7885 9.54102 17.7885 9.1305 17.0142L8.63873 16.0867C7.61484 14.1555 6.03519 12.5758 4.10399 11.5519L3.17645 11.0602C2.40213 10.6497 2.40212 9.54028 3.17645 9.12976L4.10399 8.63799C6.03519 7.61412 7.61484 6.03445 8.63873 4.10326L9.1305 3.17571Z" fill="#838383"/>
<path d="M24.9391 18.9856C25.3495 18.2113 26.4589 18.2113 26.8695 18.9856L27.3612 19.9132C28.3851 21.8443 29.9647 23.4241 31.896 24.4479L32.8236 24.9397C33.5979 25.3503 33.5979 26.4595 32.8236 26.8701L31.896 27.3619C29.9647 28.3858 28.3851 29.9655 27.3612 31.8966L26.8695 32.8242C26.4589 33.5985 25.3495 33.5985 24.9391 32.8242L24.4473 31.8966C23.4234 29.9655 21.8437 28.3858 19.9126 27.3619L18.985 26.8701C18.2107 26.4595 18.2107 25.3503 18.985 24.9397L19.9126 24.4479C21.8437 23.4241 23.4234 21.8443 24.4473 19.9132L24.9391 18.9856Z" fill="#838383"/>
</g>
</g>
<defs>
<clipPath id="clip0_186_2534">
<rect width="36" height="36" fill="white"/>
</clipPath>
</defs>
</svg>
