<svg width="20" height="20" viewBox="0 0 20 20" fill="none" xmlns="http://www.w3.org/2000/svg">
<g clip-path="url(#clip0_121_2219)">
<path d="M7.5 20H0.833333C0.61232 20 0.400358 19.9122 0.244078 19.756C0.0877974 19.5997 0 19.3877 0 19.1667C0 18.9457 0.0877974 18.7337 0.244078 18.5775C0.400358 18.4212 0.61232 18.3334 0.833333 18.3334H7.5C7.72101 18.3334 7.93298 18.4212 8.08926 18.5775C8.24554 18.7337 8.33333 18.9457 8.33333 19.1667C8.33333 19.3877 8.24554 19.5997 8.08926 19.756C7.93298 19.9122 7.72101 20 7.5 20Z" fill="#0575E6"/>
<path d="M5.83333 16.6667H0.833333C0.61232 16.6667 0.400358 16.5789 0.244078 16.4226C0.0877974 16.2663 0 16.0543 0 15.8333C0 15.6123 0.0877974 15.4004 0.244078 15.2441C0.400358 15.0878 0.61232 15 0.833333 15H5.83333C6.05435 15 6.26631 15.0878 6.42259 15.2441C6.57887 15.4004 6.66667 15.6123 6.66667 15.8333C6.66667 16.0543 6.57887 16.2663 6.42259 16.4226C6.26631 16.5789 6.05435 16.6667 5.83333 16.6667Z" fill="#0575E6"/>
<path d="M4.16667 13.3333H0.833333C0.61232 13.3333 0.400358 13.2455 0.244078 13.0892C0.0877974 12.9329 0 12.721 0 12.5C0 12.2789 0.0877974 12.067 0.244078 11.9107C0.400358 11.7544 0.61232 11.6666 0.833333 11.6666H4.16667C4.38768 11.6666 4.59964 11.7544 4.75592 11.9107C4.9122 12.067 5 12.2789 5 12.5C5 12.721 4.9122 12.9329 4.75592 13.0892C4.59964 13.2455 4.38768 13.3333 4.16667 13.3333Z" fill="#0575E6"/>
<path d="M10.833 19.9625C10.612 19.9723 10.3961 19.8939 10.2329 19.7446C10.0696 19.5953 9.97241 19.3872 9.96258 19.1662C9.95274 18.9452 10.0311 18.7293 10.1804 18.5661C10.3298 18.4029 10.5378 18.3056 10.7588 18.2958C12.3359 18.1515 13.8392 17.5608 15.0926 16.593C16.346 15.6251 17.2978 14.3201 17.8363 12.8308C18.3748 11.3416 18.4778 9.72968 18.1332 8.18398C17.7886 6.63828 17.0108 5.22277 15.8907 4.10323C14.7707 2.98368 13.3548 2.20647 11.8089 1.86261C10.2631 1.51876 8.65124 1.6225 7.16222 2.16169C5.6732 2.70088 4.36864 3.65319 3.40135 4.90708C2.43405 6.16097 1.84407 7.66452 1.70049 9.24164C1.6806 9.46177 1.57408 9.66498 1.40436 9.80657C1.23464 9.94816 1.01562 10.0165 0.795493 9.99664C0.575364 9.97675 0.372152 9.87022 0.230562 9.7005C0.0889717 9.53078 0.0206021 9.31177 0.0404934 9.09164C0.272901 6.52773 1.48516 4.15222 3.42493 2.45961C5.3647 0.766999 7.88253 -0.112306 10.4543 0.00473356C13.026 0.121773 15.4536 1.22614 17.2316 3.08795C19.0096 4.94975 20.0011 7.42555 19.9997 9.99997C20.0124 12.4986 19.0842 14.9105 17.3996 16.7558C15.715 18.6012 13.3974 19.7448 10.908 19.9591C10.883 19.9616 10.8572 19.9625 10.833 19.9625Z" fill="#0575E6"/>
<path d="M10.0003 5C9.77931 5 9.56735 5.0878 9.41107 5.24408C9.25479 5.40036 9.16699 5.61232 9.16699 5.83333V10C9.16704 10.221 9.25487 10.4329 9.41116 10.5892L11.9112 13.0892C12.0683 13.241 12.2788 13.325 12.4973 13.3231C12.7158 13.3212 12.9248 13.2335 13.0793 13.079C13.2338 12.9245 13.3215 12.7155 13.3234 12.497C13.3253 12.2785 13.2413 12.068 13.0895 11.9108L10.8337 9.655V5.83333C10.8337 5.61232 10.7459 5.40036 10.5896 5.24408C10.4333 5.0878 10.2213 5 10.0003 5Z" fill="#0575E6"/>
</g>
<defs>
<clipPath id="clip0_121_2219">
<rect width="20" height="20" fill="white"/>
</clipPath>
</defs>
</svg>
