<svg width="20" height="20" viewBox="0 0 20 20" fill="none" xmlns="http://www.w3.org/2000/svg">
<path d="M16.6645 6.66667C15.7804 6.66667 14.9326 6.31548 14.3075 5.69036C13.6824 5.06524 13.3312 4.21739 13.3312 3.33333C13.3312 2.44928 13.6824 1.60143 14.3075 0.976311C14.9326 0.35119 15.7804 0 16.6645 0C17.5486 0 18.3964 0.35119 19.0215 0.976311C19.6466 1.60143 19.9978 2.44928 19.9978 3.33333C19.9978 4.21739 19.6466 5.06524 19.0215 5.69036C18.3964 6.31548 17.5486 6.66667 16.6645 6.66667ZM16.6645 1.66667C16.2225 1.66667 15.7985 1.84226 15.486 2.15482C15.1734 2.46738 14.9978 2.89131 14.9978 3.33333C14.9978 3.77536 15.1734 4.19928 15.486 4.51185C15.7985 4.82441 16.2225 5 16.6645 5C17.1065 5 17.5304 4.82441 17.843 4.51185C18.1556 4.19928 18.3312 3.77536 18.3312 3.33333C18.3312 2.89131 18.1556 2.46738 17.843 2.15482C17.5304 1.84226 17.1065 1.66667 16.6645 1.66667ZM17.8745 20H10.4887C10.1151 20.0033 9.74719 19.9079 9.42222 19.7236C9.09725 19.5392 8.82668 19.2724 8.63783 18.95C8.45276 18.6393 8.35306 18.2853 8.34882 17.9237C8.34457 17.5621 8.43594 17.2058 8.61367 16.8908L12.3103 10.2583C12.5007 9.92961 12.7741 9.65671 13.1032 9.46699C13.4323 9.27727 13.8055 9.1774 14.1853 9.1774C14.5652 9.1774 14.9384 9.27727 15.2675 9.46699C15.5966 9.65671 15.87 9.92961 16.0603 10.2583L19.7478 16.8858C19.9259 17.2012 20.0175 17.5581 20.0134 17.9202C20.0093 18.2824 19.9097 18.637 19.7245 18.9483C19.5357 19.2707 19.2653 19.5377 18.9406 19.7223C18.6158 19.9069 18.2481 20.0027 17.8745 20ZM14.1837 10.8333C14.0994 10.8313 14.0161 10.8522 13.9428 10.8937C13.8694 10.9353 13.8087 10.9959 13.767 11.0692L10.0703 17.7017C10.0346 17.7632 10.0162 17.8333 10.0171 17.9044C10.018 17.9756 10.0381 18.0452 10.0753 18.1058C10.118 18.1776 10.1792 18.2366 10.2525 18.2766C10.3258 18.3167 10.4085 18.3362 10.492 18.3333H17.8778C17.9614 18.3358 18.0441 18.3159 18.1174 18.2756C18.1907 18.2353 18.2518 18.1761 18.2945 18.1042C18.3311 18.0425 18.3504 17.9721 18.3504 17.9004C18.3504 17.8287 18.3311 17.7583 18.2945 17.6967L14.6012 11.07C14.5597 10.9963 14.4989 10.9353 14.4253 10.8936C14.3517 10.8519 14.2682 10.8311 14.1837 10.8333ZM6.6645 19.1667C6.6645 18.9457 6.5767 18.7337 6.42042 18.5774C6.26414 18.4211 6.05218 18.3333 5.83117 18.3333H2.7895C2.59461 18.3332 2.4031 18.2824 2.23376 18.186C2.06442 18.0895 1.92307 17.9507 1.82357 17.7831C1.72407 17.6155 1.66984 17.425 1.6662 17.2301C1.66257 17.0353 1.70965 16.8428 1.80283 16.6717L7.34617 6.42167C7.44098 6.24301 7.5829 6.09372 7.75654 5.99001C7.93018 5.88629 8.12891 5.83211 8.33117 5.83333C8.53362 5.83168 8.73263 5.88567 8.90648 5.98943C9.08034 6.09318 9.22234 6.2427 9.317 6.42167L10.3395 8.31083C10.3916 8.40714 10.4621 8.49224 10.5471 8.56127C10.6321 8.63031 10.7298 8.68194 10.8348 8.7132C10.9397 8.74446 11.0498 8.75475 11.1587 8.74348C11.2676 8.7322 11.3732 8.69959 11.4695 8.6475C11.5658 8.59541 11.6509 8.52486 11.7199 8.43988C11.789 8.3549 11.8406 8.25716 11.8719 8.15223C11.9031 8.0473 11.9134 7.93724 11.9021 7.82833C11.8909 7.71942 11.8583 7.6138 11.8062 7.5175L10.7845 5.62917C10.5457 5.18687 10.1917 4.8174 9.76003 4.55989C9.32835 4.30239 8.83506 4.16643 8.33242 4.16643C7.82977 4.16643 7.33648 4.30239 6.9048 4.55989C6.47313 4.8174 6.11914 5.18687 5.88033 5.62917L0.336165 15.8792C0.106251 16.3043 -0.00937537 16.7819 0.000594236 17.2651C0.0105638 17.7483 0.145788 18.2207 0.393042 18.636C0.640295 19.0513 0.991109 19.3953 1.41117 19.6344C1.83123 19.8735 2.30616 19.9995 2.7895 20H5.83117C6.05218 20 6.26414 19.9122 6.42042 19.7559C6.5767 19.5996 6.6645 19.3877 6.6645 19.1667Z" fill="#0575E6"/>
</svg>
