<svg width="20" height="20" viewBox="0 0 20 20" fill="none" xmlns="http://www.w3.org/2000/svg">
<path d="M16.6667 8.33333H16.5708C16.6865 7.95274 16.7126 7.55059 16.6473 7.15823C16.582 6.76586 16.4269 6.39388 16.1943 6.07127C15.9616 5.74866 15.6575 5.48414 15.3058 5.29832C14.9542 5.11251 14.5643 5.01041 14.1667 5H2.5C-2.0425 5.31 0.833333 12.2092 2.00917 14.0933C2.53647 14.8921 3.25544 15.5461 4.10044 15.9956C4.94545 16.4451 5.88958 16.6758 6.84667 16.6667H9.81917C10.7608 16.6753 11.69 16.4517 12.5246 16.0156C13.3592 15.5796 14.0735 14.9445 14.6042 14.1667H16.6667C20.6783 14.0892 21.4658 8.185 16.6667 8.33333ZM9.81917 15H6.84667C6.16682 15.0092 5.49551 14.8478 4.89413 14.5306C4.29276 14.2133 3.78049 13.7504 3.40417 13.1842C2.95083 12.75 0.411667 6.66667 2.5 6.66667H14.1667C14.2813 6.66629 14.3947 6.69024 14.4995 6.73692C14.6042 6.78361 14.6978 6.85197 14.7742 6.9375C14.8554 7.02699 14.9168 7.13266 14.9543 7.24756C14.9917 7.36246 15.0045 7.48399 14.9917 7.60417C14.5225 11.1533 13.64 14.8425 9.81917 15ZM16.6667 12.5H15.49C15.8326 11.6934 16.0987 10.8564 16.285 10C17.2925 9.9325 18.4067 10.18 18.3333 10.9525C18.3063 11.3747 18.1184 11.7705 17.8084 12.0583C17.4983 12.3462 17.0897 12.5043 16.6667 12.5ZM7.52083 2.5V0.833333C7.52083 0.61232 7.60863 0.400358 7.76491 0.244078C7.92119 0.0877974 8.13315 0 8.35417 0C8.57518 0 8.78714 0.0877974 8.94342 0.244078C9.0997 0.400358 9.1875 0.61232 9.1875 0.833333V2.5C9.1875 2.72101 9.0997 2.93298 8.94342 3.08926C8.78714 3.24554 8.57518 3.33333 8.35417 3.33333C8.13315 3.33333 7.92119 3.24554 7.76491 3.08926C7.60863 2.93298 7.52083 2.72101 7.52083 2.5ZM10.8542 2.5V0.833333C10.8542 0.61232 10.942 0.400358 11.0982 0.244078C11.2545 0.0877974 11.4665 0 11.6875 0C11.9085 0 12.1205 0.0877974 12.2768 0.244078C12.433 0.400358 12.5208 0.61232 12.5208 0.833333V2.5C12.5208 2.72101 12.433 2.93298 12.2768 3.08926C12.1205 3.24554 11.9085 3.33333 11.6875 3.33333C11.4665 3.33333 11.2545 3.24554 11.0982 3.08926C10.942 2.93298 10.8542 2.72101 10.8542 2.5ZM4.1875 2.5V0.833333C4.1875 0.61232 4.2753 0.400358 4.43158 0.244078C4.58786 0.0877974 4.79982 0 5.02083 0C5.24185 0 5.45381 0.0877974 5.61009 0.244078C5.76637 0.400358 5.85417 0.61232 5.85417 0.833333V2.5C5.85417 2.72101 5.76637 2.93298 5.61009 3.08926C5.45381 3.24554 5.24185 3.33333 5.02083 3.33333C4.79982 3.33333 4.58786 3.24554 4.43158 3.08926C4.2753 2.93298 4.1875 2.72101 4.1875 2.5ZM16.6667 19.1667C16.6667 19.3877 16.5789 19.5996 16.4226 19.7559C16.2663 19.9122 16.0543 20 15.8333 20H0.833333C0.61232 20 0.400358 19.9122 0.244078 19.7559C0.0877974 19.5996 0 19.3877 0 19.1667C0 18.9457 0.0877974 18.7337 0.244078 18.5774C0.400358 18.4211 0.61232 18.3333 0.833333 18.3333H15.8333C16.0543 18.3333 16.2663 18.4211 16.4226 18.5774C16.5789 18.7337 16.6667 18.9457 16.6667 19.1667Z" fill="#0575E6"/>
</svg>
