<svg width="34" height="34" viewBox="0 0 34 34" fill="none" xmlns="http://www.w3.org/2000/svg">
<path d="M8.49967 28.3334C8.8754 28.3334 9.23573 28.1841 9.50141 27.9184C9.76709 27.6528 9.91634 27.2924 9.91634 26.9167V17C9.91634 16.6243 9.76709 16.264 9.50141 15.9983C9.23573 15.7326 8.8754 15.5834 8.49967 15.5834C8.12395 15.5834 7.76362 15.7326 7.49794 15.9983C7.23226 16.264 7.08301 16.6243 7.08301 17V26.9167C7.08301 27.2924 7.23226 27.6528 7.49794 27.9184C7.76362 28.1841 8.12395 28.3334 8.49967 28.3334Z" fill="black"/>
<path d="M14.167 14.1667V26.9167C14.167 27.2924 14.3162 27.6527 14.5819 27.9184C14.8476 28.1841 15.2079 28.3333 15.5837 28.3333C15.9594 28.3333 16.3197 28.1841 16.5854 27.9184C16.8511 27.6527 17.0003 27.2924 17.0003 26.9167V14.1667C17.0003 13.7909 16.8511 13.4306 16.5854 13.1649C16.3197 12.8993 15.9594 12.75 15.5837 12.75C15.2079 12.75 14.8476 12.8993 14.5819 13.1649C14.3162 13.4306 14.167 13.7909 14.167 14.1667Z" fill="black"/>
<path d="M21.25 18.4167V26.9167C21.25 27.2924 21.3993 27.6527 21.6649 27.9184C21.9306 28.1841 22.2909 28.3333 22.6667 28.3333C23.0424 28.3333 23.4027 28.1841 23.6684 27.9184C23.9341 27.6527 24.0833 27.2924 24.0833 26.9167V18.4167C24.0833 18.0409 23.9341 17.6806 23.6684 17.4149C23.4027 17.1493 23.0424 17 22.6667 17C22.2909 17 21.9306 17.1493 21.6649 17.4149C21.3993 17.6806 21.25 18.0409 21.25 18.4167Z" fill="black"/>
<path d="M28.333 12.75V26.9167C28.333 27.2924 28.4823 27.6528 28.7479 27.9184C29.0136 28.1841 29.374 28.3334 29.7497 28.3334C30.1254 28.3334 30.4857 28.1841 30.7514 27.9184C31.0171 27.6528 31.1663 27.2924 31.1663 26.9167V12.75C31.1663 12.3743 31.0171 12.014 30.7514 11.7483C30.4857 11.4826 30.1254 11.3334 29.7497 11.3334C29.374 11.3334 29.0136 11.4826 28.7479 11.7483C28.4823 12.014 28.333 12.3743 28.333 12.75Z" fill="black"/>
<path d="M8.50035 12.75C8.87604 12.75 9.23632 12.6007 9.50193 12.335L14.5821 7.2548C14.8521 6.99757 15.2108 6.85408 15.5837 6.85408C15.9566 6.85408 16.3152 6.99757 16.5853 7.2548L19.6623 10.3318C20.4593 11.1286 21.5401 11.5761 22.667 11.5761C23.794 11.5761 24.8748 11.1286 25.6718 10.3318L33.5853 2.4183C33.8433 2.15111 33.9861 1.79326 33.9829 1.42181C33.9797 1.05037 33.8307 0.69505 33.568 0.432388C33.3053 0.169727 32.95 0.0207374 32.5786 0.0175096C32.2071 0.0142818 31.8493 0.157074 31.5821 0.415131L23.6686 8.32722C23.4029 8.5928 23.0427 8.742 22.667 8.742C22.2914 8.742 21.9311 8.5928 21.6654 8.32722L18.5884 5.25163C17.7914 4.45488 16.7106 4.00729 15.5837 4.00729C14.4567 4.00729 13.3759 4.45488 12.5789 5.25163L7.49877 10.3318C7.3007 10.5299 7.16583 10.7823 7.11119 11.0571C7.05655 11.3319 7.08461 11.6167 7.19181 11.8755C7.299 12.1343 7.48054 12.3555 7.71345 12.5112C7.94636 12.6669 8.2202 12.75 8.50035 12.75Z" fill="black"/>
</svg>
