<svg width="30" height="30" viewBox="0 0 30 30" fill="none" xmlns="http://www.w3.org/2000/svg">
<mask id="mask0_248_1320" style="mask-type:luminance" maskUnits="userSpaceOnUse" x="0" y="0" width="30" height="30">
<path d="M28.75 1.25V28.75H1.25V1.25H28.75Z" fill="white" stroke="white" stroke-width="2.5"/>
</mask>
<g mask="url(#mask0_248_1320)">
<path d="M21.25 23.0371H16.25L10.6875 26.7371C9.86249 27.2871 8.75 26.6997 8.75 25.6997V23.0371C5 23.0371 2.5 20.5371 2.5 16.7871V9.28711C2.5 5.53711 5 3.03711 8.75 3.03711H21.25C25 3.03711 27.5 5.53711 27.5 9.28711V16.7871C27.5 20.5371 25 23.0371 21.25 23.0371Z" stroke="black" stroke-width="2.5" stroke-miterlimit="10" stroke-linecap="round" stroke-linejoin="round"/>
<path d="M14.9998 14.1992V13.9367C14.9998 13.0867 15.5248 12.6367 16.0498 12.2742C16.5623 11.9242 17.0747 11.4743 17.0747 10.6493C17.0747 9.49926 16.1498 8.57422 14.9998 8.57422C13.8498 8.57422 12.9248 9.49926 12.9248 10.6493" stroke="black" stroke-width="2.5" stroke-linecap="round" stroke-linejoin="round"/>
<path d="M14.9941 17.1875H15.0046" stroke="black" stroke-width="2.5" stroke-linecap="round" stroke-linejoin="round"/>
</g>
</svg>
