<svg width="29" height="29" viewBox="0 0 29 29" fill="none" xmlns="http://www.w3.org/2000/svg">
<g clip-path="url(#clip0_248_1341)">
<mask id="mask0_248_1341" style="mask-type:luminance" maskUnits="userSpaceOnUse" x="0" y="0" width="29" height="29">
<path d="M29 0H0V29H29V0Z" fill="white"/>
</mask>
<g mask="url(#mask0_248_1341)">
<path d="M24.1667 17.8228C22.33 17.8228 20.8438 16.3366 20.8438 14.4999C20.8438 12.6633 22.33 11.177 24.1667 11.177C26.0033 11.177 27.4896 12.6633 27.4896 14.4999C27.4896 16.3366 26.0033 17.8228 24.1667 17.8228ZM24.1667 12.9895C23.3329 12.9895 22.6562 13.6662 22.6562 14.4999C22.6562 15.3337 23.3329 16.0103 24.1667 16.0103C25.0004 16.0103 25.6771 15.3337 25.6771 14.4999C25.6771 13.6662 25.0004 12.9895 24.1667 12.9895Z" fill="black"/>
<path d="M24.1667 8.15621C22.33 8.15621 20.8438 6.66996 20.8438 4.83329C20.8438 2.99663 22.33 1.51038 24.1667 1.51038C26.0033 1.51038 27.4896 2.99663 27.4896 4.83329C27.4896 6.66996 26.0033 8.15621 24.1667 8.15621ZM24.1667 3.32288C23.3329 3.32288 22.6562 3.99954 22.6562 4.83329C22.6562 5.66704 23.3329 6.34371 24.1667 6.34371C25.0004 6.34371 25.6771 5.66704 25.6771 4.83329C25.6771 3.99954 25.0004 3.32288 24.1667 3.32288Z" fill="black"/>
<path d="M24.1667 27.4896C22.33 27.4896 20.8438 26.0033 20.8438 24.1667C20.8438 22.33 22.33 20.8438 24.1667 20.8438C26.0033 20.8438 27.4896 22.33 27.4896 24.1667C27.4896 26.0033 26.0033 27.4896 24.1667 27.4896ZM24.1667 22.6562C23.3329 22.6562 22.6562 23.3329 22.6562 24.1667C22.6562 25.0004 23.3329 25.6771 24.1667 25.6771C25.0004 25.6771 25.6771 25.0004 25.6771 24.1667C25.6771 23.3329 25.0004 22.6562 24.1667 22.6562Z" fill="black"/>
<path d="M4.83366 17.8228C2.99699 17.8228 1.51074 16.3366 1.51074 14.4999C1.51074 12.6633 2.99699 11.177 4.83366 11.177C6.67033 11.177 8.15658 12.6633 8.15658 14.4999C8.15658 16.3366 6.67033 17.8228 4.83366 17.8228ZM4.83366 12.9895C3.99991 12.9895 3.32324 13.6662 3.32324 14.4999C3.32324 15.3337 3.99991 16.0103 4.83366 16.0103C5.66741 16.0103 6.34408 15.3337 6.34408 14.4999C6.34408 13.6662 5.66741 12.9895 4.83366 12.9895Z" fill="black"/>
<path d="M21.75 15.4062H7.25C6.75458 15.4062 6.34375 14.9954 6.34375 14.5C6.34375 14.0046 6.75458 13.5938 7.25 13.5938H21.75C22.2454 13.5938 22.6562 14.0046 22.6562 14.5C22.6562 14.9954 22.2454 15.4062 21.75 15.4062Z" fill="black"/>
<path d="M21.7503 25.0728H16.917C13.9928 25.0728 12.3857 23.4658 12.3857 20.5416V8.45825C12.3857 5.53409 13.9928 3.927 16.917 3.927H21.7503C22.2457 3.927 22.6566 4.33784 22.6566 4.83325C22.6566 5.32867 22.2457 5.7395 21.7503 5.7395H16.917C15.0078 5.7395 14.1982 6.54909 14.1982 8.45825V20.5416C14.1982 22.4508 15.0078 23.2603 16.917 23.2603H21.7503C22.2457 23.2603 22.6566 23.6712 22.6566 24.1666C22.6566 24.662 22.2457 25.0728 21.7503 25.0728Z" fill="black"/>
</g>
</g>
<defs>
<clipPath id="clip0_248_1341">
<rect width="29" height="29" fill="white"/>
</clipPath>
</defs>
</svg>
