<svg width="35" height="35" viewBox="0 0 35 35" fill="none" xmlns="http://www.w3.org/2000/svg">
<mask id="mask0_247_1291" style="mask-type:luminance" maskUnits="userSpaceOnUse" x="0" y="0" width="35" height="35">
<path d="M35 0H0V35H35V0Z" fill="white"/>
</mask>
<g mask="url(#mask0_247_1291)">
<path d="M14.6567 3.68857L5.87754 9.41982C3.06296 11.2573 3.06296 15.3698 5.87754 17.2073L14.6567 22.9386C16.2317 23.974 18.8275 23.974 20.4025 22.9386L29.1379 17.2073C31.9379 15.3698 31.9379 11.2719 29.1379 9.4344L20.4025 3.70315C18.8275 2.65315 16.2317 2.65315 14.6567 3.68857Z" stroke="black" stroke-width="2.5" stroke-linecap="round" stroke-linejoin="round"/>
<path d="M8.21087 19.0752L8.19629 25.9148C8.19629 27.7669 9.62546 29.7502 11.3755 30.3335L16.0275 31.8794C16.8296 32.1419 18.1567 32.1419 18.9734 31.8794L23.6255 30.3335C25.3755 29.7502 26.8046 27.7669 26.8046 25.9148V19.1481" stroke="black" stroke-width="2.5" stroke-linecap="round" stroke-linejoin="round"/>
<path d="M31.209 21.875V13.125" stroke="black" stroke-width="2.5" stroke-linecap="round" stroke-linejoin="round"/>
</g>
</svg>
