<svg width="28" height="30" viewBox="0 0 28 30" fill="none" xmlns="http://www.w3.org/2000/svg">
<path d="M5.09156 10H6.3641V11.25C6.28266 15.285 9.91067 18.835 14.0159 18.7487C18.1835 18.7812 21.6448 15.2125 21.6346 10.9812V10H22.9071C23.6108 10 24.1797 9.44125 24.1797 8.75C24.1797 8.05875 23.6108 7.5 22.9071 7.5H21.6346C21.6346 3.36375 18.2102 0 13.9993 0C9.78851 0 6.3641 3.36375 6.3641 7.5H5.09156C4.38912 7.5 3.81902 8.05875 3.81902 8.75C3.81902 9.44125 4.38912 10 5.09156 10ZM14.5033 16.2262C13.0437 16.36 11.649 15.91 10.5762 14.95C9.51618 14.0025 8.90918 12.655 8.90918 11.2487V9.99875H19.0895V10.98C19.0895 13.68 17.0751 15.9837 14.5033 16.225V16.2262ZM12.7268 2.6775V5C12.7268 5.69125 13.2969 6.25 13.9993 6.25C14.7018 6.25 15.2719 5.69125 15.2719 5V2.6775C17.4619 3.23625 19.0895 5.17625 19.0895 7.5H8.90918C8.90918 5.17625 10.538 3.23625 12.7268 2.6775ZM27.9973 23.75V28.75C27.9973 29.4412 27.4285 30 26.7247 30C26.021 30 25.4522 29.4412 25.4522 28.75V23.75C25.4917 22.235 23.9557 20.9837 22.4516 21.29L17.0763 22.25C16.0316 22.4375 15.2719 23.3312 15.2719 24.375V28.75C15.2719 29.4412 14.7018 30 13.9993 30C13.2969 30 12.7268 29.4412 12.7268 28.75V24.375C12.7268 23.3312 11.9671 22.4375 10.9223 22.25L5.54713 21.29C4.03535 20.985 2.50958 22.235 2.54648 23.75V28.75C2.54648 29.4412 1.97638 30 1.27394 30C0.571498 30 0.00139964 29.4412 0.00139964 28.75V23.75C-0.0749528 20.7225 2.98551 18.215 6.0027 18.8312L11.3779 19.7913C12.4214 19.9775 13.3224 20.5 13.9993 21.22C14.6776 20.5 15.5773 19.9775 16.6208 19.7913L21.9973 18.8312C25.0119 18.2113 28.0749 20.7237 27.9973 23.75Z" fill="black"/>
</svg>
