<svg width="31" height="31" viewBox="0 0 31 31" fill="none" xmlns="http://www.w3.org/2000/svg">
<g clip-path="url(#clip0_248_1330)">
<mask id="mask0_248_1330" style="mask-type:luminance" maskUnits="userSpaceOnUse" x="0" y="0" width="31" height="31">
<path d="M31 0H0V31H31V0Z" fill="white"/>
</mask>
<g mask="url(#mask0_248_1330)">
<path d="M8.88672 23.4439V20.7701" stroke="black" stroke-width="2.5" stroke-linecap="round"/>
<path d="M15.5 23.4436V18.0961" stroke="black" stroke-width="2.5" stroke-linecap="round"/>
<path d="M22.1133 23.4433V15.4092" stroke="black" stroke-width="2.5" stroke-linecap="round"/>
<path d="M22.1134 7.55579L21.5192 8.25329C18.2255 12.1025 13.808 14.8279 8.88672 16.0549" stroke="black" stroke-width="2.5" stroke-linecap="round"/>
<path d="M18.3281 7.55579H22.1127V11.3275" stroke="black" stroke-width="2.5" stroke-linecap="round" stroke-linejoin="round"/>
<path d="M11.6247 28.4167H19.3747C25.833 28.4167 28.4163 25.8334 28.4163 19.375V11.625C28.4163 5.16671 25.833 2.58337 19.3747 2.58337H11.6247C5.16634 2.58337 2.58301 5.16671 2.58301 11.625V19.375C2.58301 25.8334 5.16634 28.4167 11.6247 28.4167Z" stroke="black" stroke-width="2.5" stroke-linecap="round" stroke-linejoin="round"/>
</g>
</g>
<defs>
<clipPath id="clip0_248_1330">
<rect width="31" height="31" fill="white"/>
</clipPath>
</defs>
</svg>
