<svg width="41" height="41" viewBox="0 0 41 41" fill="none" xmlns="http://www.w3.org/2000/svg">
<g clip-path="url(#clip0_186_2580)">
<path d="M28.1875 6.40625V28.1875L20.5 24.3438L12.8125 28.1875V6.40625M28.1875 6.40625H30.75C31.7694 6.40625 32.7471 6.81122 33.4679 7.53206C34.1888 8.2529 34.5938 9.23057 34.5938 10.25V30.75C34.5938 31.7694 34.1888 32.7471 33.4679 33.4679C32.7471 34.1888 31.7694 34.5938 30.75 34.5938H10.25C9.23057 34.5938 8.2529 34.1888 7.53206 33.4679C6.81122 32.7471 6.40625 31.7694 6.40625 30.75V10.25C6.40625 9.23057 6.81122 8.2529 7.53206 7.53206C8.2529 6.81122 9.23057 6.40625 10.25 6.40625H12.8125M28.1875 6.40625H12.8125" stroke="url(#paint0_linear_186_2580)" stroke-width="2" stroke-linecap="round" stroke-linejoin="round"/>
</g>
<defs>
<linearGradient id="paint0_linear_186_2580" x1="6.40625" y1="7.17144" x2="38.6917" y2="13.7661" gradientUnits="userSpaceOnUse">
<stop stop-color="#0575E6"/>
<stop offset="1" stop-color="#021B79"/>
</linearGradient>
<clipPath id="clip0_186_2580">
<rect width="41" height="41" fill="white"/>
</clipPath>
</defs>
</svg>
