<svg width="23" height="23" viewBox="0 0 23 23" fill="none" xmlns="http://www.w3.org/2000/svg">
<path d="M5.44835 3.25977C5.56495 3.12082 5.62292 2.94197 5.61001 2.76104C5.5971 2.58012 5.51432 2.41131 5.37918 2.29032C5.24403 2.16934 5.06713 2.10567 4.88589 2.11277C4.70464 2.11988 4.53326 2.1972 4.40801 2.3284C3.26379 3.60461 2.50543 5.17946 2.22115 6.86977C2.19485 7.05051 2.24039 7.23436 2.34801 7.38193C2.45562 7.5295 2.61675 7.62905 2.79688 7.65925C2.97701 7.68946 3.1618 7.64791 3.31167 7.54352C3.46153 7.43912 3.56455 7.28018 3.59865 7.10075C3.83907 5.6711 4.48051 4.33912 5.44835 3.25977ZM17.9446 2.3284C17.8836 2.25942 17.8096 2.20317 17.7268 2.1629C17.644 2.12262 17.554 2.09912 17.4621 2.09373C17.3702 2.08834 17.2781 2.10117 17.1912 2.1315C17.1043 2.16182 17.0242 2.20903 16.9555 2.27041C16.8869 2.3318 16.8311 2.40614 16.7913 2.48917C16.7515 2.5722 16.7285 2.66228 16.7237 2.75423C16.7188 2.84617 16.7322 2.93817 16.763 3.02493C16.7938 3.11169 16.8415 3.1915 16.9033 3.25977C17.8714 4.33903 18.5132 5.67102 18.7539 7.10075C18.7846 7.28354 18.8866 7.44668 19.0375 7.55427C19.1122 7.60755 19.1967 7.64559 19.2861 7.66621C19.3755 7.68683 19.4681 7.68964 19.5586 7.67448C19.6492 7.65931 19.7358 7.62646 19.8136 7.57782C19.8914 7.52917 19.9589 7.46567 20.0122 7.39095C20.0654 7.31622 20.1035 7.23174 20.1241 7.14231C20.1447 7.05289 20.1475 6.96028 20.1324 6.86977C19.8475 5.17928 19.0894 3.60442 17.9446 2.3284Z" fill="#0575E6"/>
<path fill-rule="evenodd" clip-rule="evenodd" d="M11.1764 2.0957C9.50901 2.0957 7.90994 2.75806 6.73095 3.93705C5.55195 5.11605 4.88959 6.71511 4.88959 8.38247V9.081C4.89246 10.9802 4.18902 12.8127 2.91602 14.2222C2.83957 14.307 2.78507 14.4092 2.7573 14.52C2.72953 14.6307 2.72933 14.7466 2.75672 14.8574C2.78411 14.9683 2.83826 15.0707 2.91441 15.1558C2.99057 15.2409 3.08642 15.306 3.19357 15.3454C4.6316 15.8763 6.1367 16.2675 7.69303 16.5031C7.65799 16.982 7.72205 17.4629 7.88123 17.9159C8.0404 18.3689 8.29127 18.7842 8.61815 19.1359C8.94504 19.4875 9.34092 19.768 9.78108 19.9598C10.2212 20.1517 10.6962 20.2507 11.1764 20.2507C11.6565 20.2507 12.1315 20.1517 12.5716 19.9598C13.0118 19.768 13.4077 19.4875 13.7346 19.1359C14.0615 18.7842 14.3123 18.3689 14.4715 17.9159C14.6307 17.4629 14.6947 16.982 14.6597 16.5031C16.1946 16.2704 17.7019 15.8822 19.1582 15.3445C19.2652 15.305 19.3609 15.2399 19.4369 15.1549C19.513 15.0699 19.567 14.9676 19.5944 14.8569C19.6218 14.7462 19.6216 14.6304 19.594 14.5198C19.5663 14.4092 19.512 14.307 19.4358 14.2222C18.1631 12.8126 17.46 10.9801 17.4631 9.081V8.38247C17.4631 6.71511 16.8008 5.11605 15.6218 3.93705C14.4428 2.75806 12.8437 2.0957 11.1764 2.0957ZM9.08077 16.7648C9.08077 16.7332 9.08077 16.7024 9.08263 16.6717C10.4756 16.7972 11.8771 16.7972 13.2701 16.6717L13.2719 16.7648C13.2719 17.3206 13.0512 17.8536 12.6582 18.2466C12.2652 18.6396 11.7321 18.8604 11.1764 18.8604C10.6206 18.8604 10.0876 18.6396 9.69455 18.2466C9.30156 17.8536 9.08077 17.3206 9.08077 16.7648Z" fill="#0575E6"/>
</svg>
