<svg width="23" height="24" viewBox="0 0 23 24" fill="none" xmlns="http://www.w3.org/2000/svg">
<path opacity="0.987" fill-rule="evenodd" clip-rule="evenodd" d="M10.1278 0.103278C11.36 -0.0343853 12.0891 -0.0343853 13.4131 0.103278C15.7566 0.450147 17.9291 1.53342 19.6164 3.19645C18.4762 4.27419 17.351 5.36767 16.2411 6.47657C14.1155 4.67506 11.743 4.25923 9.1234 5.22911C7.20178 6.11287 5.86367 7.54502 5.10908 9.52556C3.87595 8.60752 2.65889 7.66809 1.45845 6.70771C1.37502 6.6638 1.27974 6.64772 1.18652 6.66182C3.09341 2.98514 6.07329 0.798392 10.1261 0.101578" fill="#F44336"/>
<path opacity="0.997" fill-rule="evenodd" clip-rule="evenodd" d="M1.18331 6.66182C1.27962 6.64709 1.37083 6.66239 1.45694 6.70771C2.65738 7.66809 3.87444 8.60751 5.10756 9.52556C4.91352 10.2973 4.7912 11.0852 4.74216 11.8794C4.78408 12.6476 4.90589 13.4017 5.10756 14.1415L1.27509 17.1922C-0.393866 13.7047 -0.424458 10.1946 1.18331 6.66182Z" fill="#FFC107"/>
<path opacity="0.999" fill-rule="evenodd" clip-rule="evenodd" d="M19.4347 20.8871C18.2414 19.8347 16.9921 18.8475 15.6923 17.9299C16.9953 17.0099 17.7862 15.7477 18.0649 14.1433H11.6797V9.70918C15.362 9.67859 19.0427 9.70975 22.7216 9.80266C23.4196 13.5926 22.6134 17.0099 20.3032 20.0543C20.0285 20.3463 19.7375 20.6243 19.4347 20.8871Z" fill="#448AFF"/>
<path opacity="0.993" fill-rule="evenodd" clip-rule="evenodd" d="M5.10689 14.1431C6.50052 17.6068 9.0555 19.2236 12.7718 18.9936C13.8151 18.8729 14.8153 18.5084 15.6917 17.9297C16.9924 18.8497 18.2399 19.8355 19.4341 20.8869C17.5419 22.5872 15.1293 23.5961 12.59 23.749C12.0131 23.7951 11.4334 23.7951 10.8565 23.749C6.53054 23.2391 3.33653 21.0535 1.27441 17.1921L5.10689 14.1431Z" fill="#43A047"/>
</svg>
