<svg width="28" height="28" viewBox="0 0 28 28" fill="none" xmlns="http://www.w3.org/2000/svg">
<mask id="mask0_248_1329" style="mask-type:luminance" maskUnits="userSpaceOnUse" x="0" y="0" width="28" height="28">
<path d="M28 0H0V28H28V0Z" fill="white"/>
</mask>
<g mask="url(#mask0_248_1329)">
<path d="M23.0416 19.565L21.7816 19.8567C20.8833 20.0667 20.1716 20.7667 19.9616 21.665L19.6699 22.925C19.6466 23.0534 19.4483 23.0534 19.4133 22.925L19.1216 21.665C18.9116 20.7667 18.2116 20.055 17.3133 19.845L16.0533 19.5534C15.9249 19.53 15.9249 19.3317 16.0533 19.2967L17.3133 19.005C18.2116 18.795 18.9233 18.095 19.1333 17.1967L19.4249 15.9367C19.4483 15.8084 19.6466 15.8084 19.6816 15.9367L19.9733 17.1967C20.1833 18.095 20.8833 18.8067 21.7816 19.0167L23.0416 19.3084C23.1699 19.3317 23.1699 19.53 23.0416 19.565Z" stroke="black" stroke-width="2" stroke-miterlimit="10"/>
<path d="M14.0003 14C17.2203 14 19.8337 11.3867 19.8337 8.16671C19.8337 4.94671 17.2203 2.33337 14.0003 2.33337C10.7803 2.33337 8.16699 4.94671 8.16699 8.16671C8.16699 11.3867 10.7803 14 14.0003 14Z" stroke="black" stroke-width="2" stroke-linecap="round" stroke-linejoin="round"/>
<path d="M14.0002 17.5C8.47018 17.5 3.97852 21.1517 3.97852 25.6667" stroke="black" stroke-width="2" stroke-linecap="round" stroke-linejoin="round"/>
<path d="M24.0223 25.6668C24.0223 24.6051 23.7773 23.6018 23.3223 22.6685" stroke="black" stroke-width="2" stroke-linecap="round" stroke-linejoin="round"/>
</g>
</svg>
