<svg width="15" height="17" viewBox="0 0 15 17" fill="none" xmlns="http://www.w3.org/2000/svg">
<path fill-rule="evenodd" clip-rule="evenodd" d="M12.4994 1.25C12.831 1.25 13.1489 1.3817 13.3833 1.61612C13.6178 1.85054 13.7494 2.16848 13.7494 2.5V13.75C13.7494 14.0815 13.6178 14.3995 13.3833 14.6339C13.1489 14.8683 12.831 15 12.4994 15H7.49945C7.16793 15 6.84999 14.8683 6.61557 14.6339C6.38115 14.3995 6.24945 14.0815 6.24945 13.75V10.625C6.24945 10.4592 6.1836 10.3003 6.06639 10.1831C5.94918 10.0658 5.79021 10 5.62445 10C5.45869 10 5.29972 10.0658 5.18251 10.1831C5.0653 10.3003 4.99945 10.4592 4.99945 10.625V13.75C4.99945 14.413 5.26284 15.0489 5.73168 15.5178C6.20052 15.9866 6.83641 16.25 7.49945 16.25H12.4994C13.1625 16.25 13.7984 15.9866 14.2672 15.5178C14.7361 15.0489 14.9994 14.413 14.9994 13.75V2.5C14.9994 1.83696 14.7361 1.20107 14.2672 0.732233C13.7984 0.263392 13.1625 0 12.4994 0H7.49945C6.83641 0 6.20052 0.263392 5.73168 0.732233C5.26284 1.20107 4.99945 1.83696 4.99945 2.5V5.625C4.99945 5.79076 5.0653 5.94973 5.18251 6.06694C5.29972 6.18415 5.45869 6.25 5.62445 6.25C5.79021 6.25 5.94918 6.18415 6.06639 6.06694C6.1836 5.94973 6.24945 5.79076 6.24945 5.625V2.5C6.24945 2.16848 6.38115 1.85054 6.61557 1.61612C6.84999 1.3817 7.16793 1.25 7.49945 1.25H12.4994ZM3.56612 5.18333C3.44893 5.06629 3.29008 5.00055 3.12445 5.00055C2.95882 5.00055 2.79997 5.06629 2.68278 5.18333L0.182783 7.68333C0.0657414 7.80052 0 7.95937 0 8.125C0 8.29063 0.0657414 8.44948 0.182783 8.56667L2.68278 11.0667C2.80126 11.1771 2.95797 11.2372 3.11989 11.2343C3.2818 11.2315 3.43629 11.1659 3.5508 11.0514C3.66531 10.9368 3.73091 10.7824 3.73376 10.6204C3.73662 10.4585 3.67652 10.3018 3.56612 10.1833L2.13278 8.75H11.2494C11.4152 8.75 11.5742 8.68415 11.6914 8.56694C11.8086 8.44973 11.8744 8.29076 11.8744 8.125C11.8744 7.95924 11.8086 7.80027 11.6914 7.68306C11.5742 7.56585 11.4152 7.5 11.2494 7.5H2.13278L3.56612 6.06667C3.68316 5.94948 3.7489 5.79063 3.7489 5.625C3.7489 5.45937 3.68316 5.30052 3.56612 5.18333Z" fill="#343434"/>
</svg>
