<svg width="36" height="36" viewBox="0 0 36 36" fill="none" xmlns="http://www.w3.org/2000/svg">
<path d="M18 28.125C20.3869 28.125 22.6761 27.1768 24.364 25.489C26.0518 23.8011 27 21.5119 27 19.125V16.875M18 28.125C15.6131 28.125 13.3239 27.1768 11.636 25.489C9.94821 23.8011 9 21.5119 9 19.125V16.875M18 28.125V33.75M12.375 33.75H23.625M18 23.625C16.8065 23.625 15.6619 23.1509 14.818 22.307C13.9741 21.4631 13.5 20.3185 13.5 19.125V6.75C13.5 5.55653 13.9741 4.41193 14.818 3.56802C15.6619 2.72411 16.8065 2.25 18 2.25C19.1935 2.25 20.3381 2.72411 21.182 3.56802C22.0259 4.41193 22.5 5.55653 22.5 6.75V19.125C22.5 20.3185 22.0259 21.4631 21.182 22.307C20.3381 23.1509 19.1935 23.625 18 23.625Z" stroke="url(#paint0_linear_106_871)" stroke-width="3" stroke-linecap="round" stroke-linejoin="round"/>
<defs>
<linearGradient id="paint0_linear_106_871" x1="9" y1="3.10511" x2="30.1884" y2="5.57822" gradientUnits="userSpaceOnUse">
<stop stop-color="#0575E6"/>
<stop offset="1" stop-color="#021B79"/>
</linearGradient>
</defs>
</svg>
