<svg width="60" height="65" viewBox="0 0 60 65" fill="none" xmlns="http://www.w3.org/2000/svg">
<path d="M48.2423 27.9598L32.1966 24.7369V8.37146C32.1966 4.28618 29.3095 0.73176 25.4805 0.106572C23.1193 -0.276087 20.7366 0.381439 18.9361 1.92285C17.133 3.46157 16.0973 5.70632 16.0973 8.08312V39.2509L13.5348 37.2056C10.2935 34.1659 5.19803 34.341 2.17136 37.591C-0.860683 40.8462 -0.69164 45.9717 2.51749 48.9926L12.4723 58.6318C16.4944 62.5257 21.7884 64.6708 27.3749 64.6708H45.6154C53.0131 64.6708 59.0315 58.6264 59.0315 51.1969V41.1696C59.0315 34.7695 54.4969 29.2102 48.245 27.9571L48.2423 27.9598ZM53.6624 51.1996C53.6624 55.6567 50.0508 59.2839 45.6127 59.2839H27.3722C23.181 59.2839 19.2125 57.6751 16.1966 54.754L6.21229 45.0878C5.13364 44.0692 5.0746 42.358 6.08886 41.272C6.57721 40.7492 7.23997 40.4447 7.95102 40.4232C7.98322 40.4232 8.01273 40.4232 8.04493 40.4232C8.72379 40.4232 9.37581 40.6846 10.0278 41.2855L17.1062 46.9445C17.9138 47.5886 19.0139 47.7206 19.945 47.2625C20.8734 46.8152 21.461 45.8693 21.461 44.8372V8.08312C21.461 7.29085 21.8072 6.54171 22.4082 6.027C23.02 5.50691 23.8035 5.29133 24.6138 5.42607C25.8562 5.62817 26.8275 6.92167 26.8275 8.37146V26.9466C26.8275 28.232 27.7317 29.3368 28.9848 29.5875L47.1878 33.2416C50.9362 33.9934 53.6597 37.3322 53.6597 41.1696V51.1969L53.6624 51.1996Z" fill="white"/>
</svg>
