<svg width="52" height="37" viewBox="0 0 52 37" fill="none" xmlns="http://www.w3.org/2000/svg">
<g filter="url(#filter0_d_51_1579)">
<rect width="52" height="37" rx="10" fill="#0575E6"/>
</g>
<path d="M24.75 12.5H34.5M24.75 12.5C24.75 12.8978 24.592 13.2794 24.3107 13.5607C24.0294 13.842 23.6478 14 23.25 14C22.8522 14 22.4706 13.842 22.1893 13.5607C21.908 13.2794 21.75 12.8978 21.75 12.5M24.75 12.5C24.75 12.1022 24.592 11.7206 24.3107 11.4393C24.0294 11.158 23.6478 11 23.25 11C22.8522 11 22.4706 11.158 22.1893 11.4393C21.908 11.7206 21.75 12.1022 21.75 12.5M21.75 12.5H18M24.75 24.5H34.5M24.75 24.5C24.75 24.8978 24.592 25.2794 24.3107 25.5607C24.0294 25.842 23.6478 26 23.25 26C22.8522 26 22.4706 25.842 22.1893 25.5607C21.908 25.2794 21.75 24.8978 21.75 24.5M24.75 24.5C24.75 24.1022 24.592 23.7206 24.3107 23.4393C24.0294 23.158 23.6478 23 23.25 23C22.8522 23 22.4706 23.158 22.1893 23.4393C21.908 23.7206 21.75 24.1022 21.75 24.5M21.75 24.5H18M30.75 18.5H34.5M30.75 18.5C30.75 18.8978 30.592 19.2794 30.3107 19.5607C30.0294 19.842 29.6478 20 29.25 20C28.8522 20 28.4706 19.842 28.1893 19.5607C27.908 19.2794 27.75 18.8978 27.75 18.5M30.75 18.5C30.75 18.1022 30.592 17.7206 30.3107 17.4393C30.0294 17.158 29.6478 17 29.25 17C28.8522 17 28.4706 17.158 28.1893 17.4393C27.908 17.7206 27.75 18.1022 27.75 18.5M27.75 18.5H18" stroke="white" stroke-width="1.5" stroke-linecap="round" stroke-linejoin="round"/>
<defs>
<filter id="filter0_d_51_1579" x="0" y="0" width="52" height="37" filterUnits="userSpaceOnUse" color-interpolation-filters="sRGB">
<feFlood flood-opacity="0" result="BackgroundImageFix"/>
<feColorMatrix in="SourceAlpha" type="matrix" values="0 0 0 0 0 0 0 0 0 0 0 0 0 0 0 0 0 0 127 0" result="hardAlpha"/>
<feOffset/>
<feComposite in2="hardAlpha" operator="out"/>
<feColorMatrix type="matrix" values="0 0 0 0 0 0 0 0 0 0.253628 0 0 0 0 0.509521 0 0 0 1 0"/>
<feBlend mode="normal" in2="BackgroundImageFix" result="effect1_dropShadow_51_1579"/>
<feBlend mode="normal" in="SourceGraphic" in2="effect1_dropShadow_51_1579" result="shape"/>
</filter>
</defs>
</svg>
