<svg width="20" height="18" viewBox="0 0 20 18" fill="none" xmlns="http://www.w3.org/2000/svg">
<path d="M9.395 17.1638L9.388 17.1609L9.366 17.1494C9.23729 17.0816 9.10961 17.0119 8.983 16.9405C7.46081 16.0737 6.03827 15.0554 4.739 13.9026C2.438 11.8451 0 8.79182 0 5.03132C0 2.22532 2.464 6.79949e-05 5.438 6.79949e-05C6.26475 -0.00381271 7.08178 0.170978 7.82832 0.51144C8.57486 0.851902 9.2317 1.34927 9.75 1.96657C10.2684 1.34915 10.9254 0.851698 11.6721 0.511231C12.4189 0.170764 13.2361 -0.00395701 14.063 6.79949e-05C17.036 6.79949e-05 19.5 2.22532 19.5 5.03132C19.5 8.79278 17.062 11.846 14.761 13.9017C13.4617 15.0545 12.0392 16.0728 10.517 16.9396C10.3904 17.0113 10.2627 17.0813 10.134 17.1494L10.112 17.1609L10.105 17.1648L10.102 17.1657C9.99356 17.2208 9.87271 17.2496 9.75 17.2496C9.62729 17.2496 9.50644 17.2208 9.398 17.1657L9.395 17.1638Z" fill="white"/>
</svg>
