<svg width="24" height="24" viewBox="0 0 24 24" fill="none" xmlns="http://www.w3.org/2000/svg">
<path fill-rule="evenodd" clip-rule="evenodd" d="M3 12C3 7.02923 7.02923 3 12 3C16.9708 3 21 7.02923 21 12C21 16.9708 16.9708 21 12 21C7.02923 21 3 16.9708 3 12ZM13.5028 8.38431C12.6812 7.66708 11.3188 7.66708 10.4982 8.38431C10.36 8.50525 10.1794 8.56633 9.99614 8.55413C9.8129 8.54192 9.64202 8.45743 9.52108 8.31923C9.40014 8.18103 9.33905 8.00045 9.35126 7.81721C9.36346 7.63398 9.44796 7.46309 9.58615 7.34215C10.9283 6.168 13.0717 6.168 14.4138 7.34215C15.8105 8.56431 15.8105 10.5895 14.4138 11.8117C14.1803 12.0154 13.9204 12.1867 13.6412 12.3212C13.0172 12.624 12.6923 13.0357 12.6923 13.3846V14.0769C12.6923 14.2605 12.6194 14.4366 12.4895 14.5665C12.3597 14.6963 12.1836 14.7692 12 14.7692C11.8164 14.7692 11.6403 14.6963 11.5105 14.5665C11.3806 14.4366 11.3077 14.2605 11.3077 14.0769V13.3846C11.3077 12.204 12.2862 11.4397 13.0385 11.0751C13.2065 10.9938 13.3625 10.8914 13.5028 10.7695C14.2689 10.0985 14.2689 9.05538 13.5028 8.38431ZM12 17.5385C12.1836 17.5385 12.3597 17.4655 12.4895 17.3357C12.6194 17.2059 12.6923 17.0298 12.6923 16.8462C12.6923 16.6625 12.6194 16.4865 12.4895 16.3566C12.3597 16.2268 12.1836 16.1538 12 16.1538C11.8164 16.1538 11.6403 16.2268 11.5105 16.3566C11.3806 16.4865 11.3077 16.6625 11.3077 16.8462C11.3077 17.0298 11.3806 17.2059 11.5105 17.3357C11.6403 17.4655 11.8164 17.5385 12 17.5385Z" fill="#343434"/>
</svg>
