<svg width="29" height="29" viewBox="0 0 29 29" fill="none" xmlns="http://www.w3.org/2000/svg">
<path d="M15.4063 18.125L19.0313 14.5M19.0313 14.5L15.4063 10.875M19.0313 14.5H9.96875M25.375 14.5C25.375 15.9281 25.0937 17.3423 24.5472 18.6617C24.0007 19.9811 23.1996 21.1799 22.1898 22.1898C21.1799 23.1996 19.9811 24.0007 18.6617 24.5472C17.3423 25.0937 15.9281 25.375 14.5 25.375C13.0719 25.375 11.6577 25.0937 10.3383 24.5472C9.0189 24.0007 7.82005 23.1996 6.81021 22.1898C5.80038 21.1799 4.99933 19.9811 4.45281 18.6617C3.90629 17.3423 3.625 15.9281 3.625 14.5C3.625 11.6158 4.77076 8.84967 6.81021 6.81021C8.84967 4.77076 11.6158 3.625 14.5 3.625C17.3842 3.625 20.1503 4.77076 22.1898 6.81021C24.2292 8.84967 25.375 11.6158 25.375 14.5Z" stroke="white" stroke-width="1.5" stroke-linecap="round" stroke-linejoin="round"/>
</svg>
