<svg width="17" height="24" viewBox="0 0 17 24" fill="none" xmlns="http://www.w3.org/2000/svg">
<path d="M8.43901 17.6629V12.281M8.43901 12.281C8.95769 12.2814 9.47434 12.2163 9.97671 12.0872M8.43901 12.281C7.92033 12.2814 7.40368 12.2163 6.90131 12.0872M10.7456 19.7532C9.22148 20.0426 7.65654 20.0426 6.13246 19.7532M9.97671 22.1961C8.95437 22.3031 7.92365 22.3031 6.90131 22.1961M10.7456 17.6629V17.4661C10.7456 16.4584 11.4201 15.5973 12.2915 15.0919C13.7553 14.2441 14.8988 12.9373 15.5446 11.3738C16.1904 9.81027 16.3026 8.07741 15.8637 6.4437C15.4248 4.80999 14.4594 3.36663 13.117 2.33727C11.7746 1.3079 10.1301 0.75 8.4385 0.75C6.74686 0.75 5.10244 1.3079 3.76003 2.33727C2.41763 3.36663 1.45218 4.80999 1.01329 6.4437C0.574388 8.07741 0.686542 9.81027 1.33237 11.3738C1.9782 12.9373 3.12164 14.2441 4.58554 15.0919C5.4569 15.5973 6.13246 16.4584 6.13246 17.4661V17.6629" stroke="black" stroke-width="1.5" stroke-linecap="round" stroke-linejoin="round"/>
</svg>
