<svg width="16" height="18" viewBox="0 0 16 18" fill="none" xmlns="http://www.w3.org/2000/svg">
<path fill-rule="evenodd" clip-rule="evenodd" d="M10.3245 0.0813043C10.4546 0.151156 10.5567 0.261025 10.6146 0.393383C10.6724 0.525741 10.6826 0.672963 10.6436 0.811565L8.87289 7.07107H15.3334C15.4633 7.07108 15.5904 7.10769 15.699 7.17641C15.8076 7.24512 15.8931 7.34295 15.9448 7.45786C15.9966 7.57277 16.0124 7.69976 15.9903 7.82321C15.9682 7.94666 15.9092 8.0612 15.8205 8.15275L6.4871 17.7953C6.38545 17.9005 6.25012 17.9699 6.10277 17.9922C5.95542 18.0145 5.80456 17.9886 5.67431 17.9185C5.54407 17.8484 5.44197 17.7382 5.38434 17.6055C5.32671 17.4729 5.31688 17.3254 5.35643 17.1867L7.12711 10.9281H0.666628C0.536706 10.9281 0.409618 10.8915 0.300986 10.8227C0.192354 10.754 0.106912 10.6562 0.0551642 10.5413C0.00341616 10.4264 -0.012383 10.2994 0.00970905 10.1759C0.0318011 10.0525 0.0908213 9.93795 0.179515 9.8464L9.5129 0.203872C9.61456 0.0990004 9.74969 0.0299568 9.89677 0.00774378C10.0439 -0.0144693 10.1944 0.0114265 10.3245 0.0813043Z" fill="#343434"/>
</svg>
