<svg width="36" height="46" viewBox="0 0 36 46" fill="none" xmlns="http://www.w3.org/2000/svg">
<g clip-path="url(#clip0_152_988)">
<path d="M26.8189 33.0105H9.23242V43.0685H26.8189V33.0105Z" fill="#423B1D"/>
<path d="M29.2181 43.7H6.83398V46.0002H29.2181V43.7Z" fill="#423B1D"/>
<path d="M9.23289 43.0684L6.83398 43.6997H29.2181C29.2258 43.6997 26.8192 43.0684 26.8192 43.0684H9.23289Z" fill="#534C2A"/>
<path d="M24.1902 33.0112H26.823L26.7535 43.0725H9.23633V42.039C9.23633 42.039 24.0594 44.3329 24.1902 33.0112Z" fill="#23200D"/>
<path d="M25.8703 43.7024H29.221L29.1326 46H6.83887V45.764C6.83887 45.764 25.7037 46.2878 25.8703 43.7025V43.7024Z" fill="#23200D"/>
<path d="M25.5283 43.0725H26.7533C26.7533 43.0725 29.2198 43.7026 29.2206 43.7026C29.2214 43.7026 25.8699 43.7026 25.8699 43.7026L25.5283 43.0725Z" fill="#23200D"/>
<path d="M21.4387 35.2668H15.1758V40.5043H21.4387V35.2668Z" fill="#141104"/>
<path d="M14.8252 34.7375L21.1063 34.8797V40.1753H14.8252V34.7375Z" fill="#FFF300"/>
<path d="M16.9498 34.7866C16.8988 34.8952 14.8262 40.176 14.8262 40.176L14.8309 34.7473L16.9498 34.7866Z" fill="#FFDD00"/>
<path d="M18.6686 34.8127L20.5709 34.865L18.6301 40.1714H16.5156L18.6686 34.8127Z" fill="#FFC300"/>
<path d="M21.1079 36.958L19.8096 40.1714H21.1069L21.1079 36.958Z" fill="#FFDD00"/>
<path d="M16.2528 34.7698C16.2209 34.8521 14.8223 38.4341 14.8223 38.4341L14.8251 34.7375L16.2528 34.7698Z" fill="#FFC300"/>
<path d="M21.1067 39.9475H14.8223V40.1715H21.1067V39.9475Z" fill="#FF8D00"/>
<path d="M18.2953 34.8159L16.1228 39.9474H15.8887L18.1015 34.8159H18.2953Z" fill="#FFDD00"/>
<path d="M21.988 33.0374H14.2324V34.9955H21.988V33.0374Z" fill="#423B1D"/>
<path d="M14.9102 24.0774H21.0345V25.5768C21.0345 25.7782 20.8667 25.9415 20.6602 25.9415H15.2844C15.0778 25.9415 14.9102 25.778 14.9102 25.5768V24.0774Z" fill="#E8E8E8"/>
<path d="M20.7375 31.8049L20.3515 30.8456C19.9163 29.7642 19.6908 28.5866 19.6908 27.3946V25.9265H16.3753V27.207C16.3753 28.5192 16.1021 29.8122 15.5786 30.9776L15.207 31.8048H20.7375V31.8049Z" fill="#E8E8E8"/>
<path d="M15.211 31.7974H20.7338L21.928 32.4137H14.043L15.211 31.7974Z" fill="#F2F2F2"/>
<path d="M14.0426 32.4138L13.5908 33.0002H22.4149L21.9276 32.4138H14.0426Z" fill="#F4F4F4"/>
<path d="M19.1178 24.0723C19.2455 24.5503 19.298 25.2533 19.0273 25.9256L19.8786 25.9366C20.5255 25.9366 21.05 25.4254 21.05 24.7949V24.0723H19.1178Z" fill="#878686"/>
<path d="M19.0359 25.9292C18.9087 26.8332 18.5002 30.0392 18.8297 31.8076H20.7663L20.3803 30.8483C19.945 29.7669 19.7196 28.5893 19.7196 27.3973V25.9292H19.036H19.0359Z" fill="#878686"/>
<path d="M18.8301 31.8076H20.7666L21.9277 32.4138L22.415 33.0002H19.3057L19.0718 32.4138L18.8301 31.8076Z" fill="#878686"/>
<path d="M19.8047 31.813L20.7707 31.8093L21.9318 32.4157L22.4191 33.0019L20.6621 33.001L20.4075 32.4005L19.8047 31.813Z" fill="#707070"/>
<path d="M19.4294 25.9386C19.2151 27.8706 19.2018 30.0506 19.8045 31.826L20.7669 31.8113L20.3809 30.852C19.9457 29.7705 19.7202 28.5929 19.7202 27.401V25.9329L19.4294 25.9386Z" fill="#707070"/>
<path d="M20.1664 24.0848C20.2941 24.5629 20.3004 25.338 19.4297 25.9385L19.8645 25.947C20.5115 25.947 21.0359 25.4359 21.0359 24.8054V24.0828L20.1664 24.0848Z" fill="#707070"/>
<path d="M17.3959 31.8129C18.0967 30.638 17.8702 25.782 17.8702 25.782C17.4633 25.4485 17.3291 24.6664 17.288 24.0688H15.4943V24.7915C15.4943 25.422 15.9165 25.9331 16.4371 25.9331H16.6737V27.1986C16.6737 28.5108 16.4537 29.8038 16.0325 30.9692L15.7359 31.7893L14.7962 32.4054L14.4326 32.9918H16.8824C17.0029 32.6068 17.1688 32.1936 17.3958 31.8132L17.3959 31.8129Z" fill="#BCBCBC"/>
<path d="M16.375 25.9265L19.7199 25.9298L19.7059 26.0692H16.375V25.9265Z" fill="#727272"/>
<path d="M10.6482 21.6035C10.6398 21.6035 10.6315 21.6035 10.6231 21.6035L10.6413 19.6418C10.5555 19.6749 10.4222 19.7517 10.3199 19.902C10.1816 20.1053 10.1966 20.3017 10.2128 20.3545C10.2008 20.3153 10.1115 20.0845 9.52986 19.3914C9.08617 18.8626 8.49584 18.2265 7.81236 17.4899C6.27566 15.8339 4.36325 13.7731 2.81194 11.5202C1.94177 10.2566 1.29221 9.09259 0.826205 7.96192C0.278011 6.63163 0 5.3569 0 4.17334C0 3.50889 0.139593 2.89251 0.414733 2.34109C0.671088 1.82757 1.03899 1.38066 1.50825 1.01284C1.92886 0.68316 2.4173 0.42735 2.95988 0.252657C3.46268 0.0906778 3.98674 0.00574691 4.51784 0.000279803C5.36701 -0.00862014 6.16869 0.195061 6.77533 0.573436C7.53721 1.04857 7.96734 1.7673 7.98665 2.59716C8.0027 3.28665 7.78913 3.85001 7.35196 4.27149C6.9958 4.6149 6.57572 4.784 6.23809 4.91979C6.0968 4.97662 5.86119 5.07147 5.81253 5.12423C5.80888 5.13224 5.78657 5.18615 5.7897 5.32461C5.79218 5.43319 5.95643 5.563 6.05427 5.63077C6.23639 5.75689 6.58746 5.94532 7.22646 6.12726C8.20204 6.40506 9.20945 6.4858 9.2195 6.48656L9.04977 8.45917C9.00085 8.45548 7.83779 8.36419 6.6523 8.03108C5.9032 7.82053 5.28886 7.55303 4.82625 7.23606C3.90807 6.60671 3.70194 5.87195 3.69059 5.36644C3.67559 4.69398 3.88785 4.14371 4.32163 3.73088C4.67087 3.39853 5.08286 3.23274 5.41384 3.09962C5.58005 3.03275 5.7867 2.94959 5.85049 2.88806C5.86732 2.87178 5.89107 2.79245 5.88754 2.64038C5.87606 2.14517 5.07595 1.97403 4.5408 1.97925C3.6341 1.98865 2.09963 2.46124 2.09963 4.17334C2.09963 8.3277 6.48857 13.0573 9.39275 16.187C10.2347 17.0943 10.9619 17.878 11.465 18.5178C11.766 18.9005 11.968 19.2067 12.101 19.4814C12.341 19.9776 12.3665 20.4267 12.1768 20.8162C12.033 21.1113 11.6437 21.6035 10.6483 21.6036L10.6482 21.6035Z" fill="#E8E8E8"/>
<path d="M18.0092 24.5811C19.1782 24.5494 20.168 24.448 20.9829 24.1895L21.0394 24.072H14.915V24.2418C15.4982 24.4505 16.5819 24.6199 18.0093 24.5812L18.0092 24.5811Z" fill="#727272"/>
<path d="M25.3514 21.6035C25.3597 21.6035 25.2606 21.5787 25.269 21.5786L25.3583 19.6417C25.444 19.6747 25.5773 19.7515 25.6796 19.9018C25.8179 20.1051 25.8029 20.3016 25.7867 20.3543C25.7987 20.3152 25.8881 20.0844 26.4697 19.3912C26.9134 18.8624 27.5037 18.2263 28.1872 17.4898C29.7239 15.8338 31.6363 13.7729 33.1876 11.5201C34.0578 10.2564 34.7073 9.09246 35.1733 7.96179C35.7215 6.6315 35.9995 5.3569 35.9995 4.17321C35.9995 3.50877 35.8599 2.89238 35.5848 2.34097C35.3284 1.82744 34.9605 1.38053 34.4913 1.01271C34.0707 0.683033 33.5822 0.427223 33.0396 0.25253C32.5369 0.0906778 32.0127 0.00574691 31.4817 0.000279803C30.6325 -0.00862014 29.8308 0.195061 29.2242 0.573436C28.4623 1.04857 28.0322 1.7673 28.0129 2.59716C27.9968 3.28665 28.2104 3.85001 28.6476 4.27149C29.0037 4.6149 29.4238 4.784 29.7614 4.91979C29.9027 4.97662 30.1383 5.07147 30.187 5.12423C30.1907 5.13224 30.213 5.18615 30.2098 5.32461C30.2074 5.43319 30.0431 5.563 29.9453 5.63077C29.7631 5.75689 29.4121 5.94532 28.7731 6.12726C27.7975 6.40506 26.7901 6.4858 26.78 6.48656L26.9498 8.45917C26.9987 8.45548 28.1617 8.36419 29.3472 8.03108C30.0963 7.82053 30.7107 7.55303 31.1733 7.23606C32.0915 6.60671 32.2976 5.87195 32.3089 5.36644C32.3239 4.69398 32.1117 4.14371 31.6779 3.73088C31.3287 3.39853 30.9167 3.23274 30.5857 3.09962C30.4195 3.03275 30.2128 2.94959 30.149 2.88806C30.1322 2.87178 30.1085 2.79245 30.112 2.64038C30.1235 2.14517 30.9236 1.97403 31.4587 1.97925C32.3654 1.98865 33.8999 2.46124 33.8999 4.17334C33.8999 8.3277 29.511 13.0573 26.6068 16.187C25.7648 17.0943 25.0376 17.878 24.5345 18.5178C24.2336 18.9005 24.0315 19.2067 23.8986 19.4814C23.6585 19.9776 23.6331 20.4267 23.8228 20.8162C23.9665 21.1113 24.3558 21.6035 25.3512 21.6036L25.3514 21.6035Z" fill="#BCBCBC"/>
<path d="M29.9455 5.63077C29.7635 5.75689 29.4123 5.94544 28.7733 6.12726C27.7977 6.40506 26.7903 6.4858 26.7803 6.48656L26.95 8.45917C26.9989 8.45548 28.162 8.36419 29.3475 8.03108C29.7799 7.90953 30.1674 7.76891 30.5067 7.61088C30.8628 6.31746 31.3157 5.06308 31.8177 3.8776C31.774 3.827 31.7276 3.77805 31.6781 3.73088C31.3289 3.39853 30.9169 3.23287 30.5859 3.09962C30.4197 3.03275 30.2131 2.94959 30.1493 2.88806C30.1325 2.87191 30.1087 2.79245 30.1122 2.64038C30.1237 2.14517 30.9238 1.97403 31.459 1.97925C31.7843 1.98255 32.1905 2.04561 32.5775 2.20416C32.8783 1.58307 33.1869 0.988047 33.4953 0.424044C33.3482 0.360346 33.1963 0.303005 33.0399 0.25253C32.5371 0.0906778 32.0129 0.00574691 31.4819 0.000279803C30.6328 -0.00862014 29.8311 0.195061 29.2244 0.573436C28.4626 1.04857 28.0324 1.7673 28.0131 2.59716C27.9971 3.28665 28.2106 3.85001 28.6478 4.27149C29.004 4.6149 29.4241 4.784 29.7617 4.91979C29.903 4.97662 30.1386 5.07147 30.1872 5.12423C30.1909 5.13224 30.2132 5.18615 30.2101 5.32461C30.2076 5.43319 30.0433 5.563 29.9455 5.63077Z" fill="#999898"/>
<path d="M29.7175 12.6907C28.6584 13.976 27.5537 15.1665 26.6068 16.187C25.7648 17.0942 25.0376 17.8779 24.5345 18.5177C24.2336 18.9004 24.0315 19.2067 23.8986 19.4813C23.6585 19.9776 23.6331 20.4266 23.8228 20.8162C23.9665 21.1113 24.3558 21.6035 25.3512 21.6036C25.3596 21.6036 25.2607 21.5788 25.2692 21.5787L25.3581 19.6418C25.4439 19.6748 25.5772 19.7516 25.6795 19.9019C25.8178 20.1052 25.8027 20.3017 25.7866 20.3544C25.7986 20.3153 25.8879 20.0845 26.4695 19.3913C26.9132 18.8625 27.5036 18.2264 28.187 17.4899C28.7281 16.9068 29.3158 16.2734 29.9177 15.5993C29.7561 14.6366 29.6954 13.6633 29.7173 12.6907H29.7175Z" fill="#999898"/>
<path d="M19.8484 24.2353L17.7814 24.2939L16.0936 24.2417C12.7604 24.2417 9.92834 21.8595 9.53331 19.1087C9.53331 19.1087 9.04487 9.12586 7.48926 4.99146H28.4541C26.4282 11.1254 26.392 19.0485 26.392 19.0485C25.9971 21.7995 23.1817 24.2354 19.8484 24.2354V24.2353Z" fill="#E8E8E8"/>
<path d="M18.7538 5.05141C20.068 10.3644 20.1099 21.6329 17.8751 24.3068C17.8469 24.3406 23.0455 24.7246 23.7019 22.3879C23.7019 22.3879 25.6225 11.1729 28.4621 5.03882C28.4621 5.03882 23.7503 5.05141 18.7538 5.05141Z" fill="#9E9B9B"/>
<path d="M21.5326 5.03895C22.4702 10.352 22.629 21.4035 21.0346 24.0775C21.0145 24.1113 20.9938 24.1447 20.9727 24.1779C23.7983 23.7094 26.0472 21.52 26.3969 19.0834C26.3969 19.0834 26.4331 11.1603 28.459 5.02637C28.459 5.02637 25.0974 5.03895 21.5326 5.03895Z" fill="#878686"/>
<path d="M25.3093 5.03882C25.5543 10.3278 26.0727 21.2521 21.0346 24.0899C20.9999 24.1095 20.9938 24.1572 20.9727 24.1904C23.8236 23.7395 26.0915 21.5633 26.3969 19.0959C26.3969 19.0959 26.4331 11.1728 28.459 5.03882C28.459 5.03882 28.874 5.03882 25.3092 5.03882H25.3093Z" fill="#707070"/>
<path d="M19.5956 24.2886C16.2623 24.2886 13.9576 21.8229 13.5626 19.046C13.5626 19.046 13.5491 9.29461 11.7006 4.99976C9.57713 4.99976 7.49512 5.03892 7.49512 5.03892C9.05073 9.17332 9.53917 19.1561 9.53917 19.1561C9.93407 21.9071 12.7661 24.2892 16.0995 24.2892L17.7873 24.3415L19.6204 24.2896L19.5956 24.2889V24.2886Z" fill="#BCBCBC"/>
<path d="M17.5239 24.244C14.1907 24.244 11.3587 21.8297 10.9636 19.0416C10.9636 19.0416 10.4951 9.33619 9.01428 4.99976H7.48633C9.04194 9.13416 9.53038 19.117 9.53038 19.117C9.92528 21.8679 12.7573 24.25 16.0907 24.25L17.7785 24.3022L18.6181 24.2784L17.5239 24.2441V24.244Z" fill="#919090"/>
<path d="M15.0048 14.6521H14.4951C15.2111 20.5258 15.9766 20.4296 15.9766 20.4296C15.45 19.0054 15.1601 16.8445 15.005 14.6521H15.0048Z" fill="white"/>
<path d="M14.9364 13.524C14.7534 9.95131 14.8849 6.61841 14.8849 6.61841H13.8291C13.9901 9.46766 14.1747 11.729 14.3666 13.524H14.9366H14.9364Z" fill="white"/>
<path d="M15.1729 24.4243L15.5551 24.5014C15.5551 24.5014 15.7814 25.7695 16.1071 25.8472C16.1071 25.8472 15.2924 25.793 15.1729 24.4243Z" fill="white"/>
<path d="M15.2109 31.7974L15.2441 31.7227H20.7314L20.767 31.8113L15.2109 31.7974Z" fill="#727272"/>
<path d="M14.043 32.4138L21.9318 32.4156L21.9862 32.4811H13.9912L14.043 32.4138Z" fill="#727272"/>
<path d="M14.7139 32.3092L15.4476 31.8262L14.8788 32.3514L14.7139 32.3092Z" fill="white"/>
<path d="M4.2825 0.755414C4.60139 0.755414 4.85991 0.67982 4.85991 0.586569C4.85991 0.493319 4.60139 0.417725 4.2825 0.417725C3.9636 0.417725 3.70508 0.493319 3.70508 0.586569C3.70508 0.67982 3.9636 0.755414 4.2825 0.755414Z" fill="white"/>
<path d="M3.12377 1.26724C3.46589 1.16537 3.71779 1.00162 3.68639 0.901492C3.655 0.801365 3.35221 0.802781 3.01009 0.904654C2.66797 1.00653 2.41607 1.17028 2.44746 1.27041C2.47885 1.37053 2.78165 1.36912 3.12377 1.26724Z" fill="white"/>
<path d="M13.2427 6.98413L13.1244 8.35396L12.2969 8.45631L13.1507 8.5331L13.2952 9.92861L13.4265 8.54594L14.3593 8.41791L13.4003 8.32828L13.2427 6.98413Z" fill="white"/>
</g>
<defs>
<clipPath id="clip0_152_988">
<rect width="36" height="46" fill="white"/>
</clipPath>
</defs>
</svg>
