<svg width="28" height="28" viewBox="0 0 28 28" fill="none" xmlns="http://www.w3.org/2000/svg">
<path d="M26.3466 12.2724L25.185 13.4347L14.5726 2.81555L15.7341 1.65332L14.0818 0L4.86337 9.2242L6.51565 10.8775L7.71338 9.67904L12.1853 14.1538L0 26.3467L1.65228 28L13.8376 15.8082L18.3258 20.2993L17.1281 21.4978L18.7804 23.1511L28 13.9269L26.3477 12.2736L26.3466 12.2724ZM20.4152 11.9684L16.8605 15.5253L12.5697 11.2318L16.1244 7.67495L20.4152 11.9684ZM12.9203 4.46887L14.4709 6.02046L10.9163 9.57732L9.36566 8.02572L12.9203 4.46887ZM18.5128 17.1786L22.0674 13.6217L23.5328 15.088L19.9781 18.6448L18.5128 17.1786Z" fill="black"/>
</svg>
