<svg width="28" height="26" viewBox="0 0 28 26" fill="none" xmlns="http://www.w3.org/2000/svg">
<path d="M22.1667 4.72727H18.6667V3.54545C18.6667 2.60514 18.2979 1.70334 17.6415 1.03844C16.9852 0.373538 16.0949 0 15.1667 0H12.8333C11.9051 0 11.0148 0.373538 10.3585 1.03844C9.70208 1.70334 9.33333 2.60514 9.33333 3.54545V4.72727H5.83333C4.28681 4.72915 2.80415 5.35231 1.71059 6.46008C0.617029 7.56784 0.0018525 9.06975 0 10.6364L0 20.0909C0.0018525 21.6575 0.617029 23.1594 1.71059 24.2672C2.80415 25.375 4.28681 25.9981 5.83333 26H22.1667C23.7132 25.9981 25.1959 25.375 26.2894 24.2672C27.383 23.1594 27.9981 21.6575 28 20.0909V10.6364C27.9981 9.06975 27.383 7.56784 26.2894 6.46008C25.1959 5.35231 23.7132 4.72915 22.1667 4.72727ZM11.6667 3.54545C11.6667 3.23202 11.7896 2.93142 12.0084 2.70978C12.2272 2.48815 12.5239 2.36364 12.8333 2.36364H15.1667C15.4761 2.36364 15.7728 2.48815 15.9916 2.70978C16.2104 2.93142 16.3333 3.23202 16.3333 3.54545V4.72727H11.6667V3.54545ZM25.6667 20.0909C25.6667 21.0312 25.2979 21.933 24.6415 22.5979C23.9852 23.2628 23.0949 23.6364 22.1667 23.6364H5.83333C4.90508 23.6364 4.01484 23.2628 3.35846 22.5979C2.70208 21.933 2.33333 21.0312 2.33333 20.0909V10.6364C2.33333 9.69605 2.70208 8.79425 3.35846 8.12935C4.01484 7.46445 4.90508 7.09091 5.83333 7.09091H22.1667C23.0949 7.09091 23.9852 7.46445 24.6415 8.12935C25.2979 8.79425 25.6667 9.69605 25.6667 10.6364V20.0909ZM18.6667 15.3636C18.6667 15.6771 18.5437 15.9777 18.325 16.1993C18.1062 16.4209 17.8094 16.5455 17.5 16.5455H15.1667V18.9091C15.1667 19.2225 15.0437 19.5231 14.825 19.7448C14.6062 19.9664 14.3094 20.0909 14 20.0909C13.6906 20.0909 13.3938 19.9664 13.175 19.7448C12.9562 19.5231 12.8333 19.2225 12.8333 18.9091V16.5455H10.5C10.1906 16.5455 9.89383 16.4209 9.67504 16.1993C9.45625 15.9777 9.33333 15.6771 9.33333 15.3636C9.33333 15.0502 9.45625 14.7496 9.67504 14.528C9.89383 14.3063 10.1906 14.1818 10.5 14.1818H12.8333V11.8182C12.8333 11.5047 12.9562 11.2041 13.175 10.9825C13.3938 10.7609 13.6906 10.6364 14 10.6364C14.3094 10.6364 14.6062 10.7609 14.825 10.9825C15.0437 11.2041 15.1667 11.5047 15.1667 11.8182V14.1818H17.5C17.8094 14.1818 18.1062 14.3063 18.325 14.528C18.5437 14.7496 18.6667 15.0502 18.6667 15.3636Z" fill="black"/>
</svg>
