<svg width="30" height="29" viewBox="0 0 30 29" fill="none" xmlns="http://www.w3.org/2000/svg">
<mask id="mask0_160_1301" style="mask-type:luminance" maskUnits="userSpaceOnUse" x="0" y="0" width="30" height="29">
<path d="M30 0H0V29H30V0Z" fill="white"/>
</mask>
<g mask="url(#mask0_160_1301)">
<path d="M27.5 5.86012V20.2272C27.5 21.3993 26.5125 22.4747 25.3 22.6197L24.9125 22.6681C22.8625 22.9339 19.975 23.7556 17.65 24.698C16.8375 25.0243 15.9375 24.4322 15.9375 23.5743V6.76637C15.9375 6.31929 16.2 5.90845 16.6125 5.69095C18.9 4.4947 22.3625 3.43137 24.7125 3.23804H24.7875C26.2875 3.23804 27.5 4.41012 27.5 5.86012Z" fill="currentColor"/>
<path d="M13.3873 5.69095C11.0998 4.4947 7.6373 3.43137 5.2873 3.23804H5.1998C3.6998 3.23804 2.4873 4.41012 2.4873 5.86012V20.2272C2.4873 21.3993 3.4748 22.4747 4.6873 22.6197L5.0748 22.6681C7.1248 22.9339 10.0123 23.7556 12.3373 24.698C13.1498 25.0243 14.0498 24.4322 14.0498 23.5743V6.76637C14.0498 6.3072 13.7998 5.90845 13.3873 5.69095ZM6.2498 9.3522H9.0623C9.5748 9.3522 9.9998 9.76304 9.9998 10.2585C9.9998 10.766 9.5748 11.1647 9.0623 11.1647H6.2498C5.7373 11.1647 5.3123 10.766 5.3123 10.2585C5.3123 9.76304 5.7373 9.3522 6.2498 9.3522ZM9.9998 14.7897H6.2498C5.7373 14.7897 5.3123 14.391 5.3123 13.8835C5.3123 13.3881 5.7373 12.9772 6.2498 12.9772H9.9998C10.5123 12.9772 10.9373 13.3881 10.9373 13.8835C10.9373 14.391 10.5123 14.7897 9.9998 14.7897Z" fill="currentColor"/>
</g>
</svg>
