<svg width="29" height="29" viewBox="0 0 29 29" fill="none" xmlns="http://www.w3.org/2000/svg">
<mask id="mask0_160_1331" style="mask-type:luminance" maskUnits="userSpaceOnUse" x="0" y="0" width="29" height="29">
<path d="M29 0H0V29H29V0Z" fill="white"/>
</mask>
<g mask="url(#mask0_160_1331)">
<path d="M20.3364 18.8985C21.146 18.3669 22.2093 18.9469 22.2093 19.9135V21.4723C22.2093 23.0069 21.0131 24.6502 19.5752 25.1335L15.7206 26.4144C15.0439 26.6439 13.9443 26.6439 13.2797 26.4144L9.42518 25.1335C7.97518 24.6502 6.79102 23.0069 6.79102 21.4723V19.9014C6.79102 18.9469 7.85435 18.3669 8.65185 18.8864L11.141 20.5056C12.0956 21.146 13.3039 21.4602 14.5122 21.4602C15.7206 21.4602 16.9289 21.146 17.8835 20.5056L20.3364 18.8985Z" fill="currentColor"/>
<path d="M24.1421 7.80649L16.9042 3.05774C15.5992 2.19983 13.4483 2.19983 12.1433 3.05774L4.86918 7.80649C2.5371 9.31691 2.5371 12.7364 4.86918 14.2589L6.80251 15.5156L12.1433 18.9956C13.4483 19.8535 15.5992 19.8535 16.9042 18.9956L22.2087 15.5156L23.8642 14.4281V18.1256C23.8642 18.621 24.275 19.0319 24.7704 19.0319C25.2658 19.0319 25.6767 18.621 25.6767 18.1256V12.1806C26.16 10.6219 25.6646 8.80941 24.1421 7.80649Z" fill="currentColor"/>
</g>
</svg>
