<svg width="28" height="29" viewBox="0 0 28 29" fill="none" xmlns="http://www.w3.org/2000/svg">
<mask id="mask0_160_1309" style="mask-type:luminance" maskUnits="userSpaceOnUse" x="0" y="0" width="28" height="29">
<path d="M28 0H0V29H28V0Z" fill="white"/>
</mask>
<g mask="url(#mask0_160_1309)">
<path d="M13.9997 2.41675C10.943 2.41675 8.45801 4.9905 8.45801 8.15633C8.45801 11.2617 10.803 13.7751 13.8597 13.8838C13.953 13.8717 14.0463 13.8717 14.1163 13.8838C14.1397 13.8838 14.1513 13.8838 14.1747 13.8838C14.1863 13.8838 14.1863 13.8838 14.198 13.8838C17.1847 13.7751 19.5297 11.2617 19.5413 8.15633C19.5413 4.9905 17.0563 2.41675 13.9997 2.41675Z" fill="currentColor"/>
<path d="M19.9262 17.098C16.6712 14.8505 11.3628 14.8505 8.08447 17.098C6.6028 18.1251 5.78613 19.5146 5.78613 21.0009C5.78613 22.4871 6.6028 23.8646 8.0728 24.8796C9.70613 26.0155 11.8528 26.5834 13.9995 26.5834C16.1462 26.5834 18.2928 26.0155 19.9262 24.8796C21.3962 23.8526 22.2128 22.4751 22.2128 20.9767C22.2012 19.4905 21.3962 18.113 19.9262 17.098Z" fill="currentColor"/>
</g>
</svg>
