<svg width="24" height="26" viewBox="0 0 24 26" fill="none" xmlns="http://www.w3.org/2000/svg">
<mask id="mask0_160_1152" style="mask-type:luminance" maskUnits="userSpaceOnUse" x="0" y="0" width="26" height="26">
<path d="M26 0H0V26H26V0Z" fill="white"/>
</mask>
<g mask="url(#mask0_160_1152)">
<path d="M23.2918 11.8084V4.44175C23.2918 2.81675 22.5985 2.16675 20.876 2.16675H16.4993C14.7768 2.16675 14.0835 2.81675 14.0835 4.44175V11.8084C14.0835 13.4334 14.7768 14.0834 16.4993 14.0834H20.876C22.5985 14.0834 23.2918 13.4334 23.2918 11.8084Z" fill="currentColor"/>
<path d="M11.9168 14.1917V21.5584C11.9168 23.1834 11.2235 23.8334 9.501 23.8334H5.12433C3.40183 23.8334 2.7085 23.1834 2.7085 21.5584V14.1917C2.7085 12.5667 3.40183 11.9167 5.12433 11.9167H9.501C11.2235 11.9167 11.9168 12.5667 11.9168 14.1917Z" fill="currentColor"/>
<path d="M23.2918 21.5583V18.525C23.2918 16.9 22.5985 16.25 20.876 16.25H16.4993C14.7768 16.25 14.0835 16.9 14.0835 18.525V21.5583C14.0835 23.1833 14.7768 23.8333 16.4993 23.8333H20.876C22.5985 23.8333 23.2918 23.1833 23.2918 21.5583Z" fill="currentColor"/>
<path d="M11.9168 7.47508V4.44175C11.9168 2.81675 11.2235 2.16675 9.501 2.16675H5.12433C3.40183 2.16675 2.7085 2.81675 2.7085 4.44175V7.47508C2.7085 9.10008 3.40183 9.75008 5.12433 9.75008H9.501C11.2235 9.75008 11.9168 9.10008 11.9168 7.47508Z" fill="currentColor"/>
</g>
</svg>
