<svg width="31" height="31" viewBox="0 0 31 31" fill="none" xmlns="http://www.w3.org/2000/svg">
<mask id="mask0_247_1312" style="mask-type:luminance" maskUnits="userSpaceOnUse" x="0" y="0" width="31" height="31">
<path d="M31 0H0V31H31V0Z" fill="white"/>
</mask>
<g mask="url(#mask0_247_1312)">
<path d="M5.15281 18.9363L3.18949 16.973C2.38866 16.1721 2.38866 14.8546 3.18949 14.0538L5.15281 12.0905C5.48865 11.7546 5.7599 11.0959 5.7599 10.6309V7.85376C5.7599 6.71709 6.6899 5.78712 7.82656 5.78712H10.6036C11.0686 5.78712 11.7274 5.51591 12.0632 5.18007L14.0266 3.21671C14.8274 2.41588 16.1449 2.41588 16.9457 3.21671L18.9091 5.18007C19.2449 5.51591 19.9036 5.78712 20.3686 5.78712H23.1457C24.2824 5.78712 25.2124 6.71709 25.2124 7.85376V10.6309C25.2124 11.0959 25.4836 11.7546 25.8195 12.0905L27.7828 14.0538C28.5836 14.8546 28.5836 16.1721 27.7828 16.973L25.8195 18.9363C25.4836 19.2721 25.2124 19.9309 25.2124 20.3959V23.1728C25.2124 24.3095 24.2824 25.2396 23.1457 25.2396H20.3686C19.9036 25.2396 19.2449 25.5109 18.9091 25.8467L16.9457 27.8101C16.1449 28.6109 14.8274 28.6109 14.0266 27.8101L12.0632 25.8467C11.7274 25.5109 11.0686 25.2396 10.6036 25.2396H7.82656C6.6899 25.2396 5.7599 24.3095 5.7599 23.1728V20.3959C5.7599 19.918 5.48865 19.2592 5.15281 18.9363Z" stroke="black" stroke-width="2.5" stroke-linecap="round" stroke-linejoin="round"/>
<path d="M11.625 19.375L19.375 11.625" stroke="black" stroke-width="2.5" stroke-linecap="round" stroke-linejoin="round"/>
<path d="M18.7227 18.7291H18.7339" stroke="black" stroke-width="2.5" stroke-linecap="round" stroke-linejoin="round"/>
<path d="M12.2646 12.2708H12.2759" stroke="black" stroke-width="2.5" stroke-linecap="round" stroke-linejoin="round"/>
</g>
</svg>
