<svg width="24" height="24" viewBox="0 0 24 24" fill="none" xmlns="http://www.w3.org/2000/svg">
<path d="M13.5 4.06007C13.5 2.72407 11.884 2.05507 10.94 3.00007L6.44001 7.50007H4.50801C3.36701 7.50007 2.19001 8.16407 1.84801 9.40507C1.61598 10.2505 1.49893 11.1234 1.50001 12.0001C1.50001 12.8981 1.62101 13.7681 1.85001 14.5951C2.19101 15.8351 3.36801 16.5001 4.50901 16.5001H6.43901L10.939 21.0001C11.884 21.9451 13.5 21.2761 13.5 19.9401V4.06007ZM18.584 5.10607C18.7246 4.96562 18.9153 4.88673 19.114 4.88673C19.3128 4.88673 19.5034 4.96562 19.644 5.10607C23.452 8.91307 23.452 15.0861 19.644 18.8941C19.5018 19.0266 19.3138 19.0987 19.1195 19.0952C18.9252 19.0918 18.7398 19.0131 18.6024 18.8757C18.465 18.7383 18.3863 18.5529 18.3828 18.3586C18.3794 18.1643 18.4515 17.9762 18.584 17.8341C19.3502 17.068 19.958 16.1585 20.3727 15.1575C20.7873 14.1564 21.0007 13.0836 21.0007 12.0001C21.0007 10.9166 20.7873 9.8437 20.3727 8.8427C19.958 7.84169 19.3502 6.93217 18.584 6.16607C18.4436 6.02545 18.3647 5.83483 18.3647 5.63607C18.3647 5.43732 18.4436 5.2467 18.584 5.10607Z" fill="#9B9B9B"/>
<path d="M15.9322 7.75695C16.0019 7.68725 16.0846 7.63197 16.1756 7.59425C16.2666 7.55652 16.3642 7.53711 16.4627 7.53711C16.5612 7.53711 16.6588 7.55652 16.7498 7.59425C16.8409 7.63197 16.9236 7.68725 16.9932 7.75695C17.5505 8.31411 17.9925 8.97559 18.2941 9.70361C18.5957 10.4316 18.7509 11.2119 18.7509 11.9999C18.7509 12.788 18.5957 13.5683 18.2941 14.2963C17.9925 15.0243 17.5505 15.6858 16.9932 16.2429C16.8517 16.3795 16.6622 16.455 16.4656 16.4532C16.2689 16.4514 16.0808 16.3724 15.9418 16.2333C15.8029 16.0942 15.7241 15.9061 15.7224 15.7094C15.7208 15.5128 15.7965 15.3233 15.9332 15.1819C16.3511 14.7641 16.6825 14.268 16.9087 13.722C17.1348 13.1761 17.2512 12.5909 17.2512 11.9999C17.2512 11.409 17.1348 10.8238 16.9087 10.2779C16.6825 9.73189 16.3511 9.23581 15.9332 8.81795C15.7928 8.67732 15.7139 8.4867 15.7139 8.28795C15.7139 8.0892 15.7928 7.89857 15.9332 7.75795L15.9322 7.75695Z" fill="#9B9B9B"/>
</svg>
