<svg width="27" height="28" viewBox="0 0 27 28" fill="none" xmlns="http://www.w3.org/2000/svg">
<path d="M16.6849 19.8333C16.3969 19.8333 16.1089 19.719 15.8895 19.4915C15.4496 19.0353 15.4496 18.298 15.8895 17.8418L18.7954 14.8283C19.0069 14.6078 19.125 14.315 19.125 14.0023C19.125 13.6897 19.008 13.398 18.7954 13.1775L15.8895 10.1628C15.4496 9.70667 15.4496 8.96817 15.8895 8.51317C16.3294 8.057 17.0404 8.057 17.4802 8.51317L20.3861 11.5267C21.0229 12.187 21.375 13.0667 21.375 14.0012C21.375 14.9357 21.024 15.8153 20.3861 16.4768L17.4802 19.4903C17.2609 19.7178 16.9729 19.8333 16.6849 19.8333ZM11.1105 19.4857C11.5504 19.0295 11.5504 18.2922 11.1105 17.836L8.20463 14.8225C7.992 14.602 7.875 14.3092 7.875 13.9965C7.875 13.6838 7.992 13.3922 8.20463 13.1717L11.1105 10.1582C11.5504 9.702 11.5504 8.96467 11.1105 8.5085C10.6706 8.05233 9.95963 8.05233 9.51975 8.5085L6.61388 11.522C5.976 12.1835 5.625 13.062 5.625 13.9977C5.625 14.9333 5.976 15.8118 6.61388 16.4733L9.51975 19.4868C9.73913 19.7143 10.0271 19.8287 10.3151 19.8287C10.6031 19.8287 10.8911 19.7132 11.1105 19.4857ZM27 22.1667V5.83333C27 2.61683 24.4766 0 21.375 0H5.625C2.52338 0 0 2.61683 0 5.83333V22.1667C0 25.3832 2.52338 28 5.625 28H21.375C24.4766 28 27 25.3832 27 22.1667ZM21.375 2.33333C23.2358 2.33333 24.75 3.90367 24.75 5.83333V22.1667C24.75 24.0963 23.2358 25.6667 21.375 25.6667H5.625C3.76425 25.6667 2.25 24.0963 2.25 22.1667V5.83333C2.25 3.90367 3.76425 2.33333 5.625 2.33333H21.375Z" fill="black"/>
</svg>
