<svg width="34" height="34" viewBox="0 0 34 34" fill="none" xmlns="http://www.w3.org/2000/svg">
<g clip-path="url(#clip0_247_1292)">
<mask id="mask0_247_1292" style="mask-type:luminance" maskUnits="userSpaceOnUse" x="0" y="0" width="34" height="34">
<path d="M33.5 0.5V33.5H0.5V0.5H33.5Z" fill="white" stroke="white"/>
</mask>
<g mask="url(#mask0_247_1292)">
<path d="M2.83301 15.5834C2.83301 12.75 4.24967 11.3334 7.08301 11.3334H14.1663V26.9167C14.1663 29.75 15.583 31.1667 18.4163 31.1667H7.08301C4.24967 31.1667 2.83301 29.75 2.83301 26.9167V21.25" stroke="black" stroke-width="2.5" stroke-miterlimit="10" stroke-linecap="round" stroke-linejoin="round"/>
<path d="M14.3222 5.66675C14.2088 6.09175 14.1663 6.55925 14.1663 7.08341V11.3334H7.08301V8.50008C7.08301 6.94175 8.35801 5.66675 9.91634 5.66675H14.3222Z" stroke="black" stroke-width="2.5" stroke-miterlimit="10" stroke-linecap="round" stroke-linejoin="round"/>
<path d="M19.833 11.3334V18.4167" stroke="black" stroke-width="2.5" stroke-miterlimit="10" stroke-linecap="round" stroke-linejoin="round"/>
<path d="M25.5 11.3334V18.4167" stroke="black" stroke-width="2.5" stroke-miterlimit="10" stroke-linecap="round" stroke-linejoin="round"/>
<path d="M24.083 24.0834H21.2497C20.4705 24.0834 19.833 24.7209 19.833 25.5V31.1667H25.4997V25.5C25.4997 24.7209 24.8622 24.0834 24.083 24.0834Z" stroke="black" stroke-width="2.5" stroke-miterlimit="10" stroke-linecap="round" stroke-linejoin="round"/>
<path d="M8.5 18.4167V24.0834" stroke="black" stroke-width="2.5" stroke-miterlimit="10" stroke-linecap="round" stroke-linejoin="round"/>
<path d="M14.166 26.9167V7.08337C14.166 4.25004 15.5827 2.83337 18.416 2.83337H26.916C29.7493 2.83337 31.166 4.25004 31.166 7.08337V26.9167C31.166 29.75 29.7493 31.1667 26.916 31.1667H18.416C15.5827 31.1667 14.166 29.75 14.166 26.9167Z" stroke="black" stroke-width="2.5" stroke-miterlimit="10" stroke-linecap="round" stroke-linejoin="round"/>
</g>
</g>
<defs>
<clipPath id="clip0_247_1292">
<rect width="34" height="34" fill="white"/>
</clipPath>
</defs>
</svg>
