<svg width="28" height="28" viewBox="0 0 28 28" fill="none" xmlns="http://www.w3.org/2000/svg">
<g clip-path="url(#clip0_248_1352)">
<mask id="mask0_248_1352" style="mask-type:luminance" maskUnits="userSpaceOnUse" x="0" y="0" width="28" height="28">
<path d="M28 0H0V28H28V0Z" fill="white"/>
</mask>
<g mask="url(#mask0_248_1352)">
<path d="M17.4997 2.33337V14C17.4997 15.2834 16.4497 16.3334 15.1663 16.3334H2.33301V7.00004C2.33301 4.42171 4.42134 2.33337 6.99967 2.33337H17.4997Z" stroke="black" stroke-width="2" stroke-linecap="round" stroke-linejoin="round"/>
<path d="M25.6663 16.3334V19.8334C25.6663 21.77 24.103 23.3334 22.1663 23.3334H20.9997C20.9997 22.05 19.9497 21 18.6663 21C17.383 21 16.333 22.05 16.333 23.3334H11.6663C11.6663 22.05 10.6163 21 9.33301 21C8.04967 21 6.99967 22.05 6.99967 23.3334H5.83301C3.89634 23.3334 2.33301 21.77 2.33301 19.8334V16.3334H15.1663C16.4497 16.3334 17.4997 15.2834 17.4997 14V5.83337H19.6463C20.4863 5.83337 21.2563 6.28839 21.6763 7.01172L23.6713 10.5H22.1663C21.5247 10.5 20.9997 11.025 20.9997 11.6667V15.1667C20.9997 15.8084 21.5247 16.3334 22.1663 16.3334H25.6663Z" stroke="black" stroke-width="2" stroke-linecap="round" stroke-linejoin="round"/>
<path d="M9.33333 25.6667C10.622 25.6667 11.6667 24.622 11.6667 23.3333C11.6667 22.0446 10.622 21 9.33333 21C8.04467 21 7 22.0446 7 23.3333C7 24.622 8.04467 25.6667 9.33333 25.6667Z" stroke="black" stroke-width="2" stroke-linecap="round" stroke-linejoin="round"/>
<path d="M18.6663 25.6667C19.955 25.6667 20.9997 24.622 20.9997 23.3333C20.9997 22.0446 19.955 21 18.6663 21C17.3776 21 16.333 22.0446 16.333 23.3333C16.333 24.622 17.3776 25.6667 18.6663 25.6667Z" stroke="black" stroke-width="2" stroke-linecap="round" stroke-linejoin="round"/>
<path d="M25.6667 14V16.3333H22.1667C21.525 16.3333 21 15.8083 21 15.1667V11.6667C21 11.025 21.525 10.5 22.1667 10.5H23.6717L25.6667 14Z" stroke="black" stroke-width="2" stroke-linecap="round" stroke-linejoin="round"/>
</g>
</g>
<defs>
<clipPath id="clip0_248_1352">
<rect width="28" height="28" fill="white"/>
</clipPath>
</defs>
</svg>
