<svg width="21" height="24" viewBox="0 0 21 24" fill="none" xmlns="http://www.w3.org/2000/svg">
<path d="M20.6979 0.939C20.3329 0.351 19.7009 0 19.0089 0H15.9999C14.4659 0 13.0909 0.854 12.4129 2.23L10.5519 6.003C10.5309 6.003 10.5099 6 10.4889 6C10.4749 6 10.4619 6.002 10.4479 6.002L8.58695 2.23C7.90795 0.854 6.53395 0 4.99995 0H1.99095C1.29895 0 0.666949 0.351 0.300949 0.939C-0.0640512 1.527 -0.0990512 2.249 0.206949 2.87L3.43895 9.423C2.22195 10.958 1.48895 12.894 1.48895 15.001C1.48895 19.963 5.52695 24.001 10.4889 24.001C15.4509 24.001 19.4889 19.963 19.4889 15.001C19.4889 12.902 18.7609 10.974 17.5519 9.441L20.7929 2.871C21.0999 2.25 21.0639 1.528 20.6989 0.94L20.6979 0.939ZM4.99895 2C5.76595 2 6.45295 2.427 6.79195 3.115L8.34695 6.268C7.08295 6.578 5.92295 7.152 4.93095 7.934L1.98995 2H4.99895ZM10.4879 22C6.62795 22 3.48795 18.86 3.48795 15C3.48795 11.34 6.31295 8.332 9.89695 8.03C9.89795 8.03 9.89895 8.03 9.90095 8.03C10.0949 8.014 10.2909 8 10.4889 8C14.3489 8 17.4889 11.14 17.4889 15C17.4889 18.86 14.3489 22 10.4889 22H10.4879ZM16.0579 7.945C15.0679 7.161 13.9099 6.586 12.6479 6.273L14.2059 3.115C14.5449 2.427 15.2319 2 15.9989 2L18.9989 1.985L16.0579 7.945ZM14.6449 14.41C14.6449 14.771 14.3939 15.075 14.1059 15.235L12.6159 16.063L13.2769 17.866C13.4049 18.215 13.2889 18.607 12.9919 18.831C12.6879 19.06 12.2689 19.057 11.9689 18.824L10.4869 17.678L9.00495 18.824C8.70395 19.056 8.28495 19.059 7.98195 18.831C7.68495 18.607 7.56895 18.216 7.69695 17.866L8.35795 16.063L6.86795 15.235C6.57995 15.075 6.32895 14.771 6.32895 14.41C6.32895 14.104 6.59495 13.766 7.02495 13.766H9.16495L9.73195 11.591C9.82195 11.246 10.1309 11.006 10.4869 11C10.8419 11.007 11.1519 11.246 11.2419 11.591L11.8089 13.766H13.9489C14.3789 13.766 14.6449 14.103 14.6449 14.41Z" fill="#FFB300"/>
</svg>
