<svg width="14" height="16" viewBox="0 0 14 16" fill="none" xmlns="http://www.w3.org/2000/svg">
<path d="M13.7986 0.626C13.5553 0.234 13.134 0 12.6726 0H10.6666C9.64396 0 8.7273 0.569333 8.2753 1.48667L7.03463 4.002C7.02063 4.002 7.00663 4 6.99263 4C6.9833 4 6.97463 4.00133 6.9653 4.00133L5.72463 1.48667C5.27197 0.569333 4.35597 0 3.3333 0H1.3273C0.865966 0 0.444633 0.234 0.200633 0.626C-0.0427008 1.018 -0.0660341 1.49933 0.137966 1.91333L2.29263 6.282C1.4813 7.30533 0.992632 8.596 0.992632 10.0007C0.992632 13.3087 3.68463 16.0007 6.99263 16.0007C10.3006 16.0007 12.9926 13.3087 12.9926 10.0007C12.9926 8.60133 12.5073 7.316 11.7013 6.294L13.862 1.914C14.0666 1.5 14.0426 1.01867 13.7993 0.626667L13.7986 0.626ZM3.33263 1.33333C3.84397 1.33333 4.30197 1.618 4.52797 2.07667L5.56463 4.17867C4.72197 4.38533 3.94863 4.768 3.2873 5.28933L1.32663 1.33333H3.33263ZM6.99197 14.6667C4.41863 14.6667 2.3253 12.5733 2.3253 10C2.3253 7.56 4.20863 5.55467 6.59797 5.35333C6.59863 5.35333 6.5993 5.35333 6.60063 5.35333C6.72997 5.34267 6.86063 5.33333 6.99263 5.33333C9.56597 5.33333 11.6593 7.42667 11.6593 10C11.6593 12.5733 9.56597 14.6667 6.99263 14.6667H6.99197ZM10.7053 5.29667C10.0453 4.774 9.2733 4.39067 8.43196 4.182L9.47063 2.07667C9.69663 1.618 10.1546 1.33333 10.666 1.33333L12.666 1.32333L10.7053 5.29667ZM9.7633 9.60667C9.7633 9.84733 9.59597 10.05 9.40396 10.1567L8.41063 10.7087L8.8513 11.9107C8.93663 12.1433 8.8593 12.4047 8.6613 12.554C8.45863 12.7067 8.1793 12.7047 7.9793 12.5493L6.9913 11.7853L6.0033 12.5493C5.80263 12.704 5.5233 12.706 5.3213 12.554C5.1233 12.4047 5.04597 12.144 5.1313 11.9107L5.57197 10.7087L4.57863 10.1567C4.38663 10.05 4.2193 9.84733 4.2193 9.60667C4.2193 9.40267 4.39663 9.17733 4.6833 9.17733H6.10997L6.48797 7.72733C6.54797 7.49733 6.75396 7.33733 6.9913 7.33333C7.22796 7.338 7.43463 7.49733 7.49463 7.72733L7.87263 9.17733H9.2993C9.58597 9.17733 9.7633 9.402 9.7633 9.60667Z" fill="#B8860B"/>
</svg>
